<svg width="464" height="77" viewBox="0 0 464 77" fill="none" xmlns="http://www.w3.org/2000/svg">
<path d="M1.26513 38.5L30.3261 1H433.674L462.735 38.5L433.674 76H232H30.3261L1.26513 38.5Z" fill="#B40E0D" fill-opacity="0.15" stroke="#B40E0D" stroke-width="2"/>
<path d="M102.684 49.622C106.254 49.622 110.916 45.59 111.672 42.146H111.966C111.756 43.532 111.294 44.876 111.042 46.262C110.832 47.522 110.832 48.782 110.58 50H110.286C110.412 49.58 109.95 49.496 109.656 49.496C107.64 49.496 105.288 50.42 102.894 50.42C94.452 50.42 90.42 42.902 90.42 35.3C90.42 27.698 94.452 20.18 102.894 20.18C105.204 20.18 107.472 21.104 109.278 21.104C109.614 21.104 109.908 21.02 109.824 20.6H110.118C110.37 21.818 110.37 23.078 110.58 24.338C110.832 25.724 111.294 27.068 111.504 28.454H111.21C110.412 24.8 104.784 21.23 101.172 21.23C95.838 21.23 94.83 27.698 94.83 31.814C94.83 36.392 96.3 49.622 102.684 49.622ZM123.389 50C121.499 50 120.449 49.748 118.643 49.748C116.963 49.748 115.325 50 113.645 50V49.748C115.955 49.748 116.627 48.698 116.627 42.566V28.034C116.627 23.666 116.627 22.448 114.317 22.448V22.196C116.963 21.86 119.063 20.39 120.155 18.5H120.407V34.166C121.961 31.352 124.775 28.58 128.009 28.58C131.327 28.58 132.755 31.562 132.755 35.762V42.566C132.755 48.698 133.427 49.748 135.737 49.748V50C133.847 50 132.797 49.748 130.991 49.748C129.311 49.748 127.673 50 125.993 50V49.748C128.303 49.748 128.975 48.698 128.975 42.566V37.694C128.975 33.704 127.547 31.142 125.363 31.142C123.977 31.142 122.255 32.234 120.407 34.754V42.566C120.407 48.698 121.079 49.748 123.389 49.748V50ZM148.583 50.42V45.758C147.743 48.656 145.685 50.42 142.241 50.42C139.721 50.42 136.613 49.454 136.613 45.422C136.613 40.76 140.813 37.778 145.643 37.778C146.483 37.778 147.617 37.862 148.583 38.156V37.694C148.583 33.452 146.777 31.142 144.383 31.142C142.661 31.142 140.561 32.444 138.713 35.09H138.503C140.057 31.184 142.871 28.58 146.525 28.58C150.179 28.58 152.363 31.226 152.363 35.762V42.566C152.363 48.698 153.035 49.748 155.345 49.748V50C153.119 50 151.019 50 149.003 50.42H148.583ZM148.583 44.54V40.34C148.541 38.996 147.701 38.198 146.147 38.198C143.417 38.198 140.519 40.676 140.477 44.498C140.435 48.278 143.291 49.076 144.509 49.076C146.483 49.076 148.121 46.976 148.583 44.54ZM166.783 50C164.893 50 163.843 49.748 162.037 49.748C160.357 49.748 158.719 50 157.039 50V49.748C159.349 49.748 160.021 48.698 160.021 42.566V38.114C160.021 33.746 160.021 32.528 157.711 32.528V32.276C160.357 31.94 162.457 30.47 163.549 28.58H163.801V34.544C164.977 31.604 166.447 28.58 169.807 28.58C172.621 28.58 174.091 30.722 174.469 33.956C175.603 31.226 177.073 28.58 180.223 28.58C183.541 28.58 184.969 31.562 184.969 35.762V42.566C184.969 48.698 185.641 49.748 187.951 49.748V50C186.061 50 185.011 49.748 183.205 49.748C181.525 49.748 179.887 50 178.207 50V49.748C180.517 49.748 181.189 48.698 181.189 42.566V37.694C181.189 33.704 179.761 31.058 177.997 31.058C176.905 31.058 175.645 32.108 174.511 34.46C174.553 34.88 174.553 35.3 174.553 35.762V42.566C174.553 48.698 175.225 49.748 177.535 49.748V50C175.645 50 174.595 49.748 172.789 49.748C171.109 49.748 169.471 50 167.791 50V49.748C170.101 49.748 170.773 48.698 170.773 42.566V37.694C170.773 33.704 169.345 31.058 167.581 31.058C166.363 31.058 165.019 32.276 163.801 35.09V42.566C163.801 48.698 164.473 49.748 166.783 49.748V50ZM198.119 60.08C196.229 60.08 195.179 59.828 193.373 59.828C191.693 59.828 190.055 60.08 188.375 60.08V59.828C190.685 59.828 191.357 58.778 191.357 52.646V38.114C191.357 33.746 191.357 32.528 189.047 32.528V32.276C191.693 31.94 193.793 30.47 194.885 28.58H195.137V36.224C196.103 31.268 198.539 28.58 202.151 28.58C206.057 28.58 208.409 31.688 208.409 37.988C208.409 45.926 204.713 50.42 198.245 50.42C197.489 50.42 196.271 50.378 195.137 49.958V52.646C195.137 58.778 195.809 59.828 198.119 59.828V60.08ZM195.137 37.652V46.262C195.221 48.572 197.111 49.832 199.085 49.832C202.445 49.832 204.503 46.052 204.545 39.71C204.587 33.452 202.613 30.89 200.093 30.89C197.573 30.89 195.767 33.41 195.137 37.652ZM211.132 24.632L214.114 20.684L217.096 24.632L214.114 28.58L211.132 24.632ZM219.406 50C217.516 50 216.466 49.748 214.66 49.748C212.98 49.748 211.342 50 209.662 50V49.748C211.972 49.748 212.644 48.698 212.644 42.566V38.114C212.644 33.746 212.644 32.528 210.334 32.528V32.276C212.98 31.94 215.08 30.47 216.172 28.58H216.424V42.566C216.424 48.698 217.096 49.748 219.406 49.748V50ZM220.285 39.5C220.285 33.788 223.351 28.58 229.609 28.58C235.867 28.58 238.891 33.788 238.891 39.5C238.891 45.212 235.867 50.42 229.609 50.42C223.351 50.42 220.285 45.212 220.285 39.5ZM223.939 37.022C223.939 40.718 225.535 49.706 230.533 49.706C234.355 49.706 235.237 44.876 235.237 41.978C235.237 38.282 233.683 29.294 228.643 29.294C224.821 29.294 223.939 34.082 223.939 37.022ZM250.332 50C248.442 50 247.392 49.748 245.586 49.748C243.906 49.748 242.268 50 240.588 50V49.748C242.898 49.748 243.57 48.698 243.57 42.566V38.114C243.57 33.746 243.57 32.528 241.26 32.528V32.276C243.906 31.94 246.006 30.47 247.098 28.58H247.35V34.166C248.904 31.352 251.718 28.58 254.952 28.58C258.27 28.58 259.698 31.562 259.698 35.762V42.566C259.698 48.698 260.37 49.748 262.68 49.748V50C260.79 50 259.74 49.748 257.934 49.748C256.254 49.748 254.616 50 252.936 50V49.748C255.246 49.748 255.918 48.698 255.918 42.566V37.694C255.918 33.704 254.49 31.142 252.306 31.142C250.92 31.142 249.198 32.234 247.35 34.754V42.566C247.35 48.698 248.022 49.748 250.332 49.748V50ZM267.569 33.41C267.569 38.786 280.463 36.518 280.463 44.204C280.463 48.11 277.187 50.42 272.063 50.42C268.409 50.42 266.435 49.244 265.847 49.244C265.721 49.244 265.637 49.328 265.679 49.538H265.469C265.217 48.53 265.301 47.984 265.091 46.808C264.881 45.842 264.587 45.002 264.377 43.868H264.629C265.175 46.304 268.871 49.664 272.357 49.664C274.373 49.664 277.145 48.572 277.145 45.8C277.145 39.878 264.461 42.062 264.461 34.628C264.461 30.932 267.611 28.58 272.777 28.58C277.397 28.58 278.741 30.47 278.573 29.462H278.783C279.035 30.512 278.951 31.016 279.161 32.108C279.371 33.158 279.707 33.998 279.875 35.132H279.665C279.077 32.78 276.053 29.336 272.609 29.336C270.215 29.336 267.569 30.974 267.569 33.41ZM307.253 20.852C309.269 20.852 311.327 20.6 313.427 20.6C316.997 20.6 320.399 21.062 320.189 19.676H320.483C320.777 21.104 320.651 21.818 320.945 23.372C321.197 24.8 321.617 25.976 321.869 27.53H321.575C320.861 24.254 317.543 21.44 312.713 21.44C310.109 21.44 309.353 22.784 309.353 28.034V42.566C309.353 48.698 310.109 49.748 312.713 49.748V50C310.613 50 309.437 49.748 307.421 49.748C305.531 49.748 303.683 50 301.793 50V49.748C304.397 49.748 305.153 48.698 305.153 42.566V28.034C305.153 22.784 304.397 21.44 301.793 21.44C296.963 21.44 293.645 24.254 292.931 27.53H292.637C292.889 25.976 293.309 24.8 293.561 23.372C293.855 21.818 293.729 21.104 294.023 19.676H294.317C294.107 21.062 297.509 20.6 301.079 20.6C303.179 20.6 305.237 20.852 307.253 20.852ZM331.595 50.42V45.758C330.755 48.656 328.697 50.42 325.253 50.42C322.733 50.42 319.625 49.454 319.625 45.422C319.625 40.76 323.825 37.778 328.655 37.778C329.495 37.778 330.629 37.862 331.595 38.156V37.694C331.595 33.452 329.789 31.142 327.395 31.142C325.673 31.142 323.573 32.444 321.725 35.09H321.515C323.069 31.184 325.883 28.58 329.537 28.58C333.191 28.58 335.375 31.226 335.375 35.762V42.566C335.375 48.698 336.047 49.748 338.357 49.748V50C336.131 50 334.031 50 332.015 50.42H331.595ZM331.595 44.54V40.34C331.553 38.996 330.713 38.198 329.159 38.198C326.429 38.198 323.531 40.676 323.489 44.498C323.447 48.278 326.303 49.076 327.521 49.076C329.495 49.076 331.133 46.976 331.595 44.54ZM349.795 50C347.905 50 346.855 49.748 345.049 49.748C343.369 49.748 341.731 50 340.051 50V49.748C342.361 49.748 343.033 48.698 343.033 42.566V28.034C343.033 23.666 343.033 22.448 340.723 22.448V22.196C343.369 21.86 345.469 20.39 346.561 18.5H346.813V42.566C346.813 48.698 347.485 49.748 349.795 49.748V50ZM361.238 50C359.348 50 358.298 49.748 356.492 49.748C354.812 49.748 353.174 50 351.494 50V49.748C353.804 49.748 354.476 48.698 354.476 42.566V28.034C354.476 23.666 354.476 22.448 352.166 22.448V22.196C354.812 21.86 356.912 20.39 358.004 18.5H358.256V40.13L359.516 38.576C363.464 33.704 365.27 29.252 362.204 29.252V29C363.674 29 365.606 29.252 367.076 29.252C368.42 29.252 369.722 29 371.108 29V29.252C369.05 29.252 365.48 32.822 362.456 36.266L365.48 40.676C368.756 45.464 371.948 49.748 374.132 49.748V50C372.368 50 371.402 49.748 369.68 49.748C368.084 49.748 366.53 50 364.976 50V49.748C367.16 49.748 364.934 46.388 361.532 41.558L359.894 39.248L358.256 41.138V42.566C358.256 48.698 358.928 49.748 361.238 49.748V50Z" fill="white"/>
</svg>
