<svg width="119" height="128" viewBox="0 0 119 128" fill="none" xmlns="http://www.w3.org/2000/svg">
<path d="M33.6667 4.75C29.2333 4.75 25.75 8.23333 25.75 12.6667C25.75 13.6167 26.3833 14.25 27.3333 14.25H38.4167V63.3333C38.4167 67.7667 41.9 71.25 46.3333 71.25H84.3333C88.7667 71.25 92.25 67.7667 92.25 63.3333C92.25 62.3833 91.6167 61.75 90.6667 61.75H85.9167V12.6667C85.9167 8.23333 82.4333 4.75 78 4.75H33.6667ZM33.6667 7.91667C35.725 7.91667 37.4667 9.18333 38.1 11.0833H29.2333C29.8667 9.18333 31.6083 7.91667 33.6667 7.91667ZM40 7.91667H78C80.6917 7.91667 82.75 9.975 82.75 12.6667V61.75H52.6667C51.7167 61.75 51.0833 62.3833 51.0833 63.3333C51.0833 66.025 49.025 68.0833 46.3333 68.0833C43.6417 68.0833 41.5833 66.025 41.5833 63.3333V12.6667C41.5833 10.925 40.95 9.18333 40 7.91667ZM52.6667 11.0833C51.7167 11.0833 51.0833 11.7167 51.0833 12.6667C51.0833 13.6167 51.7167 14.25 52.6667 14.25H66.9167C67.8667 14.25 68.5 13.6167 68.5 12.6667C68.5 11.7167 67.8667 11.0833 66.9167 11.0833H52.6667ZM46.3333 17.4167C45.3833 17.4167 44.75 18.05 44.75 19C44.75 19.95 45.3833 20.5833 46.3333 20.5833H78C78.95 20.5833 79.5833 19.95 79.5833 19C79.5833 18.05 78.95 17.4167 78 17.4167H46.3333ZM46.3333 23.75C45.3833 23.75 44.75 24.3833 44.75 25.3333C44.75 26.2833 45.3833 26.9167 46.3333 26.9167H78C78.95 26.9167 79.5833 26.2833 79.5833 25.3333C79.5833 24.3833 78.95 23.75 78 23.75H46.3333ZM46.3333 30.0833C45.3833 30.0833 44.75 30.7167 44.75 31.6667C44.75 32.6167 45.3833 33.25 46.3333 33.25H78C78.95 33.25 79.5833 32.6167 79.5833 31.6667C79.5833 30.7167 78.95 30.0833 78 30.0833H46.3333ZM46.3333 36.4167C45.3833 36.4167 44.75 37.05 44.75 38C44.75 38.95 45.3833 39.5833 46.3333 39.5833H78C78.95 39.5833 79.5833 38.95 79.5833 38C79.5833 37.05 78.95 36.4167 78 36.4167H46.3333ZM46.3333 42.75C45.3833 42.75 44.75 43.3833 44.75 44.3333C44.75 45.2833 45.3833 45.9167 46.3333 45.9167H78C78.95 45.9167 79.5833 45.2833 79.5833 44.3333C79.5833 43.3833 78.95 42.75 78 42.75H46.3333ZM46.3333 49.0833C45.3833 49.0833 44.75 49.7167 44.75 50.6667C44.75 51.6167 45.3833 52.25 46.3333 52.25H78C78.95 52.25 79.5833 51.6167 79.5833 50.6667C79.5833 49.7167 78.95 49.0833 78 49.0833H46.3333ZM46.3333 55.4167C45.3833 55.4167 44.75 56.05 44.75 57C44.75 57.95 45.3833 58.5833 46.3333 58.5833H52.6667C53.6167 58.5833 54.25 57.95 54.25 57C54.25 56.05 53.6167 55.4167 52.6667 55.4167H46.3333ZM71.6667 55.4167C70.7167 55.4167 70.0833 56.05 70.0833 57C70.0833 57.95 70.7167 58.5833 71.6667 58.5833H78C78.95 58.5833 79.5833 57.95 79.5833 57C79.5833 56.05 78.95 55.4167 78 55.4167H71.6667ZM54.0917 64.9167H88.7667C88.1333 66.8167 86.3917 68.0833 84.3333 68.0833H52.6667C53.3 67.1333 53.9333 66.025 54.0917 64.9167Z" fill="url(#paint0_linear_62_864)"/>
<path d="M33.6667 4.75C29.2333 4.75 25.75 8.23333 25.75 12.6667C25.75 13.6167 26.3833 14.25 27.3333 14.25H38.4167V63.3333C38.4167 67.7667 41.9 71.25 46.3333 71.25H84.3333C88.7667 71.25 92.25 67.7667 92.25 63.3333C92.25 62.3833 91.6167 61.75 90.6667 61.75H85.9167V12.6667C85.9167 8.23333 82.4333 4.75 78 4.75H33.6667ZM33.6667 7.91667C35.725 7.91667 37.4667 9.18333 38.1 11.0833H29.2333C29.8667 9.18333 31.6083 7.91667 33.6667 7.91667ZM40 7.91667H78C80.6917 7.91667 82.75 9.975 82.75 12.6667V61.75H52.6667C51.7167 61.75 51.0833 62.3833 51.0833 63.3333C51.0833 66.025 49.025 68.0833 46.3333 68.0833C43.6417 68.0833 41.5833 66.025 41.5833 63.3333V12.6667C41.5833 10.925 40.95 9.18333 40 7.91667ZM52.6667 11.0833C51.7167 11.0833 51.0833 11.7167 51.0833 12.6667C51.0833 13.6167 51.7167 14.25 52.6667 14.25H66.9167C67.8667 14.25 68.5 13.6167 68.5 12.6667C68.5 11.7167 67.8667 11.0833 66.9167 11.0833H52.6667ZM46.3333 17.4167C45.3833 17.4167 44.75 18.05 44.75 19C44.75 19.95 45.3833 20.5833 46.3333 20.5833H78C78.95 20.5833 79.5833 19.95 79.5833 19C79.5833 18.05 78.95 17.4167 78 17.4167H46.3333ZM46.3333 23.75C45.3833 23.75 44.75 24.3833 44.75 25.3333C44.75 26.2833 45.3833 26.9167 46.3333 26.9167H78C78.95 26.9167 79.5833 26.2833 79.5833 25.3333C79.5833 24.3833 78.95 23.75 78 23.75H46.3333ZM46.3333 30.0833C45.3833 30.0833 44.75 30.7167 44.75 31.6667C44.75 32.6167 45.3833 33.25 46.3333 33.25H78C78.95 33.25 79.5833 32.6167 79.5833 31.6667C79.5833 30.7167 78.95 30.0833 78 30.0833H46.3333ZM46.3333 36.4167C45.3833 36.4167 44.75 37.05 44.75 38C44.75 38.95 45.3833 39.5833 46.3333 39.5833H78C78.95 39.5833 79.5833 38.95 79.5833 38C79.5833 37.05 78.95 36.4167 78 36.4167H46.3333ZM46.3333 42.75C45.3833 42.75 44.75 43.3833 44.75 44.3333C44.75 45.2833 45.3833 45.9167 46.3333 45.9167H78C78.95 45.9167 79.5833 45.2833 79.5833 44.3333C79.5833 43.3833 78.95 42.75 78 42.75H46.3333ZM46.3333 49.0833C45.3833 49.0833 44.75 49.7167 44.75 50.6667C44.75 51.6167 45.3833 52.25 46.3333 52.25H78C78.95 52.25 79.5833 51.6167 79.5833 50.6667C79.5833 49.7167 78.95 49.0833 78 49.0833H46.3333ZM46.3333 55.4167C45.3833 55.4167 44.75 56.05 44.75 57C44.75 57.95 45.3833 58.5833 46.3333 58.5833H52.6667C53.6167 58.5833 54.25 57.95 54.25 57C54.25 56.05 53.6167 55.4167 52.6667 55.4167H46.3333ZM71.6667 55.4167C70.7167 55.4167 70.0833 56.05 70.0833 57C70.0833 57.95 70.7167 58.5833 71.6667 58.5833H78C78.95 58.5833 79.5833 57.95 79.5833 57C79.5833 56.05 78.95 55.4167 78 55.4167H71.6667ZM54.0917 64.9167H88.7667C88.1333 66.8167 86.3917 68.0833 84.3333 68.0833H52.6667C53.3 67.1333 53.9333 66.025 54.0917 64.9167Z" fill="url(#paint1_linear_62_864)"/>
<path d="M8.52 120H6.456V108.024C6.456 107.56 6.456 107.168 6.456 106.848C6.472 106.528 6.488 106.232 6.504 105.96C6.52 105.672 6.536 105.376 6.552 105.072C6.296 105.328 6.064 105.544 5.856 105.72C5.648 105.896 5.384 106.12 5.064 106.392L3.24 107.88L2.136 106.464L6.768 102.864H8.52V120ZM26.2864 111.408C26.2864 112.8 26.1824 114.04 25.9744 115.128C25.7664 116.216 25.4304 117.144 24.9664 117.912C24.5184 118.664 23.9264 119.24 23.1904 119.64C22.4704 120.04 21.5984 120.24 20.5744 120.24C19.2944 120.24 18.2304 119.888 17.3824 119.184C16.5504 118.48 15.9264 117.472 15.5104 116.16C15.1104 114.832 14.9104 113.248 14.9104 111.408C14.9104 109.552 15.0944 107.968 15.4624 106.656C15.8464 105.344 16.4544 104.344 17.2864 103.656C18.1184 102.952 19.2144 102.6 20.5744 102.6C21.8544 102.6 22.9184 102.952 23.7664 103.656C24.6144 104.344 25.2464 105.344 25.6624 106.656C26.0784 107.968 26.2864 109.552 26.2864 111.408ZM17.0224 111.408C17.0224 112.976 17.1344 114.28 17.3584 115.32C17.5984 116.36 17.9744 117.144 18.4864 117.672C19.0144 118.184 19.7104 118.44 20.5744 118.44C21.4384 118.44 22.1264 118.184 22.6384 117.672C23.1664 117.16 23.5504 116.384 23.7904 115.344C24.0304 114.288 24.1504 112.976 24.1504 111.408C24.1504 109.84 24.0304 108.544 23.7904 107.52C23.5504 106.48 23.1664 105.704 22.6384 105.192C22.1264 104.664 21.4384 104.4 20.5744 104.4C19.7104 104.4 19.0144 104.664 18.4864 105.192C17.9744 105.704 17.5984 106.48 17.3584 107.52C17.1344 108.544 17.0224 109.84 17.0224 111.408ZM40.0208 111.408C40.0208 112.8 39.9168 114.04 39.7088 115.128C39.5008 116.216 39.1648 117.144 38.7008 117.912C38.2528 118.664 37.6608 119.24 36.9248 119.64C36.2048 120.04 35.3328 120.24 34.3088 120.24C33.0288 120.24 31.9648 119.888 31.1168 119.184C30.2848 118.48 29.6608 117.472 29.2448 116.16C28.8448 114.832 28.6448 113.248 28.6448 111.408C28.6448 109.552 28.8288 107.968 29.1968 106.656C29.5808 105.344 30.1888 104.344 31.0208 103.656C31.8528 102.952 32.9488 102.6 34.3088 102.6C35.5888 102.6 36.6528 102.952 37.5008 103.656C38.3488 104.344 38.9808 105.344 39.3968 106.656C39.8128 107.968 40.0208 109.552 40.0208 111.408ZM30.7568 111.408C30.7568 112.976 30.8688 114.28 31.0928 115.32C31.3328 116.36 31.7088 117.144 32.2208 117.672C32.7488 118.184 33.4448 118.44 34.3088 118.44C35.1728 118.44 35.8608 118.184 36.3728 117.672C36.9008 117.16 37.2848 116.384 37.5248 115.344C37.7648 114.288 37.8848 112.976 37.8848 111.408C37.8848 109.84 37.7648 108.544 37.5248 107.52C37.2848 106.48 36.9008 105.704 36.3728 105.192C35.8608 104.664 35.1728 104.4 34.3088 104.4C33.4448 104.4 32.7488 104.664 32.2208 105.192C31.7088 105.704 31.3328 106.48 31.0928 107.52C30.8688 108.544 30.7568 109.84 30.7568 111.408ZM45.8831 102.624C47.0671 102.624 47.9631 103.096 48.5711 104.04C49.1791 104.968 49.4831 106.28 49.4831 107.976C49.4831 109.672 49.1871 111 48.5951 111.96C48.0191 112.904 47.1151 113.376 45.8831 113.376C45.1311 113.376 44.4911 113.16 43.9631 112.728C43.4351 112.296 43.0351 111.68 42.7631 110.88C42.5071 110.064 42.3791 109.096 42.3791 107.976C42.3791 106.28 42.6591 104.968 43.2191 104.04C43.7791 103.096 44.6671 102.624 45.8831 102.624ZM45.8831 104.112C45.2751 104.112 44.8271 104.44 44.5391 105.096C44.2671 105.736 44.1311 106.696 44.1311 107.976C44.1311 109.256 44.2671 110.224 44.5391 110.88C44.8271 111.536 45.2751 111.864 45.8831 111.864C46.5071 111.864 46.9711 111.544 47.2751 110.904C47.5791 110.248 47.7311 109.272 47.7311 107.976C47.7311 106.696 47.5791 105.736 47.2751 105.096C46.9711 104.44 46.5071 104.112 45.8831 104.112ZM56.8511 102.864L47.3471 120H45.4991L55.0031 102.864H56.8511ZM56.3711 109.488C57.1551 109.488 57.8111 109.704 58.3391 110.136C58.8671 110.552 59.2671 111.16 59.5391 111.96C59.8271 112.744 59.9711 113.704 59.9711 114.84C59.9711 116.536 59.6751 117.864 59.0831 118.824C58.5071 119.768 57.6031 120.24 56.3711 120.24C55.6191 120.24 54.9791 120.024 54.4511 119.592C53.9231 119.16 53.5231 118.544 53.2511 117.744C52.9951 116.928 52.8671 115.96 52.8671 114.84C52.8671 113.144 53.1471 111.832 53.7071 110.904C54.2671 109.96 55.1551 109.488 56.3711 109.488ZM56.3711 111C55.7631 111 55.3151 111.32 55.0271 111.96C54.7551 112.6 54.6191 113.56 54.6191 114.84C54.6191 116.136 54.7551 117.112 55.0271 117.768C55.3151 118.408 55.7631 118.728 56.3711 118.728C56.9951 118.728 57.4591 118.408 57.7631 117.768C58.0671 117.128 58.2191 116.152 58.2191 114.84C58.2191 113.56 58.0671 112.6 57.7631 111.96C57.4591 111.32 56.9951 111 56.3711 111ZM73.8684 119.52H74.8044C77.5644 119.52 79.4604 117.912 79.8684 116.04H80.0364C79.8924 116.928 79.6524 117.6 79.5084 118.392C79.3404 119.304 79.4124 119.712 79.2444 120.528H79.0764C79.1964 119.736 77.2524 120 75.2124 120H73.8684C72.6684 120 71.9964 119.856 70.8444 119.856C69.7644 119.856 68.7084 120 67.6284 120V119.856C69.1164 119.856 69.5484 119.256 69.5484 115.752V107.448C69.5484 103.944 69.1164 103.344 67.6284 103.344V103.2C68.7084 103.2 69.7644 103.344 70.8444 103.344C71.9964 103.344 72.6684 103.2 73.8684 103.2V103.344C72.3804 103.344 71.9484 103.944 71.9484 107.448V115.752C71.9484 118.752 72.3804 119.52 73.8684 119.52ZM90.2278 112.632H83.0758C83.0758 115.272 83.9638 119.232 87.2758 119.232C88.2358 119.232 88.8598 118.8 89.5078 118.152L89.6278 118.248C88.6678 119.472 87.7078 120.24 86.0998 120.24C82.6438 120.24 80.9878 117.096 80.9878 114C80.9878 110.736 82.7398 107.76 86.3158 107.76C88.9798 107.76 90.2278 110.256 90.2278 112.632ZM83.0758 112.344L88.1158 112.008C88.1158 110.544 87.8278 108.144 85.8838 108.144C83.6998 108.144 83.1238 110.568 83.0758 112.344ZM91.3751 112.344C91.3751 109.536 93.1991 107.76 95.9831 107.76H100.351V107.856L98.2391 108.288C99.6311 109.032 100.447 110.472 100.447 112.344C100.447 115.128 98.6711 116.976 95.8871 116.976C94.6391 116.976 93.5831 116.568 92.7911 115.872C92.6711 116.04 92.5991 116.184 92.5991 116.328C92.5991 117.84 100.807 118.8 100.807 122.232C100.807 124.2 98.0951 125.16 95.6711 125.16C93.0311 125.16 91.1831 124.032 91.1831 122.4C91.1831 121.032 92.4791 120.408 94.5911 119.976C92.9111 119.256 91.3031 118.512 91.3031 117.216C91.3031 116.616 91.6391 116.184 92.5991 115.68C91.8311 114.864 91.3751 113.712 91.3751 112.344ZM93.5351 112.488C93.5111 115.032 94.4951 116.712 95.8631 116.64C97.3271 116.568 98.2151 114.864 98.2631 112.272C98.2871 109.704 97.3271 108 95.8871 108.072C94.4951 108.12 93.5591 109.872 93.5351 112.488ZM94.8791 120.096C94.1591 120.504 93.4631 121.464 93.4631 122.4C93.4631 123.744 94.8551 124.872 96.4151 124.872C97.5911 124.872 98.5031 124.224 98.5031 123.168C98.5031 121.656 96.6791 120.864 94.8791 120.096ZM108.008 120.24V117.576C107.528 119.232 106.352 120.24 104.384 120.24C102.944 120.24 101.168 119.688 101.168 117.384C101.168 114.72 103.568 113.016 106.328 113.016C106.808 113.016 107.456 113.064 108.008 113.232V112.968C108.008 110.544 106.976 109.224 105.608 109.224C104.624 109.224 103.424 109.968 102.368 111.48H102.248C103.136 109.248 104.744 107.76 106.832 107.76C108.92 107.76 110.168 109.272 110.168 111.864V115.752C110.168 119.256 110.552 119.856 111.872 119.856V120C110.6 120 109.4 120 108.248 120.24H108.008ZM108.008 116.88V114.48C107.984 113.712 107.504 113.256 106.616 113.256C105.056 113.256 103.4 114.672 103.376 116.856C103.352 119.016 104.984 119.472 105.68 119.472C106.808 119.472 107.743 118.272 108.008 116.88ZM118.407 120C117.327 120 116.727 119.856 115.695 119.856C114.735 119.856 113.799 120 112.839 120V119.856C114.159 119.856 114.543 119.256 114.543 115.752V107.448C114.543 104.952 114.543 104.256 113.223 104.256V104.112C114.735 103.92 115.935 103.08 116.559 102H116.703V115.752C116.703 119.256 117.087 119.856 118.407 119.856V120Z" fill="white" fill-opacity="0.8"/>
<defs>
<linearGradient id="paint0_linear_62_864" x1="26" y1="8.5" x2="86" y2="62.5" gradientUnits="userSpaceOnUse">
<stop offset="0.354667" stop-color="#E53CB8"/>
<stop offset="1" stop-color="#700AC2"/>
</linearGradient>
<linearGradient id="paint1_linear_62_864" x1="34.8418" y1="4.75" x2="78.2391" y2="21.549" gradientUnits="userSpaceOnUse">
<stop stop-color="#AD0B40" stop-opacity="0.878431"/>
<stop offset="1" stop-color="#FF1917"/>
</linearGradient>
</defs>
</svg>
