<svg width="1300" height="97" viewBox="0 0 1300 97" fill="none" xmlns="http://www.w3.org/2000/svg">
<g filter="url(#filter0_d_1_710)">
<path d="M34.9432 10H1265.06L1290 48.5L1265.06 87H34.9432L10 48.5L34.9432 10Z" fill="#B40E0D" fill-opacity="0.15" shape-rendering="crispEdges"/>
<path d="M11.1915 48.5L35.4869 11H1264.51L1288.81 48.5L1264.51 86H35.4869L11.1915 48.5Z" stroke="#B40E0D" stroke-width="2" shape-rendering="crispEdges"/>
</g>
<rect x="1138" y="24" width="112" height="48" rx="8" fill="white"/>
<path d="M1171.24 44.119C1171.19 44.209 1171.13 44.278 1171.06 44.326C1171 44.368 1170.93 44.389 1170.84 44.389C1170.74 44.389 1170.62 44.338 1170.48 44.236C1170.34 44.134 1170.17 44.023 1169.96 43.903C1169.75 43.777 1169.5 43.663 1169.21 43.561C1168.92 43.459 1168.57 43.408 1168.16 43.408C1167.77 43.408 1167.42 43.462 1167.12 43.57C1166.83 43.672 1166.58 43.813 1166.38 43.993C1166.18 44.173 1166.03 44.386 1165.93 44.632C1165.82 44.872 1165.77 45.133 1165.77 45.415C1165.77 45.775 1165.86 46.075 1166.03 46.315C1166.21 46.549 1166.45 46.75 1166.74 46.918C1167.03 47.086 1167.36 47.233 1167.73 47.359C1168.1 47.479 1168.48 47.605 1168.86 47.737C1169.25 47.869 1169.63 48.019 1169.99 48.187C1170.37 48.349 1170.7 48.556 1170.98 48.808C1171.28 49.06 1171.51 49.369 1171.69 49.735C1171.87 50.101 1171.96 50.551 1171.96 51.085C1171.96 51.649 1171.86 52.18 1171.67 52.678C1171.48 53.17 1171.19 53.599 1170.82 53.965C1170.46 54.331 1170 54.619 1169.46 54.829C1168.93 55.039 1168.32 55.144 1167.64 55.144C1166.8 55.144 1166.03 54.994 1165.35 54.694C1164.67 54.388 1164.08 53.977 1163.59 53.461L1164.1 52.633C1164.15 52.567 1164.2 52.513 1164.27 52.471C1164.34 52.423 1164.42 52.399 1164.5 52.399C1164.58 52.399 1164.67 52.432 1164.76 52.498C1164.87 52.558 1164.98 52.636 1165.11 52.732C1165.23 52.828 1165.38 52.933 1165.54 53.047C1165.7 53.161 1165.88 53.266 1166.09 53.362C1166.3 53.458 1166.53 53.539 1166.8 53.605C1167.06 53.665 1167.36 53.695 1167.69 53.695C1168.1 53.695 1168.47 53.638 1168.8 53.524C1169.12 53.41 1169.39 53.251 1169.62 53.047C1169.84 52.837 1170.02 52.588 1170.14 52.3C1170.26 52.012 1170.32 51.691 1170.32 51.337C1170.32 50.947 1170.23 50.629 1170.05 50.383C1169.87 50.131 1169.64 49.921 1169.35 49.753C1169.07 49.585 1168.74 49.444 1168.36 49.33C1167.99 49.21 1167.61 49.09 1167.23 48.97C1166.85 48.844 1166.47 48.7 1166.1 48.538C1165.72 48.376 1165.39 48.166 1165.11 47.908C1164.82 47.65 1164.58 47.329 1164.4 46.945C1164.23 46.555 1164.14 46.075 1164.14 45.505C1164.14 45.049 1164.23 44.608 1164.4 44.182C1164.58 43.756 1164.84 43.378 1165.18 43.048C1165.52 42.718 1165.94 42.454 1166.43 42.256C1166.93 42.058 1167.5 41.959 1168.14 41.959C1168.86 41.959 1169.51 42.073 1170.1 42.301C1170.7 42.529 1171.22 42.859 1171.67 43.291L1171.24 44.119ZM1175.65 45.883V55H1174.04V45.883H1175.65ZM1175.99 43.021C1175.99 43.177 1175.96 43.324 1175.89 43.462C1175.83 43.594 1175.75 43.714 1175.64 43.822C1175.54 43.924 1175.41 44.005 1175.27 44.065C1175.13 44.125 1174.98 44.155 1174.83 44.155C1174.67 44.155 1174.52 44.125 1174.39 44.065C1174.25 44.005 1174.14 43.924 1174.04 43.822C1173.93 43.714 1173.85 43.594 1173.79 43.462C1173.73 43.324 1173.7 43.177 1173.7 43.021C1173.7 42.865 1173.73 42.718 1173.79 42.58C1173.85 42.436 1173.93 42.313 1174.04 42.211C1174.14 42.103 1174.25 42.019 1174.39 41.959C1174.52 41.899 1174.67 41.869 1174.83 41.869C1174.98 41.869 1175.13 41.899 1175.27 41.959C1175.41 42.019 1175.54 42.103 1175.64 42.211C1175.75 42.313 1175.83 42.436 1175.89 42.58C1175.96 42.718 1175.99 42.865 1175.99 43.021ZM1181.46 50.545C1181.78 50.545 1182.06 50.5 1182.31 50.41C1182.56 50.32 1182.76 50.194 1182.93 50.032C1183.1 49.87 1183.23 49.678 1183.31 49.456C1183.39 49.228 1183.44 48.979 1183.44 48.709C1183.44 48.151 1183.26 47.707 1182.92 47.377C1182.59 47.047 1182.1 46.882 1181.46 46.882C1180.81 46.882 1180.31 47.047 1179.97 47.377C1179.63 47.707 1179.47 48.151 1179.47 48.709C1179.47 48.979 1179.51 49.228 1179.59 49.456C1179.68 49.678 1179.81 49.87 1179.98 50.032C1180.15 50.194 1180.35 50.32 1180.6 50.41C1180.85 50.5 1181.13 50.545 1181.46 50.545ZM1184.34 55.495C1184.34 55.273 1184.28 55.093 1184.16 54.955C1184.03 54.817 1183.86 54.709 1183.64 54.631C1183.43 54.553 1183.19 54.499 1182.9 54.469C1182.62 54.433 1182.32 54.406 1182 54.388C1181.69 54.37 1181.37 54.352 1181.05 54.334C1180.73 54.316 1180.41 54.286 1180.11 54.244C1179.78 54.4 1179.5 54.598 1179.29 54.838C1179.08 55.072 1178.97 55.348 1178.97 55.666C1178.97 55.87 1179.02 56.059 1179.12 56.233C1179.23 56.413 1179.39 56.566 1179.61 56.692C1179.83 56.824 1180.1 56.926 1180.42 56.998C1180.75 57.076 1181.14 57.115 1181.58 57.115C1182.01 57.115 1182.4 57.076 1182.74 56.998C1183.08 56.92 1183.37 56.809 1183.61 56.665C1183.85 56.521 1184.03 56.35 1184.16 56.152C1184.28 55.954 1184.34 55.735 1184.34 55.495ZM1185.97 46.243V46.837C1185.97 47.035 1185.85 47.161 1185.6 47.215L1184.56 47.35C1184.76 47.746 1184.87 48.184 1184.87 48.664C1184.87 49.108 1184.78 49.513 1184.61 49.879C1184.44 50.239 1184.2 50.548 1183.9 50.806C1183.6 51.064 1183.24 51.262 1182.82 51.4C1182.4 51.538 1181.95 51.607 1181.46 51.607C1181.03 51.607 1180.63 51.556 1180.25 51.454C1180.06 51.574 1179.91 51.703 1179.81 51.841C1179.71 51.973 1179.66 52.108 1179.66 52.246C1179.66 52.462 1179.74 52.627 1179.92 52.741C1180.1 52.849 1180.33 52.927 1180.62 52.975C1180.91 53.023 1181.23 53.053 1181.6 53.065C1181.97 53.077 1182.35 53.098 1182.73 53.128C1183.12 53.152 1183.5 53.197 1183.87 53.263C1184.24 53.329 1184.57 53.437 1184.86 53.587C1185.15 53.737 1185.38 53.944 1185.55 54.208C1185.73 54.472 1185.82 54.814 1185.82 55.234C1185.82 55.624 1185.72 56.002 1185.52 56.368C1185.33 56.734 1185.05 57.058 1184.69 57.34C1184.32 57.628 1183.87 57.856 1183.34 58.024C1182.81 58.198 1182.21 58.285 1181.55 58.285C1180.88 58.285 1180.3 58.219 1179.8 58.087C1179.3 57.955 1178.89 57.778 1178.56 57.556C1178.23 57.334 1177.98 57.076 1177.81 56.782C1177.65 56.494 1177.57 56.191 1177.57 55.873C1177.57 55.423 1177.71 55.042 1177.99 54.73C1178.27 54.418 1178.66 54.169 1179.15 53.983C1178.88 53.863 1178.67 53.704 1178.5 53.506C1178.35 53.302 1178.27 53.029 1178.27 52.687C1178.27 52.555 1178.29 52.42 1178.34 52.282C1178.39 52.138 1178.46 51.997 1178.56 51.859C1178.66 51.715 1178.78 51.58 1178.93 51.454C1179.07 51.328 1179.24 51.217 1179.43 51.121C1178.98 50.869 1178.63 50.536 1178.38 50.122C1178.13 49.702 1178 49.216 1178 48.664C1178 48.22 1178.08 47.818 1178.25 47.458C1178.43 47.092 1178.67 46.783 1178.97 46.531C1179.28 46.273 1179.64 46.075 1180.06 45.937C1180.49 45.799 1180.95 45.73 1181.46 45.73C1181.85 45.73 1182.22 45.775 1182.56 45.865C1182.9 45.949 1183.22 46.075 1183.5 46.243H1185.97ZM1189.14 47.206C1189.34 46.984 1189.55 46.783 1189.77 46.603C1189.99 46.423 1190.23 46.27 1190.47 46.144C1190.73 46.012 1190.99 45.913 1191.27 45.847C1191.55 45.775 1191.85 45.739 1192.18 45.739C1192.67 45.739 1193.11 45.823 1193.49 45.991C1193.87 46.153 1194.19 46.387 1194.44 46.693C1194.7 46.993 1194.9 47.356 1195.03 47.782C1195.16 48.208 1195.23 48.679 1195.23 49.195V55H1193.62V49.195C1193.62 48.505 1193.46 47.971 1193.14 47.593C1192.83 47.209 1192.35 47.017 1191.71 47.017C1191.23 47.017 1190.79 47.131 1190.38 47.359C1189.97 47.587 1189.59 47.896 1189.24 48.286V55H1187.63V45.883H1188.59C1188.82 45.883 1188.96 45.994 1189.02 46.216L1189.14 47.206ZM1207.63 53.614C1208.16 53.614 1208.64 53.524 1209.06 53.344C1209.48 53.164 1209.83 52.912 1210.12 52.588C1210.41 52.264 1210.64 51.877 1210.79 51.427C1210.94 50.977 1211.02 50.482 1211.02 49.942V42.103H1212.76V49.942C1212.76 50.686 1212.64 51.376 1212.4 52.012C1212.16 52.648 1211.82 53.2 1211.38 53.668C1210.94 54.13 1210.41 54.493 1209.77 54.757C1209.13 55.021 1208.42 55.153 1207.63 55.153C1206.84 55.153 1206.12 55.021 1205.49 54.757C1204.85 54.493 1204.31 54.13 1203.87 53.668C1203.42 53.2 1203.08 52.648 1202.84 52.012C1202.61 51.376 1202.49 50.686 1202.49 49.942V42.103H1204.23V49.933C1204.23 50.473 1204.3 50.968 1204.45 51.418C1204.61 51.868 1204.83 52.255 1205.12 52.579C1205.41 52.903 1205.77 53.158 1206.19 53.344C1206.61 53.524 1207.09 53.614 1207.63 53.614ZM1216.86 52.804C1217.15 53.2 1217.47 53.479 1217.82 53.641C1218.17 53.803 1218.56 53.884 1218.99 53.884C1219.84 53.884 1220.5 53.581 1220.95 52.975C1221.41 52.369 1221.64 51.505 1221.64 50.383C1221.64 49.789 1221.58 49.279 1221.47 48.853C1221.37 48.427 1221.22 48.079 1221.02 47.809C1220.83 47.533 1220.58 47.332 1220.29 47.206C1220.01 47.08 1219.68 47.017 1219.31 47.017C1218.79 47.017 1218.33 47.137 1217.94 47.377C1217.55 47.617 1217.19 47.956 1216.86 48.394V52.804ZM1216.78 47.296C1217.16 46.822 1217.6 46.441 1218.11 46.153C1218.61 45.865 1219.19 45.721 1219.84 45.721C1220.36 45.721 1220.84 45.823 1221.27 46.027C1221.69 46.225 1222.06 46.522 1222.36 46.918C1222.66 47.308 1222.89 47.794 1223.05 48.376C1223.21 48.958 1223.29 49.627 1223.29 50.383C1223.29 51.055 1223.2 51.682 1223.02 52.264C1222.84 52.84 1222.58 53.341 1222.24 53.767C1221.9 54.187 1221.49 54.52 1221 54.766C1220.51 55.006 1219.96 55.126 1219.35 55.126C1218.79 55.126 1218.31 55.033 1217.91 54.847C1217.51 54.655 1217.16 54.391 1216.86 54.055V58.087H1215.25V45.883H1216.21C1216.44 45.883 1216.58 45.994 1216.63 46.216L1216.78 47.296Z" fill="#111111"/>
<path d="M1171.24 44.119C1171.19 44.209 1171.13 44.278 1171.06 44.326C1171 44.368 1170.93 44.389 1170.84 44.389C1170.74 44.389 1170.62 44.338 1170.48 44.236C1170.34 44.134 1170.17 44.023 1169.96 43.903C1169.75 43.777 1169.5 43.663 1169.21 43.561C1168.92 43.459 1168.57 43.408 1168.16 43.408C1167.77 43.408 1167.42 43.462 1167.12 43.57C1166.83 43.672 1166.58 43.813 1166.38 43.993C1166.18 44.173 1166.03 44.386 1165.93 44.632C1165.82 44.872 1165.77 45.133 1165.77 45.415C1165.77 45.775 1165.86 46.075 1166.03 46.315C1166.21 46.549 1166.45 46.75 1166.74 46.918C1167.03 47.086 1167.36 47.233 1167.73 47.359C1168.1 47.479 1168.48 47.605 1168.86 47.737C1169.25 47.869 1169.63 48.019 1169.99 48.187C1170.37 48.349 1170.7 48.556 1170.98 48.808C1171.28 49.06 1171.51 49.369 1171.69 49.735C1171.87 50.101 1171.96 50.551 1171.96 51.085C1171.96 51.649 1171.86 52.18 1171.67 52.678C1171.48 53.17 1171.19 53.599 1170.82 53.965C1170.46 54.331 1170 54.619 1169.46 54.829C1168.93 55.039 1168.32 55.144 1167.64 55.144C1166.8 55.144 1166.03 54.994 1165.35 54.694C1164.67 54.388 1164.08 53.977 1163.59 53.461L1164.1 52.633C1164.15 52.567 1164.2 52.513 1164.27 52.471C1164.34 52.423 1164.42 52.399 1164.5 52.399C1164.58 52.399 1164.67 52.432 1164.76 52.498C1164.87 52.558 1164.98 52.636 1165.11 52.732C1165.23 52.828 1165.38 52.933 1165.54 53.047C1165.7 53.161 1165.88 53.266 1166.09 53.362C1166.3 53.458 1166.53 53.539 1166.8 53.605C1167.06 53.665 1167.36 53.695 1167.69 53.695C1168.1 53.695 1168.47 53.638 1168.8 53.524C1169.12 53.41 1169.39 53.251 1169.62 53.047C1169.84 52.837 1170.02 52.588 1170.14 52.3C1170.26 52.012 1170.32 51.691 1170.32 51.337C1170.32 50.947 1170.23 50.629 1170.05 50.383C1169.87 50.131 1169.64 49.921 1169.35 49.753C1169.07 49.585 1168.74 49.444 1168.36 49.33C1167.99 49.21 1167.61 49.09 1167.23 48.97C1166.85 48.844 1166.47 48.7 1166.1 48.538C1165.72 48.376 1165.39 48.166 1165.11 47.908C1164.82 47.65 1164.58 47.329 1164.4 46.945C1164.23 46.555 1164.14 46.075 1164.14 45.505C1164.14 45.049 1164.23 44.608 1164.4 44.182C1164.58 43.756 1164.84 43.378 1165.18 43.048C1165.52 42.718 1165.94 42.454 1166.43 42.256C1166.93 42.058 1167.5 41.959 1168.14 41.959C1168.86 41.959 1169.51 42.073 1170.1 42.301C1170.7 42.529 1171.22 42.859 1171.67 43.291L1171.24 44.119ZM1175.65 45.883V55H1174.04V45.883H1175.65ZM1175.99 43.021C1175.99 43.177 1175.96 43.324 1175.89 43.462C1175.83 43.594 1175.75 43.714 1175.64 43.822C1175.54 43.924 1175.41 44.005 1175.27 44.065C1175.13 44.125 1174.98 44.155 1174.83 44.155C1174.67 44.155 1174.52 44.125 1174.39 44.065C1174.25 44.005 1174.14 43.924 1174.04 43.822C1173.93 43.714 1173.85 43.594 1173.79 43.462C1173.73 43.324 1173.7 43.177 1173.7 43.021C1173.7 42.865 1173.73 42.718 1173.79 42.58C1173.85 42.436 1173.93 42.313 1174.04 42.211C1174.14 42.103 1174.25 42.019 1174.39 41.959C1174.52 41.899 1174.67 41.869 1174.83 41.869C1174.98 41.869 1175.13 41.899 1175.27 41.959C1175.41 42.019 1175.54 42.103 1175.64 42.211C1175.75 42.313 1175.83 42.436 1175.89 42.58C1175.96 42.718 1175.99 42.865 1175.99 43.021ZM1181.46 50.545C1181.78 50.545 1182.06 50.5 1182.31 50.41C1182.56 50.32 1182.76 50.194 1182.93 50.032C1183.1 49.87 1183.23 49.678 1183.31 49.456C1183.39 49.228 1183.44 48.979 1183.44 48.709C1183.44 48.151 1183.26 47.707 1182.92 47.377C1182.59 47.047 1182.1 46.882 1181.46 46.882C1180.81 46.882 1180.31 47.047 1179.97 47.377C1179.63 47.707 1179.47 48.151 1179.47 48.709C1179.47 48.979 1179.51 49.228 1179.59 49.456C1179.68 49.678 1179.81 49.87 1179.98 50.032C1180.15 50.194 1180.35 50.32 1180.6 50.41C1180.85 50.5 1181.13 50.545 1181.46 50.545ZM1184.34 55.495C1184.34 55.273 1184.28 55.093 1184.16 54.955C1184.03 54.817 1183.86 54.709 1183.64 54.631C1183.43 54.553 1183.19 54.499 1182.9 54.469C1182.62 54.433 1182.32 54.406 1182 54.388C1181.69 54.37 1181.37 54.352 1181.05 54.334C1180.73 54.316 1180.41 54.286 1180.11 54.244C1179.78 54.4 1179.5 54.598 1179.29 54.838C1179.08 55.072 1178.97 55.348 1178.97 55.666C1178.97 55.87 1179.02 56.059 1179.12 56.233C1179.23 56.413 1179.39 56.566 1179.61 56.692C1179.83 56.824 1180.1 56.926 1180.42 56.998C1180.75 57.076 1181.14 57.115 1181.58 57.115C1182.01 57.115 1182.4 57.076 1182.74 56.998C1183.08 56.92 1183.37 56.809 1183.61 56.665C1183.85 56.521 1184.03 56.35 1184.16 56.152C1184.28 55.954 1184.34 55.735 1184.34 55.495ZM1185.97 46.243V46.837C1185.97 47.035 1185.85 47.161 1185.6 47.215L1184.56 47.35C1184.76 47.746 1184.87 48.184 1184.87 48.664C1184.87 49.108 1184.78 49.513 1184.61 49.879C1184.44 50.239 1184.2 50.548 1183.9 50.806C1183.6 51.064 1183.24 51.262 1182.82 51.4C1182.4 51.538 1181.95 51.607 1181.46 51.607C1181.03 51.607 1180.63 51.556 1180.25 51.454C1180.06 51.574 1179.91 51.703 1179.81 51.841C1179.71 51.973 1179.66 52.108 1179.66 52.246C1179.66 52.462 1179.74 52.627 1179.92 52.741C1180.1 52.849 1180.33 52.927 1180.62 52.975C1180.91 53.023 1181.23 53.053 1181.6 53.065C1181.97 53.077 1182.35 53.098 1182.73 53.128C1183.12 53.152 1183.5 53.197 1183.87 53.263C1184.24 53.329 1184.57 53.437 1184.86 53.587C1185.15 53.737 1185.38 53.944 1185.55 54.208C1185.73 54.472 1185.82 54.814 1185.82 55.234C1185.82 55.624 1185.72 56.002 1185.52 56.368C1185.33 56.734 1185.05 57.058 1184.69 57.34C1184.32 57.628 1183.87 57.856 1183.34 58.024C1182.81 58.198 1182.21 58.285 1181.55 58.285C1180.88 58.285 1180.3 58.219 1179.8 58.087C1179.3 57.955 1178.89 57.778 1178.56 57.556C1178.23 57.334 1177.98 57.076 1177.81 56.782C1177.65 56.494 1177.57 56.191 1177.57 55.873C1177.57 55.423 1177.71 55.042 1177.99 54.73C1178.27 54.418 1178.66 54.169 1179.15 53.983C1178.88 53.863 1178.67 53.704 1178.5 53.506C1178.35 53.302 1178.27 53.029 1178.27 52.687C1178.27 52.555 1178.29 52.42 1178.34 52.282C1178.39 52.138 1178.46 51.997 1178.56 51.859C1178.66 51.715 1178.78 51.58 1178.93 51.454C1179.07 51.328 1179.24 51.217 1179.43 51.121C1178.98 50.869 1178.63 50.536 1178.38 50.122C1178.13 49.702 1178 49.216 1178 48.664C1178 48.22 1178.08 47.818 1178.25 47.458C1178.43 47.092 1178.67 46.783 1178.97 46.531C1179.28 46.273 1179.64 46.075 1180.06 45.937C1180.49 45.799 1180.95 45.73 1181.46 45.73C1181.85 45.73 1182.22 45.775 1182.56 45.865C1182.9 45.949 1183.22 46.075 1183.5 46.243H1185.97ZM1189.14 47.206C1189.34 46.984 1189.55 46.783 1189.77 46.603C1189.99 46.423 1190.23 46.27 1190.47 46.144C1190.73 46.012 1190.99 45.913 1191.27 45.847C1191.55 45.775 1191.85 45.739 1192.18 45.739C1192.67 45.739 1193.11 45.823 1193.49 45.991C1193.87 46.153 1194.19 46.387 1194.44 46.693C1194.7 46.993 1194.9 47.356 1195.03 47.782C1195.16 48.208 1195.23 48.679 1195.23 49.195V55H1193.62V49.195C1193.62 48.505 1193.46 47.971 1193.14 47.593C1192.83 47.209 1192.35 47.017 1191.71 47.017C1191.23 47.017 1190.79 47.131 1190.38 47.359C1189.97 47.587 1189.59 47.896 1189.24 48.286V55H1187.63V45.883H1188.59C1188.82 45.883 1188.96 45.994 1189.02 46.216L1189.14 47.206ZM1207.63 53.614C1208.16 53.614 1208.64 53.524 1209.06 53.344C1209.48 53.164 1209.83 52.912 1210.12 52.588C1210.41 52.264 1210.64 51.877 1210.79 51.427C1210.94 50.977 1211.02 50.482 1211.02 49.942V42.103H1212.76V49.942C1212.76 50.686 1212.64 51.376 1212.4 52.012C1212.16 52.648 1211.82 53.2 1211.38 53.668C1210.94 54.13 1210.41 54.493 1209.77 54.757C1209.13 55.021 1208.42 55.153 1207.63 55.153C1206.84 55.153 1206.12 55.021 1205.49 54.757C1204.85 54.493 1204.31 54.13 1203.87 53.668C1203.42 53.2 1203.08 52.648 1202.84 52.012C1202.61 51.376 1202.49 50.686 1202.49 49.942V42.103H1204.23V49.933C1204.23 50.473 1204.3 50.968 1204.45 51.418C1204.61 51.868 1204.83 52.255 1205.12 52.579C1205.41 52.903 1205.77 53.158 1206.19 53.344C1206.61 53.524 1207.09 53.614 1207.63 53.614ZM1216.86 52.804C1217.15 53.2 1217.47 53.479 1217.82 53.641C1218.17 53.803 1218.56 53.884 1218.99 53.884C1219.84 53.884 1220.5 53.581 1220.95 52.975C1221.41 52.369 1221.64 51.505 1221.64 50.383C1221.64 49.789 1221.58 49.279 1221.47 48.853C1221.37 48.427 1221.22 48.079 1221.02 47.809C1220.83 47.533 1220.58 47.332 1220.29 47.206C1220.01 47.08 1219.68 47.017 1219.31 47.017C1218.79 47.017 1218.33 47.137 1217.94 47.377C1217.55 47.617 1217.19 47.956 1216.86 48.394V52.804ZM1216.78 47.296C1217.16 46.822 1217.6 46.441 1218.11 46.153C1218.61 45.865 1219.19 45.721 1219.84 45.721C1220.36 45.721 1220.84 45.823 1221.27 46.027C1221.69 46.225 1222.06 46.522 1222.36 46.918C1222.66 47.308 1222.89 47.794 1223.05 48.376C1223.21 48.958 1223.29 49.627 1223.29 50.383C1223.29 51.055 1223.2 51.682 1223.02 52.264C1222.84 52.84 1222.58 53.341 1222.24 53.767C1221.9 54.187 1221.49 54.52 1221 54.766C1220.51 55.006 1219.96 55.126 1219.35 55.126C1218.79 55.126 1218.31 55.033 1217.91 54.847C1217.51 54.655 1217.16 54.391 1216.86 54.055V58.087H1215.25V45.883H1216.21C1216.44 45.883 1216.58 45.994 1216.63 46.216L1216.78 47.296Z" fill="url(#paint0_linear_1_710)"/>
<path d="M1062.96 53.533V55H1055.65V42.103H1057.38V53.533H1062.96ZM1067.71 45.739C1068.37 45.739 1068.97 45.85 1069.51 46.072C1070.04 46.294 1070.5 46.609 1070.88 47.017C1071.25 47.425 1071.54 47.92 1071.74 48.502C1071.94 49.078 1072.05 49.723 1072.05 50.437C1072.05 51.157 1071.94 51.805 1071.74 52.381C1071.54 52.957 1071.25 53.449 1070.88 53.857C1070.5 54.265 1070.04 54.58 1069.51 54.802C1068.97 55.018 1068.37 55.126 1067.71 55.126C1067.04 55.126 1066.43 55.018 1065.89 54.802C1065.36 54.58 1064.9 54.265 1064.52 53.857C1064.14 53.449 1063.85 52.957 1063.65 52.381C1063.45 51.805 1063.35 51.157 1063.35 50.437C1063.35 49.723 1063.45 49.078 1063.65 48.502C1063.85 47.92 1064.14 47.425 1064.52 47.017C1064.9 46.609 1065.36 46.294 1065.89 46.072C1066.43 45.85 1067.04 45.739 1067.71 45.739ZM1067.71 53.875C1068.61 53.875 1069.28 53.575 1069.72 52.975C1070.17 52.369 1070.39 51.526 1070.39 50.446C1070.39 49.36 1070.17 48.514 1069.72 47.908C1069.28 47.302 1068.61 46.999 1067.71 46.999C1067.25 46.999 1066.85 47.077 1066.51 47.233C1066.17 47.389 1065.89 47.614 1065.66 47.908C1065.44 48.202 1065.27 48.565 1065.16 48.997C1065.05 49.423 1065 49.906 1065 50.446C1065 51.526 1065.22 52.369 1065.66 52.975C1066.11 53.575 1066.8 53.875 1067.71 53.875ZM1077.2 50.545C1077.53 50.545 1077.81 50.5 1078.06 50.41C1078.3 50.32 1078.51 50.194 1078.68 50.032C1078.85 49.87 1078.97 49.678 1079.06 49.456C1079.14 49.228 1079.18 48.979 1079.18 48.709C1079.18 48.151 1079.01 47.707 1078.67 47.377C1078.33 47.047 1077.84 46.882 1077.2 46.882C1076.55 46.882 1076.06 47.047 1075.72 47.377C1075.38 47.707 1075.21 48.151 1075.21 48.709C1075.21 48.979 1075.25 49.228 1075.34 49.456C1075.43 49.678 1075.56 49.87 1075.73 50.032C1075.89 50.194 1076.1 50.32 1076.35 50.41C1076.59 50.5 1076.88 50.545 1077.2 50.545ZM1080.09 55.495C1080.09 55.273 1080.03 55.093 1079.9 54.955C1079.78 54.817 1079.6 54.709 1079.39 54.631C1079.18 54.553 1078.93 54.499 1078.65 54.469C1078.37 54.433 1078.07 54.406 1077.75 54.388C1077.44 54.37 1077.12 54.352 1076.8 54.334C1076.47 54.316 1076.16 54.286 1075.86 54.244C1075.52 54.4 1075.25 54.598 1075.03 54.838C1074.82 55.072 1074.72 55.348 1074.72 55.666C1074.72 55.87 1074.77 56.059 1074.87 56.233C1074.98 56.413 1075.14 56.566 1075.36 56.692C1075.57 56.824 1075.84 56.926 1076.17 56.998C1076.5 57.076 1076.88 57.115 1077.33 57.115C1077.76 57.115 1078.15 57.076 1078.49 56.998C1078.83 56.92 1079.12 56.809 1079.35 56.665C1079.59 56.521 1079.78 56.35 1079.9 56.152C1080.03 55.954 1080.09 55.735 1080.09 55.495ZM1081.72 46.243V46.837C1081.72 47.035 1081.59 47.161 1081.34 47.215L1080.31 47.35C1080.51 47.746 1080.61 48.184 1080.61 48.664C1080.61 49.108 1080.53 49.513 1080.35 49.879C1080.18 50.239 1079.95 50.548 1079.65 50.806C1079.35 51.064 1078.99 51.262 1078.57 51.4C1078.15 51.538 1077.69 51.607 1077.2 51.607C1076.78 51.607 1076.37 51.556 1076 51.454C1075.8 51.574 1075.66 51.703 1075.55 51.841C1075.45 51.973 1075.4 52.108 1075.4 52.246C1075.4 52.462 1075.49 52.627 1075.66 52.741C1075.84 52.849 1076.08 52.927 1076.36 52.975C1076.65 53.023 1076.98 53.053 1077.35 53.065C1077.72 53.077 1078.1 53.098 1078.48 53.128C1078.87 53.152 1079.25 53.197 1079.61 53.263C1079.99 53.329 1080.32 53.437 1080.6 53.587C1080.89 53.737 1081.12 53.944 1081.3 54.208C1081.48 54.472 1081.57 54.814 1081.57 55.234C1081.57 55.624 1081.47 56.002 1081.27 56.368C1081.08 56.734 1080.8 57.058 1080.43 57.34C1080.07 57.628 1079.62 57.856 1079.08 58.024C1078.55 58.198 1077.96 58.285 1077.29 58.285C1076.63 58.285 1076.04 58.219 1075.55 58.087C1075.05 57.955 1074.63 57.778 1074.3 57.556C1073.97 57.334 1073.72 57.076 1073.56 56.782C1073.39 56.494 1073.31 56.191 1073.31 55.873C1073.31 55.423 1073.45 55.042 1073.74 54.73C1074.02 54.418 1074.41 54.169 1074.9 53.983C1074.63 53.863 1074.41 53.704 1074.25 53.506C1074.09 53.302 1074.02 53.029 1074.02 52.687C1074.02 52.555 1074.04 52.42 1074.09 52.282C1074.14 52.138 1074.21 51.997 1074.3 51.859C1074.41 51.715 1074.53 51.58 1074.67 51.454C1074.82 51.328 1074.98 51.217 1075.18 51.121C1074.73 50.869 1074.38 50.536 1074.12 50.122C1073.87 49.702 1073.75 49.216 1073.75 48.664C1073.75 48.22 1073.83 47.818 1074 47.458C1074.17 47.092 1074.41 46.783 1074.72 46.531C1075.02 46.273 1075.39 46.075 1075.81 45.937C1076.23 45.799 1076.7 45.73 1077.2 45.73C1077.6 45.73 1077.97 45.775 1078.31 45.865C1078.65 45.949 1078.96 46.075 1079.24 46.243H1081.72ZM1085.07 45.883V55H1083.47V45.883H1085.07ZM1085.41 43.021C1085.41 43.177 1085.38 43.324 1085.31 43.462C1085.25 43.594 1085.17 43.714 1085.06 43.822C1084.96 43.924 1084.83 44.005 1084.69 44.065C1084.55 44.125 1084.41 44.155 1084.25 44.155C1084.09 44.155 1083.95 44.125 1083.81 44.065C1083.68 44.005 1083.56 43.924 1083.46 43.822C1083.36 43.714 1083.27 43.594 1083.21 43.462C1083.15 43.324 1083.12 43.177 1083.12 43.021C1083.12 42.865 1083.15 42.718 1083.21 42.58C1083.27 42.436 1083.36 42.313 1083.46 42.211C1083.56 42.103 1083.68 42.019 1083.81 41.959C1083.95 41.899 1084.09 41.869 1084.25 41.869C1084.41 41.869 1084.55 41.899 1084.69 41.959C1084.83 42.019 1084.96 42.103 1085.06 42.211C1085.17 42.313 1085.25 42.436 1085.31 42.58C1085.38 42.718 1085.41 42.865 1085.41 43.021ZM1089.21 47.206C1089.41 46.984 1089.62 46.783 1089.84 46.603C1090.06 46.423 1090.3 46.27 1090.54 46.144C1090.8 46.012 1091.06 45.913 1091.34 45.847C1091.62 45.775 1091.92 45.739 1092.25 45.739C1092.74 45.739 1093.18 45.823 1093.56 45.991C1093.94 46.153 1094.26 46.387 1094.51 46.693C1094.77 46.993 1094.97 47.356 1095.1 47.782C1095.23 48.208 1095.3 48.679 1095.3 49.195V55H1093.69V49.195C1093.69 48.505 1093.53 47.971 1093.21 47.593C1092.9 47.209 1092.42 47.017 1091.78 47.017C1091.3 47.017 1090.86 47.131 1090.45 47.359C1090.04 47.587 1089.66 47.896 1089.31 48.286V55H1087.7V45.883H1088.66C1088.89 45.883 1089.03 45.994 1089.09 46.216L1089.21 47.206Z" fill="white"/>
<rect x="1029.5" y="24.5" width="92" height="47" rx="7.5" stroke="white" stroke-opacity="0.6"/>
<path d="M606.52 58.28C607.533 58.12 608.227 57.8 608.6 57.32C608.973 56.8133 609.16 55.9733 609.16 54.8V40.28C609.16 39.4533 609.067 38.9067 608.88 38.64C608.693 38.3467 608.307 38.2 607.72 38.2C607.48 38.2 607.253 38.2133 607.04 38.24C606.827 38.2667 606.68 38.28 606.6 38.28L606.32 37.84L606.64 35.2L612.48 35.24C613.253 35.24 614.48 35.2133 616.16 35.16C617.867 35.08 619 35.0267 619.56 35L619.2 38.28C618.267 38.3867 617.573 38.52 617.12 38.68C616.693 38.84 616.4 39.08 616.24 39.4C616.08 39.72 615.973 40.2 615.92 40.84C615.653 44.68 615.52 49.44 615.52 55.12C615.52 55.9733 615.653 56.5467 615.92 56.84C616.187 57.1067 616.733 57.24 617.56 57.24C618.733 57.24 619.613 57.08 620.2 56.76C620.787 56.44 621.213 55.8533 621.48 55C621.773 54.12 622 52.7867 622.16 51L626.28 50.56L626.64 51.04C626.56 51.5733 626.413 52.8133 626.2 54.76C625.987 56.68 625.8 58.6933 625.64 60.8L625.16 61.32C624.44 61.2933 622.88 61.2267 620.48 61.12C618.107 61.04 615.84 61 613.68 61C612.107 61 610.573 61.0533 609.08 61.16C607.587 61.2667 606.627 61.3467 606.2 61.4L606.52 58.28ZM637.4 61.36C634.28 61.36 631.866 60.4933 630.16 58.76C628.48 57.0267 627.64 54.56 627.64 51.36C627.64 47.92 628.586 45.2667 630.48 43.4C632.373 41.5067 635.04 40.56 638.48 40.56C641.653 40.56 644.066 41.4 645.72 43.08C647.4 44.7333 648.24 47.1733 648.24 50.4C648.24 53.84 647.28 56.5333 645.36 58.48C643.44 60.4 640.786 61.36 637.4 61.36ZM638.08 57.76C639.226 57.76 640.08 57.32 640.64 56.44C641.2 55.56 641.48 54.1733 641.48 52.28C641.48 49.5067 641.173 47.52 640.56 46.32C639.973 45.0933 639.026 44.48 637.72 44.48C636.6 44.48 635.773 44.92 635.24 45.8C634.706 46.6533 634.44 48.0267 634.44 49.92C634.44 52.6933 634.72 54.6933 635.28 55.92C635.866 57.1467 636.8 57.76 638.08 57.76ZM660.179 61.32C657.059 61.32 654.605 60.44 652.819 58.68C651.059 56.92 650.179 54.48 650.179 51.36C650.179 47.8933 651.205 45.2267 653.259 43.36C655.339 41.4933 658.285 40.56 662.099 40.56C663.005 40.56 663.952 40.6267 664.939 40.76C665.925 40.8667 666.752 40.9867 667.419 41.12C668.112 41.2267 668.552 41.3067 668.739 41.36L669.059 41.92C669.032 42.0533 668.952 42.4 668.819 42.96C668.685 43.4933 668.552 44.2133 668.419 45.12C668.285 46.0267 668.192 47 668.139 48.04L663.659 48.28C663.659 48.2 663.672 48.0133 663.699 47.72C663.725 47.4267 663.739 47.0533 663.739 46.6C663.739 45.8 663.552 45.2533 663.179 44.96C662.832 44.64 662.192 44.48 661.259 44.48C659.685 44.48 658.565 44.92 657.899 45.8C657.232 46.68 656.899 48.1733 656.899 50.28C656.899 52.68 657.232 54.4667 657.899 55.64C658.592 56.7867 659.645 57.36 661.059 57.36C661.485 57.36 661.859 57.3333 662.179 57.28C662.499 57.2 662.739 57.12 662.899 57.04C663.085 56.96 663.205 56.9067 663.259 56.88V54.68C663.259 54.1467 663.179 53.7867 663.019 53.6C662.859 53.4133 662.552 53.32 662.099 53.32L660.819 53.36L660.539 52.96L660.939 50.2H665.819C666.725 50.2 667.525 50.1867 668.219 50.16C668.912 50.1067 669.365 50.0667 669.579 50.04L669.859 51.72C669.379 51.9867 669.032 52.2933 668.819 52.64C668.605 52.96 668.459 53.44 668.379 54.08C668.299 54.72 668.259 55.7333 668.259 57.12C668.259 58.2667 668.339 59.16 668.499 59.8L668.139 60.28C667.979 60.3333 667.579 60.44 666.939 60.6C666.325 60.76 665.419 60.92 664.219 61.08C663.045 61.24 661.699 61.32 660.179 61.32ZM681.892 61.36C678.772 61.36 676.359 60.4933 674.652 58.76C672.972 57.0267 672.132 54.56 672.132 51.36C672.132 47.92 673.079 45.2667 674.972 43.4C676.865 41.5067 679.532 40.56 682.972 40.56C686.145 40.56 688.559 41.4 690.212 43.08C691.892 44.7333 692.732 47.1733 692.732 50.4C692.732 53.84 691.772 56.5333 689.852 58.48C687.932 60.4 685.279 61.36 681.892 61.36ZM682.572 57.76C683.719 57.76 684.572 57.32 685.132 56.44C685.692 55.56 685.972 54.1733 685.972 52.28C685.972 49.5067 685.665 47.52 685.052 46.32C684.465 45.0933 683.519 44.48 682.212 44.48C681.092 44.48 680.265 44.92 679.732 45.8C679.199 46.6533 678.932 48.0267 678.932 49.92C678.932 52.6933 679.212 54.6933 679.772 55.92C680.359 57.1467 681.292 57.76 682.572 57.76Z" fill="white"/>
<path d="M53 48H71" stroke="white" stroke-width="2" stroke-linecap="round" stroke-linejoin="round"/>
<path d="M53 42H71" stroke="white" stroke-width="2" stroke-linecap="round" stroke-linejoin="round"/>
<path d="M53 54H71" stroke="white" stroke-width="2" stroke-linecap="round" stroke-linejoin="round"/>
<defs>
<filter id="filter0_d_1_710" x="0" y="0" width="1300" height="97" filterUnits="userSpaceOnUse" color-interpolation-filters="sRGB">
<feFlood flood-opacity="0" result="BackgroundImageFix"/>
<feColorMatrix in="SourceAlpha" type="matrix" values="0 0 0 0 0 0 0 0 0 0 0 0 0 0 0 0 0 0 127 0" result="hardAlpha"/>
<feOffset/>
<feGaussianBlur stdDeviation="5"/>
<feComposite in2="hardAlpha" operator="out"/>
<feColorMatrix type="matrix" values="0 0 0 0 0 0 0 0 0 0 0 0 0 0 0 0 0 0 0.25 0"/>
<feBlend mode="normal" in2="BackgroundImageFix" result="effect1_dropShadow_1_710"/>
<feBlend mode="normal" in="SourceGraphic" in2="effect1_dropShadow_1_710" result="shape"/>
</filter>
<linearGradient id="paint0_linear_1_710" x1="1171.48" y1="37" x2="1192.72" y2="60.1739" gradientUnits="userSpaceOnUse">
<stop stop-color="#AD0B40" stop-opacity="0.878431"/>
<stop offset="1" stop-color="#FF1917"/>
</linearGradient>
</defs>
</svg>
