<svg width="142" height="148" viewBox="0 0 142 148" fill="none" xmlns="http://www.w3.org/2000/svg">
<path d="M2.88 126.944C2.88 131.528 13.104 129.224 13.104 135.344C13.104 138.416 10.512 140.24 6.456 140.24C3.552 140.24 1.992 139.304 1.536 139.304C1.416 139.304 1.368 139.376 1.392 139.544H1.224C1.032 138.728 1.104 138.32 0.912 137.384C0.768 136.616 0.528 135.944 0.36 135.056H0.552C1.008 136.976 3.912 139.64 6.696 139.64C8.28 139.64 10.464 138.776 10.464 136.448C10.464 131.48 0.432 133.64 0.432 127.736C0.432 124.808 2.904 122.96 6.984 122.96C9.888 122.96 11.16 123.896 11.496 123.896C11.592 123.896 11.616 123.824 11.592 123.656H11.76C11.952 124.472 11.88 124.88 12.048 125.768C12.216 126.584 12.48 127.256 12.624 128.144H12.456C12 126.272 9.6 123.56 6.888 123.56C4.992 123.56 2.88 124.856 2.88 126.944ZM21.3356 140.24V137.576C20.8556 139.232 19.6796 140.24 17.7116 140.24C16.2716 140.24 14.4956 139.688 14.4956 137.384C14.4956 134.72 16.8956 133.016 19.6556 133.016C20.1356 133.016 20.7836 133.064 21.3356 133.232V132.968C21.3356 130.544 20.3036 129.224 18.9356 129.224C17.9516 129.224 16.7516 129.968 15.6956 131.48H15.5756C16.4636 129.248 18.0716 127.76 20.1596 127.76C22.2476 127.76 23.4956 129.272 23.4956 131.864V135.752C23.4956 139.256 23.8796 139.856 25.1996 139.856V140C23.9276 140 22.7276 140 21.5756 140.24H21.3356ZM21.3356 136.88V134.48C21.3116 133.712 20.8316 133.256 19.9436 133.256C18.3836 133.256 16.7276 134.672 16.7036 136.856C16.6796 139.016 18.3116 139.472 19.0076 139.472C20.1356 139.472 21.0716 138.272 21.3356 136.88ZM27.4875 128.144V127.664H27.8715C27.9435 123.992 29.6715 122.96 31.3515 122.96C32.2395 122.96 32.8155 123.248 33.1275 123.56L32.5515 127.376H32.4555C32.1675 124.856 30.8235 123.896 29.8155 123.896C28.3755 123.896 28.8555 125.816 29.9835 127.664H32.2875V128.144H30.0315V135.752C30.0315 139.256 30.4155 139.856 31.7355 139.856V140C30.6555 140 30.0555 139.856 29.0235 139.856C28.0635 139.856 27.1275 140 26.1675 140V139.856C27.4875 139.856 27.8715 139.256 27.8715 135.752V128.144H27.4875ZM42.0169 132.632H34.8649C34.8649 135.272 35.7529 139.232 39.0649 139.232C40.0249 139.232 40.6489 138.8 41.2969 138.152L41.4169 138.248C40.4569 139.472 39.4969 140.24 37.8889 140.24C34.4329 140.24 32.7769 137.096 32.7769 134C32.7769 130.736 34.5289 127.76 38.1049 127.76C40.7689 127.76 42.0169 130.256 42.0169 132.632ZM34.8649 132.344L39.9049 132.008C39.9049 130.544 39.6169 128.144 37.6729 128.144C35.4889 128.144 34.9129 130.568 34.8649 132.344ZM55.7882 122.6C56.6522 122.6 57.3882 122.752 57.9962 123.056C58.6202 123.344 59.1002 123.76 59.4362 124.304C59.7722 124.848 59.9402 125.512 59.9402 126.296C59.9402 127.304 59.6122 128.16 58.9562 128.864C58.3162 129.568 57.5002 130.208 56.5082 130.784L61.1402 135.248C61.5562 134.752 61.8922 134.184 62.1482 133.544C62.4202 132.888 62.6442 132.184 62.8202 131.432H64.9562C64.7002 132.456 64.3802 133.408 63.9962 134.288C63.6122 135.168 63.1162 135.936 62.5082 136.592L66.0122 140H63.1562L61.0682 137.984C60.6842 138.32 60.2842 138.632 59.8682 138.92C59.4682 139.192 59.0282 139.424 58.5482 139.616C58.0682 139.808 57.5482 139.96 56.9882 140.072C56.4442 140.184 55.8362 140.24 55.1642 140.24C54.0602 140.24 53.1002 140.064 52.2842 139.712C51.4842 139.344 50.8602 138.808 50.4122 138.104C49.9802 137.4 49.7642 136.544 49.7642 135.536C49.7642 134.72 49.9082 134.016 50.1962 133.424C50.5002 132.832 50.9322 132.304 51.4922 131.84C52.0522 131.376 52.7082 130.928 53.4602 130.496C53.1242 130.112 52.7962 129.712 52.4762 129.296C52.1562 128.88 51.8922 128.432 51.6842 127.952C51.4762 127.456 51.3722 126.92 51.3722 126.344C51.3722 125.56 51.5482 124.888 51.9002 124.328C52.2522 123.768 52.7562 123.344 53.4122 123.056C54.0842 122.752 54.8762 122.6 55.7882 122.6ZM54.7322 131.816C54.1562 132.152 53.6602 132.496 53.2442 132.848C52.8442 133.184 52.5322 133.56 52.3082 133.976C52.0842 134.392 51.9722 134.888 51.9722 135.464C51.9722 136.344 52.2682 137.048 52.8602 137.576C53.4522 138.104 54.2442 138.368 55.2362 138.368C56.2602 138.368 57.1402 138.2 57.8762 137.864C58.6122 137.528 59.2282 137.128 59.7242 136.664L54.7322 131.816ZM55.7162 124.328C55.0442 124.328 54.4922 124.504 54.0602 124.856C53.6442 125.208 53.4362 125.696 53.4362 126.32C53.4362 126.896 53.5882 127.432 53.8922 127.928C54.1962 128.408 54.6362 128.944 55.2122 129.536C56.1562 128.992 56.8282 128.48 57.2282 128C57.6442 127.504 57.8522 126.936 57.8522 126.296C57.8522 125.72 57.6602 125.248 57.2762 124.88C56.8922 124.512 56.3722 124.328 55.7162 124.328ZM74.9503 126.944C74.9503 131.528 85.1743 129.224 85.1743 135.344C85.1743 138.416 82.5823 140.24 78.5263 140.24C75.6223 140.24 74.0623 139.304 73.6063 139.304C73.4863 139.304 73.4383 139.376 73.4623 139.544H73.2943C73.1023 138.728 73.1743 138.32 72.9823 137.384C72.8383 136.616 72.5983 135.944 72.4303 135.056H72.6223C73.0783 136.976 75.9823 139.64 78.7663 139.64C80.3503 139.64 82.5343 138.776 82.5343 136.448C82.5343 131.48 72.5023 133.64 72.5023 127.736C72.5023 124.808 74.9743 122.96 79.0543 122.96C81.9583 122.96 83.2303 123.896 83.5663 123.896C83.6623 123.896 83.6863 123.824 83.6623 123.656H83.8303C84.0223 124.472 83.9503 124.88 84.1183 125.768C84.2863 126.584 84.5503 127.256 84.6943 128.144H84.5263C84.0703 126.272 81.6703 123.56 78.9583 123.56C77.0623 123.56 74.9503 124.856 74.9503 126.944ZM95.8059 132.632H88.6539C88.6539 135.272 89.5419 139.232 92.8539 139.232C93.8139 139.232 94.4379 138.8 95.0859 138.152L95.2059 138.248C94.2459 139.472 93.2859 140.24 91.6779 140.24C88.2219 140.24 86.5659 137.096 86.5659 134C86.5659 130.736 88.3179 127.76 91.8939 127.76C94.5579 127.76 95.8059 130.256 95.8059 132.632ZM88.6539 132.344L93.6939 132.008C93.6939 130.544 93.4059 128.144 91.4619 128.144C89.2779 128.144 88.7019 130.568 88.6539 132.344ZM102.483 140.24C99.0266 140.24 97.3706 137.096 97.3706 134C97.3706 130.736 99.1226 127.76 102.699 127.76C104.235 127.76 105.675 128.36 106.635 129.584L105.891 133.4H105.747C105.483 131.624 104.451 128.168 102.147 128.168C99.9626 128.168 99.4586 130.904 99.4586 132.584C99.4586 135.224 100.323 139.232 103.659 139.232C104.619 139.232 105.243 138.8 105.891 138.152L106.011 138.248C105.051 139.472 104.091 140.24 102.483 140.24ZM115.965 133.208C115.965 130.712 115.965 130.016 114.645 130.016V129.872C116.157 129.68 117.357 128.84 117.981 127.76H118.125V135.752C118.125 139.256 118.509 139.856 119.829 139.856V140C118.557 140 117.357 140 116.205 140.24H115.965V137.048C115.077 138.656 113.469 140.24 111.621 140.24C109.725 140.24 108.909 138.536 108.909 136.136V133.208C108.909 130.712 108.909 130.016 107.589 130.016V129.872C109.101 129.68 110.301 128.84 110.925 127.76H111.069V135.032C111.069 137.312 111.885 138.776 113.133 138.776C113.925 138.776 114.909 138.152 115.965 136.712V133.208ZM126.353 140C125.273 140 124.673 139.856 123.641 139.856C122.681 139.856 121.745 140 120.785 140V139.856C122.105 139.856 122.489 139.256 122.489 135.752V133.208C122.489 130.712 122.489 130.016 121.169 130.016V129.872C122.681 129.68 123.881 128.84 124.505 127.76H124.649V132.8C125.081 130.472 126.473 127.76 128.585 127.76C129.617 127.76 130.457 128.432 130.865 129.584L130.289 133.4H130.193C129.905 130.88 128.969 129.464 127.697 129.464C126.329 129.464 124.961 131.096 124.649 134.216V135.752C124.649 139.256 125.033 139.856 126.353 139.856V140ZM141.415 132.632H134.263C134.263 135.272 135.151 139.232 138.463 139.232C139.423 139.232 140.047 138.8 140.695 138.152L140.815 138.248C139.855 139.472 138.895 140.24 137.287 140.24C133.831 140.24 132.175 137.096 132.175 134C132.175 130.736 133.927 127.76 137.503 127.76C140.167 127.76 141.415 130.256 141.415 132.632ZM134.263 132.344L139.303 132.008C139.303 130.544 139.015 128.144 137.071 128.144C134.887 128.144 134.311 130.568 134.263 132.344Z" fill="white" fill-opacity="0.8"/>
<mask id="path-2-inside-1_62_860" fill="white">
<path d="M64.25 20.25C61.4606 20.25 59.1875 22.5231 59.1875 25.3125V33.75C59.1875 33.8006 59.1993 33.8462 59.201 33.8951C57.1485 32.6962 54.8145 32.0638 52.4375 32.0625C45.0176 32.0625 38.9375 38.097 38.9375 45.5001V50.625H35.5625C33.7062 50.625 32.1875 52.1437 32.1875 54V86.0625C32.1875 87.9187 33.7062 89.4375 35.5625 89.4375H104.75C107.539 89.4375 109.812 87.1644 109.812 84.375V75.9375C109.811 75.1011 109.603 74.2781 109.206 73.5419C108.809 72.8057 108.236 72.1793 107.538 71.7188C108.236 71.2584 108.809 70.6321 109.206 69.8958C109.603 69.1596 109.812 68.3364 109.812 67.5V59.0625C109.811 58.2261 109.603 57.4031 109.206 56.6669C108.809 55.9307 108.236 55.3043 107.538 54.8438C108.236 54.3834 108.809 53.7571 109.206 53.0208C109.603 52.2846 109.812 51.4614 109.812 50.625V42.1875C109.811 41.3511 109.603 40.5281 109.206 39.7919C108.809 39.0557 108.236 38.4293 107.538 37.9688C108.236 37.5084 108.809 36.8821 109.206 36.1458C109.603 35.4096 109.812 34.5864 109.812 33.75V25.3125C109.812 22.5231 107.539 20.25 104.75 20.25H64.25ZM64.25 21.9375H104.75C106.635 21.9375 108.125 23.4276 108.125 25.3125V33.75C108.125 35.6349 106.635 37.125 104.75 37.125H64.25C63.7792 37.125 63.3354 37.0305 62.9321 36.8617C62.9309 36.8617 62.9298 36.8617 62.9287 36.8617C62.8286 36.8192 62.7306 36.7719 62.6351 36.72C62.6273 36.7154 62.6194 36.7109 62.6114 36.7065C62.2168 36.2561 61.7928 35.8322 61.3424 35.4375H104.75V33.75H60.875V25.3125H104.75V23.625H61.3323C61.9111 22.6142 62.9861 21.9375 64.25 21.9375ZM74.375 27V32.0625H79.4375V27H74.375ZM81.125 27V32.0625H86.1875V27H81.125ZM87.875 27V32.0625H92.9375V27H87.875ZM76.0625 28.6875H77.75V30.375H76.0625V28.6875ZM82.8125 28.6875H84.5V30.375H82.8125V28.6875ZM89.5625 28.6875H91.25V30.375H89.5625V28.6875ZM52.4375 33.75C58.9445 33.75 64.25 39.0201 64.25 45.5001V50.625H60.8784V45.5119C60.8784 40.8577 57.1321 37.125 52.4341 37.125C47.7361 37.125 43.9899 40.8577 43.9899 45.5119V50.625H40.625V45.5001C40.625 39.0201 45.9305 33.75 52.4375 33.75ZM64.115 38.799C64.1606 38.799 64.2044 38.8125 64.25 38.8125H104.75C106.635 38.8125 108.125 40.3026 108.125 42.1875V50.625C108.125 52.5099 106.635 54 104.75 54H72.6875C72.6875 53.3841 72.5069 52.8103 72.215 52.3125H104.75V50.625H65.9375V45.5001C65.9375 44.3559 65.7755 43.2489 65.5021 42.1875H104.75V40.5H64.9554C64.7159 39.9138 64.4351 39.3454 64.115 38.799ZM52.4341 38.8125C56.2529 38.8125 59.1909 41.7504 59.1909 45.5119V50.625H45.6774V45.5119C45.6774 41.7504 48.6153 38.8125 52.4341 38.8125ZM74.375 43.875V48.9375H79.4375V43.875H74.375ZM81.125 43.875V48.9375H86.1875V43.875H81.125ZM87.875 43.875V48.9375H92.9375V43.875H87.875ZM76.0625 45.5625H77.75V47.25H76.0625V45.5625ZM82.8125 45.5625H84.5V47.25H82.8125V45.5625ZM89.5625 45.5625H91.25V47.25H89.5625V45.5625ZM35.5625 52.3125H69.3125C70.2626 52.3125 71 53.0499 71 54V72.5625H33.875V54C33.875 53.0499 34.6124 52.3125 35.5625 52.3125ZM52.4375 55.6875C51.3197 55.6911 50.2487 56.1367 49.4583 56.9271C48.6679 57.7175 48.2223 58.7885 48.2188 59.9062C48.2188 61.2056 48.9039 62.3413 49.9062 63.1327V69.1841H54.9688V63.1294C55.9711 62.3379 56.6546 61.2039 56.6562 59.9062C56.6562 57.5859 54.7578 55.6875 52.4375 55.6875ZM72.6875 55.6875H104.75C106.635 55.6875 108.125 57.1776 108.125 59.0625V67.5C108.125 69.3849 106.635 70.875 104.75 70.875H72.6875V69.1875H104.75V67.5H72.6875V59.0625H104.75V57.375H72.6875V55.6875ZM52.4375 57.375C52.9943 57.3749 53.5356 57.5586 53.9774 57.8975C54.4192 58.2364 54.7369 58.7116 54.8811 59.2494C55.0253 59.7872 54.988 60.3576 54.7751 60.8721C54.5621 61.3866 54.1853 61.8164 53.7031 62.0949L53.2812 62.3379V67.5H51.5938V62.3413L51.1719 62.0983C50.7871 61.8762 50.4676 61.5566 50.2454 61.1718C50.0232 60.787 49.9063 60.3506 49.9062 59.9062C49.9062 58.4989 51.0301 57.375 52.4375 57.375ZM74.375 60.75V65.8125H79.4375V60.75H74.375ZM81.125 60.75V65.8125H86.1875V60.75H81.125ZM87.875 60.75V65.8125H92.9375V60.75H87.875ZM76.0625 62.4375H77.75V64.125H76.0625V62.4375ZM82.8125 62.4375H84.5V64.125H82.8125V62.4375ZM89.5625 62.4375H91.25V64.125H89.5625V62.4375ZM72.6875 72.5625H104.75C106.635 72.5625 108.125 74.0526 108.125 75.9375V84.375C108.125 86.2599 106.635 87.75 104.75 87.75H72.2133C72.5053 87.2505 72.6875 86.6801 72.6875 86.0625H104.75V84.375H72.6875V75.9375H104.75V74.25H72.6875V72.5625ZM33.875 74.25H71V82.6875H33.875V74.25ZM36.4062 75.9375V81H41.4688V75.9375H36.4062ZM43.1562 75.9375V81H48.2188V75.9375H43.1562ZM49.9062 75.9375V81H54.9688V75.9375H49.9062ZM56.6562 75.9375V81H61.7188V75.9375H56.6562ZM63.4062 75.9375V81H68.4688V75.9375H63.4062ZM38.0938 77.625H39.7812V79.3125H38.0938V77.625ZM44.8438 77.625H46.5312V79.3125H44.8438V77.625ZM51.5938 77.625H53.2812V79.3125H51.5938V77.625ZM58.3438 77.625H60.0312V79.3125H58.3438V77.625ZM65.0938 77.625H66.7812V79.3125H65.0938V77.625ZM74.375 77.625V82.6875H79.4375V77.625H74.375ZM81.125 77.625V82.6875H86.1875V77.625H81.125ZM87.875 77.625V82.6875H92.9375V77.625H87.875ZM76.0625 79.3125H77.75V81H76.0625V79.3125ZM82.8125 79.3125H84.5V81H82.8125V79.3125ZM89.5625 79.3125H91.25V81H89.5625V79.3125ZM33.875 84.375H71V86.0625C71 87.0126 70.2626 87.75 69.3125 87.75H35.5625C34.6124 87.75 33.875 87.0126 33.875 86.0625V84.375Z"/>
</mask>
<path d="M64.25 20.25C61.4606 20.25 59.1875 22.5231 59.1875 25.3125V33.75C59.1875 33.8006 59.1993 33.8462 59.201 33.8951C57.1485 32.6962 54.8145 32.0638 52.4375 32.0625C45.0176 32.0625 38.9375 38.097 38.9375 45.5001V50.625H35.5625C33.7062 50.625 32.1875 52.1437 32.1875 54V86.0625C32.1875 87.9187 33.7062 89.4375 35.5625 89.4375H104.75C107.539 89.4375 109.812 87.1644 109.812 84.375V75.9375C109.811 75.1011 109.603 74.2781 109.206 73.5419C108.809 72.8057 108.236 72.1793 107.538 71.7188C108.236 71.2584 108.809 70.6321 109.206 69.8958C109.603 69.1596 109.812 68.3364 109.812 67.5V59.0625C109.811 58.2261 109.603 57.4031 109.206 56.6669C108.809 55.9307 108.236 55.3043 107.538 54.8438C108.236 54.3834 108.809 53.7571 109.206 53.0208C109.603 52.2846 109.812 51.4614 109.812 50.625V42.1875C109.811 41.3511 109.603 40.5281 109.206 39.7919C108.809 39.0557 108.236 38.4293 107.538 37.9688C108.236 37.5084 108.809 36.8821 109.206 36.1458C109.603 35.4096 109.812 34.5864 109.812 33.75V25.3125C109.812 22.5231 107.539 20.25 104.75 20.25H64.25ZM64.25 21.9375H104.75C106.635 21.9375 108.125 23.4276 108.125 25.3125V33.75C108.125 35.6349 106.635 37.125 104.75 37.125H64.25C63.7792 37.125 63.3354 37.0305 62.9321 36.8617C62.9309 36.8617 62.9298 36.8617 62.9287 36.8617C62.8286 36.8192 62.7306 36.7719 62.6351 36.72C62.6273 36.7154 62.6194 36.7109 62.6114 36.7065C62.2168 36.2561 61.7928 35.8322 61.3424 35.4375H104.75V33.75H60.875V25.3125H104.75V23.625H61.3323C61.9111 22.6142 62.9861 21.9375 64.25 21.9375ZM74.375 27V32.0625H79.4375V27H74.375ZM81.125 27V32.0625H86.1875V27H81.125ZM87.875 27V32.0625H92.9375V27H87.875ZM76.0625 28.6875H77.75V30.375H76.0625V28.6875ZM82.8125 28.6875H84.5V30.375H82.8125V28.6875ZM89.5625 28.6875H91.25V30.375H89.5625V28.6875ZM52.4375 33.75C58.9445 33.75 64.25 39.0201 64.25 45.5001V50.625H60.8784V45.5119C60.8784 40.8577 57.1321 37.125 52.4341 37.125C47.7361 37.125 43.9899 40.8577 43.9899 45.5119V50.625H40.625V45.5001C40.625 39.0201 45.9305 33.75 52.4375 33.75ZM64.115 38.799C64.1606 38.799 64.2044 38.8125 64.25 38.8125H104.75C106.635 38.8125 108.125 40.3026 108.125 42.1875V50.625C108.125 52.5099 106.635 54 104.75 54H72.6875C72.6875 53.3841 72.5069 52.8103 72.215 52.3125H104.75V50.625H65.9375V45.5001C65.9375 44.3559 65.7755 43.2489 65.5021 42.1875H104.75V40.5H64.9554C64.7159 39.9138 64.4351 39.3454 64.115 38.799ZM52.4341 38.8125C56.2529 38.8125 59.1909 41.7504 59.1909 45.5119V50.625H45.6774V45.5119C45.6774 41.7504 48.6153 38.8125 52.4341 38.8125ZM74.375 43.875V48.9375H79.4375V43.875H74.375ZM81.125 43.875V48.9375H86.1875V43.875H81.125ZM87.875 43.875V48.9375H92.9375V43.875H87.875ZM76.0625 45.5625H77.75V47.25H76.0625V45.5625ZM82.8125 45.5625H84.5V47.25H82.8125V45.5625ZM89.5625 45.5625H91.25V47.25H89.5625V45.5625ZM35.5625 52.3125H69.3125C70.2626 52.3125 71 53.0499 71 54V72.5625H33.875V54C33.875 53.0499 34.6124 52.3125 35.5625 52.3125ZM52.4375 55.6875C51.3197 55.6911 50.2487 56.1367 49.4583 56.9271C48.6679 57.7175 48.2223 58.7885 48.2188 59.9062C48.2188 61.2056 48.9039 62.3413 49.9062 63.1327V69.1841H54.9688V63.1294C55.9711 62.3379 56.6546 61.2039 56.6562 59.9062C56.6562 57.5859 54.7578 55.6875 52.4375 55.6875ZM72.6875 55.6875H104.75C106.635 55.6875 108.125 57.1776 108.125 59.0625V67.5C108.125 69.3849 106.635 70.875 104.75 70.875H72.6875V69.1875H104.75V67.5H72.6875V59.0625H104.75V57.375H72.6875V55.6875ZM52.4375 57.375C52.9943 57.3749 53.5356 57.5586 53.9774 57.8975C54.4192 58.2364 54.7369 58.7116 54.8811 59.2494C55.0253 59.7872 54.988 60.3576 54.7751 60.8721C54.5621 61.3866 54.1853 61.8164 53.7031 62.0949L53.2812 62.3379V67.5H51.5938V62.3413L51.1719 62.0983C50.7871 61.8762 50.4676 61.5566 50.2454 61.1718C50.0232 60.787 49.9063 60.3506 49.9062 59.9062C49.9062 58.4989 51.0301 57.375 52.4375 57.375ZM74.375 60.75V65.8125H79.4375V60.75H74.375ZM81.125 60.75V65.8125H86.1875V60.75H81.125ZM87.875 60.75V65.8125H92.9375V60.75H87.875ZM76.0625 62.4375H77.75V64.125H76.0625V62.4375ZM82.8125 62.4375H84.5V64.125H82.8125V62.4375ZM89.5625 62.4375H91.25V64.125H89.5625V62.4375ZM72.6875 72.5625H104.75C106.635 72.5625 108.125 74.0526 108.125 75.9375V84.375C108.125 86.2599 106.635 87.75 104.75 87.75H72.2133C72.5053 87.2505 72.6875 86.6801 72.6875 86.0625H104.75V84.375H72.6875V75.9375H104.75V74.25H72.6875V72.5625ZM33.875 74.25H71V82.6875H33.875V74.25ZM36.4062 75.9375V81H41.4688V75.9375H36.4062ZM43.1562 75.9375V81H48.2188V75.9375H43.1562ZM49.9062 75.9375V81H54.9688V75.9375H49.9062ZM56.6562 75.9375V81H61.7188V75.9375H56.6562ZM63.4062 75.9375V81H68.4688V75.9375H63.4062ZM38.0938 77.625H39.7812V79.3125H38.0938V77.625ZM44.8438 77.625H46.5312V79.3125H44.8438V77.625ZM51.5938 77.625H53.2812V79.3125H51.5938V77.625ZM58.3438 77.625H60.0312V79.3125H58.3438V77.625ZM65.0938 77.625H66.7812V79.3125H65.0938V77.625ZM74.375 77.625V82.6875H79.4375V77.625H74.375ZM81.125 77.625V82.6875H86.1875V77.625H81.125ZM87.875 77.625V82.6875H92.9375V77.625H87.875ZM76.0625 79.3125H77.75V81H76.0625V79.3125ZM82.8125 79.3125H84.5V81H82.8125V79.3125ZM89.5625 79.3125H91.25V81H89.5625V79.3125ZM33.875 84.375H71V86.0625C71 87.0126 70.2626 87.75 69.3125 87.75H35.5625C34.6124 87.75 33.875 87.0126 33.875 86.0625V84.375Z" fill="url(#paint0_linear_62_860)"/>
<path d="M64.25 20.25C61.4606 20.25 59.1875 22.5231 59.1875 25.3125V33.75C59.1875 33.8006 59.1993 33.8462 59.201 33.8951C57.1485 32.6962 54.8145 32.0638 52.4375 32.0625C45.0176 32.0625 38.9375 38.097 38.9375 45.5001V50.625H35.5625C33.7062 50.625 32.1875 52.1437 32.1875 54V86.0625C32.1875 87.9187 33.7062 89.4375 35.5625 89.4375H104.75C107.539 89.4375 109.812 87.1644 109.812 84.375V75.9375C109.811 75.1011 109.603 74.2781 109.206 73.5419C108.809 72.8057 108.236 72.1793 107.538 71.7188C108.236 71.2584 108.809 70.6321 109.206 69.8958C109.603 69.1596 109.812 68.3364 109.812 67.5V59.0625C109.811 58.2261 109.603 57.4031 109.206 56.6669C108.809 55.9307 108.236 55.3043 107.538 54.8438C108.236 54.3834 108.809 53.7571 109.206 53.0208C109.603 52.2846 109.812 51.4614 109.812 50.625V42.1875C109.811 41.3511 109.603 40.5281 109.206 39.7919C108.809 39.0557 108.236 38.4293 107.538 37.9688C108.236 37.5084 108.809 36.8821 109.206 36.1458C109.603 35.4096 109.812 34.5864 109.812 33.75V25.3125C109.812 22.5231 107.539 20.25 104.75 20.25H64.25ZM64.25 21.9375H104.75C106.635 21.9375 108.125 23.4276 108.125 25.3125V33.75C108.125 35.6349 106.635 37.125 104.75 37.125H64.25C63.7792 37.125 63.3354 37.0305 62.9321 36.8617C62.9309 36.8617 62.9298 36.8617 62.9287 36.8617C62.8286 36.8192 62.7306 36.7719 62.6351 36.72C62.6273 36.7154 62.6194 36.7109 62.6114 36.7065C62.2168 36.2561 61.7928 35.8322 61.3424 35.4375H104.75V33.75H60.875V25.3125H104.75V23.625H61.3323C61.9111 22.6142 62.9861 21.9375 64.25 21.9375ZM74.375 27V32.0625H79.4375V27H74.375ZM81.125 27V32.0625H86.1875V27H81.125ZM87.875 27V32.0625H92.9375V27H87.875ZM76.0625 28.6875H77.75V30.375H76.0625V28.6875ZM82.8125 28.6875H84.5V30.375H82.8125V28.6875ZM89.5625 28.6875H91.25V30.375H89.5625V28.6875ZM52.4375 33.75C58.9445 33.75 64.25 39.0201 64.25 45.5001V50.625H60.8784V45.5119C60.8784 40.8577 57.1321 37.125 52.4341 37.125C47.7361 37.125 43.9899 40.8577 43.9899 45.5119V50.625H40.625V45.5001C40.625 39.0201 45.9305 33.75 52.4375 33.75ZM64.115 38.799C64.1606 38.799 64.2044 38.8125 64.25 38.8125H104.75C106.635 38.8125 108.125 40.3026 108.125 42.1875V50.625C108.125 52.5099 106.635 54 104.75 54H72.6875C72.6875 53.3841 72.5069 52.8103 72.215 52.3125H104.75V50.625H65.9375V45.5001C65.9375 44.3559 65.7755 43.2489 65.5021 42.1875H104.75V40.5H64.9554C64.7159 39.9138 64.4351 39.3454 64.115 38.799ZM52.4341 38.8125C56.2529 38.8125 59.1909 41.7504 59.1909 45.5119V50.625H45.6774V45.5119C45.6774 41.7504 48.6153 38.8125 52.4341 38.8125ZM74.375 43.875V48.9375H79.4375V43.875H74.375ZM81.125 43.875V48.9375H86.1875V43.875H81.125ZM87.875 43.875V48.9375H92.9375V43.875H87.875ZM76.0625 45.5625H77.75V47.25H76.0625V45.5625ZM82.8125 45.5625H84.5V47.25H82.8125V45.5625ZM89.5625 45.5625H91.25V47.25H89.5625V45.5625ZM35.5625 52.3125H69.3125C70.2626 52.3125 71 53.0499 71 54V72.5625H33.875V54C33.875 53.0499 34.6124 52.3125 35.5625 52.3125ZM52.4375 55.6875C51.3197 55.6911 50.2487 56.1367 49.4583 56.9271C48.6679 57.7175 48.2223 58.7885 48.2188 59.9062C48.2188 61.2056 48.9039 62.3413 49.9062 63.1327V69.1841H54.9688V63.1294C55.9711 62.3379 56.6546 61.2039 56.6562 59.9062C56.6562 57.5859 54.7578 55.6875 52.4375 55.6875ZM72.6875 55.6875H104.75C106.635 55.6875 108.125 57.1776 108.125 59.0625V67.5C108.125 69.3849 106.635 70.875 104.75 70.875H72.6875V69.1875H104.75V67.5H72.6875V59.0625H104.75V57.375H72.6875V55.6875ZM52.4375 57.375C52.9943 57.3749 53.5356 57.5586 53.9774 57.8975C54.4192 58.2364 54.7369 58.7116 54.8811 59.2494C55.0253 59.7872 54.988 60.3576 54.7751 60.8721C54.5621 61.3866 54.1853 61.8164 53.7031 62.0949L53.2812 62.3379V67.5H51.5938V62.3413L51.1719 62.0983C50.7871 61.8762 50.4676 61.5566 50.2454 61.1718C50.0232 60.787 49.9063 60.3506 49.9062 59.9062C49.9062 58.4989 51.0301 57.375 52.4375 57.375ZM74.375 60.75V65.8125H79.4375V60.75H74.375ZM81.125 60.75V65.8125H86.1875V60.75H81.125ZM87.875 60.75V65.8125H92.9375V60.75H87.875ZM76.0625 62.4375H77.75V64.125H76.0625V62.4375ZM82.8125 62.4375H84.5V64.125H82.8125V62.4375ZM89.5625 62.4375H91.25V64.125H89.5625V62.4375ZM72.6875 72.5625H104.75C106.635 72.5625 108.125 74.0526 108.125 75.9375V84.375C108.125 86.2599 106.635 87.75 104.75 87.75H72.2133C72.5053 87.2505 72.6875 86.6801 72.6875 86.0625H104.75V84.375H72.6875V75.9375H104.75V74.25H72.6875V72.5625ZM33.875 74.25H71V82.6875H33.875V74.25ZM36.4062 75.9375V81H41.4688V75.9375H36.4062ZM43.1562 75.9375V81H48.2188V75.9375H43.1562ZM49.9062 75.9375V81H54.9688V75.9375H49.9062ZM56.6562 75.9375V81H61.7188V75.9375H56.6562ZM63.4062 75.9375V81H68.4688V75.9375H63.4062ZM38.0938 77.625H39.7812V79.3125H38.0938V77.625ZM44.8438 77.625H46.5312V79.3125H44.8438V77.625ZM51.5938 77.625H53.2812V79.3125H51.5938V77.625ZM58.3438 77.625H60.0312V79.3125H58.3438V77.625ZM65.0938 77.625H66.7812V79.3125H65.0938V77.625ZM74.375 77.625V82.6875H79.4375V77.625H74.375ZM81.125 77.625V82.6875H86.1875V77.625H81.125ZM87.875 77.625V82.6875H92.9375V77.625H87.875ZM76.0625 79.3125H77.75V81H76.0625V79.3125ZM82.8125 79.3125H84.5V81H82.8125V79.3125ZM89.5625 79.3125H91.25V81H89.5625V79.3125ZM33.875 84.375H71V86.0625C71 87.0126 70.2626 87.75 69.3125 87.75H35.5625C34.6124 87.75 33.875 87.0126 33.875 86.0625V84.375Z" fill="url(#paint1_linear_62_860)"/>
<path d="M64.25 20.25C61.4606 20.25 59.1875 22.5231 59.1875 25.3125V33.75C59.1875 33.8006 59.1993 33.8462 59.201 33.8951C57.1485 32.6962 54.8145 32.0638 52.4375 32.0625C45.0176 32.0625 38.9375 38.097 38.9375 45.5001V50.625H35.5625C33.7062 50.625 32.1875 52.1437 32.1875 54V86.0625C32.1875 87.9187 33.7062 89.4375 35.5625 89.4375H104.75C107.539 89.4375 109.812 87.1644 109.812 84.375V75.9375C109.811 75.1011 109.603 74.2781 109.206 73.5419C108.809 72.8057 108.236 72.1793 107.538 71.7188C108.236 71.2584 108.809 70.6321 109.206 69.8958C109.603 69.1596 109.812 68.3364 109.812 67.5V59.0625C109.811 58.2261 109.603 57.4031 109.206 56.6669C108.809 55.9307 108.236 55.3043 107.538 54.8438C108.236 54.3834 108.809 53.7571 109.206 53.0208C109.603 52.2846 109.812 51.4614 109.812 50.625V42.1875C109.811 41.3511 109.603 40.5281 109.206 39.7919C108.809 39.0557 108.236 38.4293 107.538 37.9688C108.236 37.5084 108.809 36.8821 109.206 36.1458C109.603 35.4096 109.812 34.5864 109.812 33.75V25.3125C109.812 22.5231 107.539 20.25 104.75 20.25H64.25ZM64.25 21.9375H104.75C106.635 21.9375 108.125 23.4276 108.125 25.3125V33.75C108.125 35.6349 106.635 37.125 104.75 37.125H64.25C63.7792 37.125 63.3354 37.0305 62.9321 36.8617C62.9309 36.8617 62.9298 36.8617 62.9287 36.8617C62.8286 36.8192 62.7306 36.7719 62.6351 36.72C62.6273 36.7154 62.6194 36.7109 62.6114 36.7065C62.2168 36.2561 61.7928 35.8322 61.3424 35.4375H104.75V33.75H60.875V25.3125H104.75V23.625H61.3323C61.9111 22.6142 62.9861 21.9375 64.25 21.9375ZM74.375 27V32.0625H79.4375V27H74.375ZM81.125 27V32.0625H86.1875V27H81.125ZM87.875 27V32.0625H92.9375V27H87.875ZM76.0625 28.6875H77.75V30.375H76.0625V28.6875ZM82.8125 28.6875H84.5V30.375H82.8125V28.6875ZM89.5625 28.6875H91.25V30.375H89.5625V28.6875ZM52.4375 33.75C58.9445 33.75 64.25 39.0201 64.25 45.5001V50.625H60.8784V45.5119C60.8784 40.8577 57.1321 37.125 52.4341 37.125C47.7361 37.125 43.9899 40.8577 43.9899 45.5119V50.625H40.625V45.5001C40.625 39.0201 45.9305 33.75 52.4375 33.75ZM64.115 38.799C64.1606 38.799 64.2044 38.8125 64.25 38.8125H104.75C106.635 38.8125 108.125 40.3026 108.125 42.1875V50.625C108.125 52.5099 106.635 54 104.75 54H72.6875C72.6875 53.3841 72.5069 52.8103 72.215 52.3125H104.75V50.625H65.9375V45.5001C65.9375 44.3559 65.7755 43.2489 65.5021 42.1875H104.75V40.5H64.9554C64.7159 39.9138 64.4351 39.3454 64.115 38.799ZM52.4341 38.8125C56.2529 38.8125 59.1909 41.7504 59.1909 45.5119V50.625H45.6774V45.5119C45.6774 41.7504 48.6153 38.8125 52.4341 38.8125ZM74.375 43.875V48.9375H79.4375V43.875H74.375ZM81.125 43.875V48.9375H86.1875V43.875H81.125ZM87.875 43.875V48.9375H92.9375V43.875H87.875ZM76.0625 45.5625H77.75V47.25H76.0625V45.5625ZM82.8125 45.5625H84.5V47.25H82.8125V45.5625ZM89.5625 45.5625H91.25V47.25H89.5625V45.5625ZM35.5625 52.3125H69.3125C70.2626 52.3125 71 53.0499 71 54V72.5625H33.875V54C33.875 53.0499 34.6124 52.3125 35.5625 52.3125ZM52.4375 55.6875C51.3197 55.6911 50.2487 56.1367 49.4583 56.9271C48.6679 57.7175 48.2223 58.7885 48.2188 59.9062C48.2188 61.2056 48.9039 62.3413 49.9062 63.1327V69.1841H54.9688V63.1294C55.9711 62.3379 56.6546 61.2039 56.6562 59.9062C56.6562 57.5859 54.7578 55.6875 52.4375 55.6875ZM72.6875 55.6875H104.75C106.635 55.6875 108.125 57.1776 108.125 59.0625V67.5C108.125 69.3849 106.635 70.875 104.75 70.875H72.6875V69.1875H104.75V67.5H72.6875V59.0625H104.75V57.375H72.6875V55.6875ZM52.4375 57.375C52.9943 57.3749 53.5356 57.5586 53.9774 57.8975C54.4192 58.2364 54.7369 58.7116 54.8811 59.2494C55.0253 59.7872 54.988 60.3576 54.7751 60.8721C54.5621 61.3866 54.1853 61.8164 53.7031 62.0949L53.2812 62.3379V67.5H51.5938V62.3413L51.1719 62.0983C50.7871 61.8762 50.4676 61.5566 50.2454 61.1718C50.0232 60.787 49.9063 60.3506 49.9062 59.9062C49.9062 58.4989 51.0301 57.375 52.4375 57.375ZM74.375 60.75V65.8125H79.4375V60.75H74.375ZM81.125 60.75V65.8125H86.1875V60.75H81.125ZM87.875 60.75V65.8125H92.9375V60.75H87.875ZM76.0625 62.4375H77.75V64.125H76.0625V62.4375ZM82.8125 62.4375H84.5V64.125H82.8125V62.4375ZM89.5625 62.4375H91.25V64.125H89.5625V62.4375ZM72.6875 72.5625H104.75C106.635 72.5625 108.125 74.0526 108.125 75.9375V84.375C108.125 86.2599 106.635 87.75 104.75 87.75H72.2133C72.5053 87.2505 72.6875 86.6801 72.6875 86.0625H104.75V84.375H72.6875V75.9375H104.75V74.25H72.6875V72.5625ZM33.875 74.25H71V82.6875H33.875V74.25ZM36.4062 75.9375V81H41.4688V75.9375H36.4062ZM43.1562 75.9375V81H48.2188V75.9375H43.1562ZM49.9062 75.9375V81H54.9688V75.9375H49.9062ZM56.6562 75.9375V81H61.7188V75.9375H56.6562ZM63.4062 75.9375V81H68.4688V75.9375H63.4062ZM38.0938 77.625H39.7812V79.3125H38.0938V77.625ZM44.8438 77.625H46.5312V79.3125H44.8438V77.625ZM51.5938 77.625H53.2812V79.3125H51.5938V77.625ZM58.3438 77.625H60.0312V79.3125H58.3438V77.625ZM65.0938 77.625H66.7812V79.3125H65.0938V77.625ZM74.375 77.625V82.6875H79.4375V77.625H74.375ZM81.125 77.625V82.6875H86.1875V77.625H81.125ZM87.875 77.625V82.6875H92.9375V77.625H87.875ZM76.0625 79.3125H77.75V81H76.0625V79.3125ZM82.8125 79.3125H84.5V81H82.8125V79.3125ZM89.5625 79.3125H91.25V81H89.5625V79.3125ZM33.875 84.375H71V86.0625C71 87.0126 70.2626 87.75 69.3125 87.75H35.5625C34.6124 87.75 33.875 87.0126 33.875 86.0625V84.375Z" fill="url(#paint2_linear_62_860)"/>
<path d="M64.25 20.25C61.4606 20.25 59.1875 22.5231 59.1875 25.3125V33.75C59.1875 33.8006 59.1993 33.8462 59.201 33.8951C57.1485 32.6962 54.8145 32.0638 52.4375 32.0625C45.0176 32.0625 38.9375 38.097 38.9375 45.5001V50.625H35.5625C33.7062 50.625 32.1875 52.1437 32.1875 54V86.0625C32.1875 87.9187 33.7062 89.4375 35.5625 89.4375H104.75C107.539 89.4375 109.812 87.1644 109.812 84.375V75.9375C109.811 75.1011 109.603 74.2781 109.206 73.5419C108.809 72.8057 108.236 72.1793 107.538 71.7188C108.236 71.2584 108.809 70.6321 109.206 69.8958C109.603 69.1596 109.812 68.3364 109.812 67.5V59.0625C109.811 58.2261 109.603 57.4031 109.206 56.6669C108.809 55.9307 108.236 55.3043 107.538 54.8438C108.236 54.3834 108.809 53.7571 109.206 53.0208C109.603 52.2846 109.812 51.4614 109.812 50.625V42.1875C109.811 41.3511 109.603 40.5281 109.206 39.7919C108.809 39.0557 108.236 38.4293 107.538 37.9688C108.236 37.5084 108.809 36.8821 109.206 36.1458C109.603 35.4096 109.812 34.5864 109.812 33.75V25.3125C109.812 22.5231 107.539 20.25 104.75 20.25H64.25ZM64.25 21.9375H104.75C106.635 21.9375 108.125 23.4276 108.125 25.3125V33.75C108.125 35.6349 106.635 37.125 104.75 37.125H64.25C63.7792 37.125 63.3354 37.0305 62.9321 36.8617C62.9309 36.8617 62.9298 36.8617 62.9287 36.8617C62.8286 36.8192 62.7306 36.7719 62.6351 36.72C62.6273 36.7154 62.6194 36.7109 62.6114 36.7065C62.2168 36.2561 61.7928 35.8322 61.3424 35.4375H104.75V33.75H60.875V25.3125H104.75V23.625H61.3323C61.9111 22.6142 62.9861 21.9375 64.25 21.9375ZM74.375 27V32.0625H79.4375V27H74.375ZM81.125 27V32.0625H86.1875V27H81.125ZM87.875 27V32.0625H92.9375V27H87.875ZM76.0625 28.6875H77.75V30.375H76.0625V28.6875ZM82.8125 28.6875H84.5V30.375H82.8125V28.6875ZM89.5625 28.6875H91.25V30.375H89.5625V28.6875ZM52.4375 33.75C58.9445 33.75 64.25 39.0201 64.25 45.5001V50.625H60.8784V45.5119C60.8784 40.8577 57.1321 37.125 52.4341 37.125C47.7361 37.125 43.9899 40.8577 43.9899 45.5119V50.625H40.625V45.5001C40.625 39.0201 45.9305 33.75 52.4375 33.75ZM64.115 38.799C64.1606 38.799 64.2044 38.8125 64.25 38.8125H104.75C106.635 38.8125 108.125 40.3026 108.125 42.1875V50.625C108.125 52.5099 106.635 54 104.75 54H72.6875C72.6875 53.3841 72.5069 52.8103 72.215 52.3125H104.75V50.625H65.9375V45.5001C65.9375 44.3559 65.7755 43.2489 65.5021 42.1875H104.75V40.5H64.9554C64.7159 39.9138 64.4351 39.3454 64.115 38.799ZM52.4341 38.8125C56.2529 38.8125 59.1909 41.7504 59.1909 45.5119V50.625H45.6774V45.5119C45.6774 41.7504 48.6153 38.8125 52.4341 38.8125ZM74.375 43.875V48.9375H79.4375V43.875H74.375ZM81.125 43.875V48.9375H86.1875V43.875H81.125ZM87.875 43.875V48.9375H92.9375V43.875H87.875ZM76.0625 45.5625H77.75V47.25H76.0625V45.5625ZM82.8125 45.5625H84.5V47.25H82.8125V45.5625ZM89.5625 45.5625H91.25V47.25H89.5625V45.5625ZM35.5625 52.3125H69.3125C70.2626 52.3125 71 53.0499 71 54V72.5625H33.875V54C33.875 53.0499 34.6124 52.3125 35.5625 52.3125ZM52.4375 55.6875C51.3197 55.6911 50.2487 56.1367 49.4583 56.9271C48.6679 57.7175 48.2223 58.7885 48.2188 59.9062C48.2188 61.2056 48.9039 62.3413 49.9062 63.1327V69.1841H54.9688V63.1294C55.9711 62.3379 56.6546 61.2039 56.6562 59.9062C56.6562 57.5859 54.7578 55.6875 52.4375 55.6875ZM72.6875 55.6875H104.75C106.635 55.6875 108.125 57.1776 108.125 59.0625V67.5C108.125 69.3849 106.635 70.875 104.75 70.875H72.6875V69.1875H104.75V67.5H72.6875V59.0625H104.75V57.375H72.6875V55.6875ZM52.4375 57.375C52.9943 57.3749 53.5356 57.5586 53.9774 57.8975C54.4192 58.2364 54.7369 58.7116 54.8811 59.2494C55.0253 59.7872 54.988 60.3576 54.7751 60.8721C54.5621 61.3866 54.1853 61.8164 53.7031 62.0949L53.2812 62.3379V67.5H51.5938V62.3413L51.1719 62.0983C50.7871 61.8762 50.4676 61.5566 50.2454 61.1718C50.0232 60.787 49.9063 60.3506 49.9062 59.9062C49.9062 58.4989 51.0301 57.375 52.4375 57.375ZM74.375 60.75V65.8125H79.4375V60.75H74.375ZM81.125 60.75V65.8125H86.1875V60.75H81.125ZM87.875 60.75V65.8125H92.9375V60.75H87.875ZM76.0625 62.4375H77.75V64.125H76.0625V62.4375ZM82.8125 62.4375H84.5V64.125H82.8125V62.4375ZM89.5625 62.4375H91.25V64.125H89.5625V62.4375ZM72.6875 72.5625H104.75C106.635 72.5625 108.125 74.0526 108.125 75.9375V84.375C108.125 86.2599 106.635 87.75 104.75 87.75H72.2133C72.5053 87.2505 72.6875 86.6801 72.6875 86.0625H104.75V84.375H72.6875V75.9375H104.75V74.25H72.6875V72.5625ZM33.875 74.25H71V82.6875H33.875V74.25ZM36.4062 75.9375V81H41.4688V75.9375H36.4062ZM43.1562 75.9375V81H48.2188V75.9375H43.1562ZM49.9062 75.9375V81H54.9688V75.9375H49.9062ZM56.6562 75.9375V81H61.7188V75.9375H56.6562ZM63.4062 75.9375V81H68.4688V75.9375H63.4062ZM38.0938 77.625H39.7812V79.3125H38.0938V77.625ZM44.8438 77.625H46.5312V79.3125H44.8438V77.625ZM51.5938 77.625H53.2812V79.3125H51.5938V77.625ZM58.3438 77.625H60.0312V79.3125H58.3438V77.625ZM65.0938 77.625H66.7812V79.3125H65.0938V77.625ZM74.375 77.625V82.6875H79.4375V77.625H74.375ZM81.125 77.625V82.6875H86.1875V77.625H81.125ZM87.875 77.625V82.6875H92.9375V77.625H87.875ZM76.0625 79.3125H77.75V81H76.0625V79.3125ZM82.8125 79.3125H84.5V81H82.8125V79.3125ZM89.5625 79.3125H91.25V81H89.5625V79.3125ZM33.875 84.375H71V86.0625C71 87.0126 70.2626 87.75 69.3125 87.75H35.5625C34.6124 87.75 33.875 87.0126 33.875 86.0625V84.375Z" stroke="url(#paint3_linear_62_860)" stroke-width="4" mask="url(#path-2-inside-1_62_860)"/>
<path d="M64.25 20.25C61.4606 20.25 59.1875 22.5231 59.1875 25.3125V33.75C59.1875 33.8006 59.1993 33.8462 59.201 33.8951C57.1485 32.6962 54.8145 32.0638 52.4375 32.0625C45.0176 32.0625 38.9375 38.097 38.9375 45.5001V50.625H35.5625C33.7062 50.625 32.1875 52.1437 32.1875 54V86.0625C32.1875 87.9187 33.7062 89.4375 35.5625 89.4375H104.75C107.539 89.4375 109.812 87.1644 109.812 84.375V75.9375C109.811 75.1011 109.603 74.2781 109.206 73.5419C108.809 72.8057 108.236 72.1793 107.538 71.7188C108.236 71.2584 108.809 70.6321 109.206 69.8958C109.603 69.1596 109.812 68.3364 109.812 67.5V59.0625C109.811 58.2261 109.603 57.4031 109.206 56.6669C108.809 55.9307 108.236 55.3043 107.538 54.8438C108.236 54.3834 108.809 53.7571 109.206 53.0208C109.603 52.2846 109.812 51.4614 109.812 50.625V42.1875C109.811 41.3511 109.603 40.5281 109.206 39.7919C108.809 39.0557 108.236 38.4293 107.538 37.9688C108.236 37.5084 108.809 36.8821 109.206 36.1458C109.603 35.4096 109.812 34.5864 109.812 33.75V25.3125C109.812 22.5231 107.539 20.25 104.75 20.25H64.25ZM64.25 21.9375H104.75C106.635 21.9375 108.125 23.4276 108.125 25.3125V33.75C108.125 35.6349 106.635 37.125 104.75 37.125H64.25C63.7792 37.125 63.3354 37.0305 62.9321 36.8617C62.9309 36.8617 62.9298 36.8617 62.9287 36.8617C62.8286 36.8192 62.7306 36.7719 62.6351 36.72C62.6273 36.7154 62.6194 36.7109 62.6114 36.7065C62.2168 36.2561 61.7928 35.8322 61.3424 35.4375H104.75V33.75H60.875V25.3125H104.75V23.625H61.3323C61.9111 22.6142 62.9861 21.9375 64.25 21.9375ZM74.375 27V32.0625H79.4375V27H74.375ZM81.125 27V32.0625H86.1875V27H81.125ZM87.875 27V32.0625H92.9375V27H87.875ZM76.0625 28.6875H77.75V30.375H76.0625V28.6875ZM82.8125 28.6875H84.5V30.375H82.8125V28.6875ZM89.5625 28.6875H91.25V30.375H89.5625V28.6875ZM52.4375 33.75C58.9445 33.75 64.25 39.0201 64.25 45.5001V50.625H60.8784V45.5119C60.8784 40.8577 57.1321 37.125 52.4341 37.125C47.7361 37.125 43.9899 40.8577 43.9899 45.5119V50.625H40.625V45.5001C40.625 39.0201 45.9305 33.75 52.4375 33.75ZM64.115 38.799C64.1606 38.799 64.2044 38.8125 64.25 38.8125H104.75C106.635 38.8125 108.125 40.3026 108.125 42.1875V50.625C108.125 52.5099 106.635 54 104.75 54H72.6875C72.6875 53.3841 72.5069 52.8103 72.215 52.3125H104.75V50.625H65.9375V45.5001C65.9375 44.3559 65.7755 43.2489 65.5021 42.1875H104.75V40.5H64.9554C64.7159 39.9138 64.4351 39.3454 64.115 38.799ZM52.4341 38.8125C56.2529 38.8125 59.1909 41.7504 59.1909 45.5119V50.625H45.6774V45.5119C45.6774 41.7504 48.6153 38.8125 52.4341 38.8125ZM74.375 43.875V48.9375H79.4375V43.875H74.375ZM81.125 43.875V48.9375H86.1875V43.875H81.125ZM87.875 43.875V48.9375H92.9375V43.875H87.875ZM76.0625 45.5625H77.75V47.25H76.0625V45.5625ZM82.8125 45.5625H84.5V47.25H82.8125V45.5625ZM89.5625 45.5625H91.25V47.25H89.5625V45.5625ZM35.5625 52.3125H69.3125C70.2626 52.3125 71 53.0499 71 54V72.5625H33.875V54C33.875 53.0499 34.6124 52.3125 35.5625 52.3125ZM52.4375 55.6875C51.3197 55.6911 50.2487 56.1367 49.4583 56.9271C48.6679 57.7175 48.2223 58.7885 48.2188 59.9062C48.2188 61.2056 48.9039 62.3413 49.9062 63.1327V69.1841H54.9688V63.1294C55.9711 62.3379 56.6546 61.2039 56.6562 59.9062C56.6562 57.5859 54.7578 55.6875 52.4375 55.6875ZM72.6875 55.6875H104.75C106.635 55.6875 108.125 57.1776 108.125 59.0625V67.5C108.125 69.3849 106.635 70.875 104.75 70.875H72.6875V69.1875H104.75V67.5H72.6875V59.0625H104.75V57.375H72.6875V55.6875ZM52.4375 57.375C52.9943 57.3749 53.5356 57.5586 53.9774 57.8975C54.4192 58.2364 54.7369 58.7116 54.8811 59.2494C55.0253 59.7872 54.988 60.3576 54.7751 60.8721C54.5621 61.3866 54.1853 61.8164 53.7031 62.0949L53.2812 62.3379V67.5H51.5938V62.3413L51.1719 62.0983C50.7871 61.8762 50.4676 61.5566 50.2454 61.1718C50.0232 60.787 49.9063 60.3506 49.9062 59.9062C49.9062 58.4989 51.0301 57.375 52.4375 57.375ZM74.375 60.75V65.8125H79.4375V60.75H74.375ZM81.125 60.75V65.8125H86.1875V60.75H81.125ZM87.875 60.75V65.8125H92.9375V60.75H87.875ZM76.0625 62.4375H77.75V64.125H76.0625V62.4375ZM82.8125 62.4375H84.5V64.125H82.8125V62.4375ZM89.5625 62.4375H91.25V64.125H89.5625V62.4375ZM72.6875 72.5625H104.75C106.635 72.5625 108.125 74.0526 108.125 75.9375V84.375C108.125 86.2599 106.635 87.75 104.75 87.75H72.2133C72.5053 87.2505 72.6875 86.6801 72.6875 86.0625H104.75V84.375H72.6875V75.9375H104.75V74.25H72.6875V72.5625ZM33.875 74.25H71V82.6875H33.875V74.25ZM36.4062 75.9375V81H41.4688V75.9375H36.4062ZM43.1562 75.9375V81H48.2188V75.9375H43.1562ZM49.9062 75.9375V81H54.9688V75.9375H49.9062ZM56.6562 75.9375V81H61.7188V75.9375H56.6562ZM63.4062 75.9375V81H68.4688V75.9375H63.4062ZM38.0938 77.625H39.7812V79.3125H38.0938V77.625ZM44.8438 77.625H46.5312V79.3125H44.8438V77.625ZM51.5938 77.625H53.2812V79.3125H51.5938V77.625ZM58.3438 77.625H60.0312V79.3125H58.3438V77.625ZM65.0938 77.625H66.7812V79.3125H65.0938V77.625ZM74.375 77.625V82.6875H79.4375V77.625H74.375ZM81.125 77.625V82.6875H86.1875V77.625H81.125ZM87.875 77.625V82.6875H92.9375V77.625H87.875ZM76.0625 79.3125H77.75V81H76.0625V79.3125ZM82.8125 79.3125H84.5V81H82.8125V79.3125ZM89.5625 79.3125H91.25V81H89.5625V79.3125ZM33.875 84.375H71V86.0625C71 87.0126 70.2626 87.75 69.3125 87.75H35.5625C34.6124 87.75 33.875 87.0126 33.875 86.0625V84.375Z" stroke="url(#paint4_linear_62_860)" stroke-width="4" mask="url(#path-2-inside-1_62_860)"/>
<defs>
<linearGradient id="paint0_linear_62_860" x1="37" y1="31.5" x2="105.5" y2="93.5" gradientUnits="userSpaceOnUse">
<stop offset="0.591913" stop-color="#FF03B8"/>
<stop offset="1" stop-color="#6D2AB1"/>
</linearGradient>
<linearGradient id="paint1_linear_62_860" x1="42.8003" y1="20.25" x2="91.8051" y2="41.533" gradientUnits="userSpaceOnUse">
<stop stop-color="#AD0B40" stop-opacity="0.878431"/>
<stop offset="1" stop-color="#FF1917"/>
</linearGradient>
<linearGradient id="paint2_linear_62_860" x1="42.8003" y1="20.25" x2="91.8051" y2="41.533" gradientUnits="userSpaceOnUse">
<stop stop-color="#AD0B40" stop-opacity="0.878431"/>
<stop offset="1" stop-color="#FF1917"/>
</linearGradient>
<linearGradient id="paint3_linear_62_860" x1="35.5" y1="63" x2="112.5" y2="64" gradientUnits="userSpaceOnUse">
<stop stop-color="#F442B7"/>
<stop offset="1" stop-color="#6A08C3"/>
</linearGradient>
<linearGradient id="paint4_linear_62_860" x1="42.8003" y1="20.25" x2="91.8051" y2="41.533" gradientUnits="userSpaceOnUse">
<stop stop-color="#AD0B40" stop-opacity="0.878431"/>
<stop offset="1" stop-color="#FF1917"/>
</linearGradient>
</defs>
</svg>
