<svg width="125" height="125" viewBox="0 0 125 125" fill="none" xmlns="http://www.w3.org/2000/svg">
<path d="M28.3203 31.25C27.0263 31.2531 25.7861 31.7685 24.8711 32.6836C23.956 33.5986 23.4406 34.8388 23.4375 36.1328V80.0781H16.6016C16.3426 80.0781 16.0942 80.181 15.911 80.3642C15.7279 80.5473 15.625 80.7957 15.625 81.0547V84.9609C15.625 88.7305 18.6914 91.7969 22.4609 91.7969H102.539C106.309 91.7969 109.375 88.7305 109.375 84.9609V81.0547C109.375 80.7957 109.272 80.5473 109.089 80.3642C108.906 80.181 108.657 80.0781 108.398 80.0781H101.562V36.1328C101.562 33.4453 99.3672 31.25 96.6797 31.25H28.3203ZM28.3203 33.2031H96.6797C98.3203 33.2031 99.6094 34.4922 99.6094 36.1328V80.0781H25.3906V36.1328C25.3906 34.4922 26.6797 33.2031 28.3203 33.2031ZM30.2734 37.1094C30.0144 37.1094 29.766 37.2123 29.5829 37.3954C29.3998 37.5785 29.2969 37.8269 29.2969 38.0859V75.1953C29.2969 75.4543 29.3998 75.7027 29.5829 75.8858C29.766 76.069 30.0144 76.1719 30.2734 76.1719H94.7266C94.9856 76.1719 95.234 76.069 95.4171 75.8858C95.6002 75.7027 95.7031 75.4543 95.7031 75.1953V38.0859C95.7031 37.8269 95.6002 37.5785 95.4171 37.3954C95.234 37.2123 94.9856 37.1094 94.7266 37.1094H30.2734ZM31.25 39.0625H93.75V74.2188H31.25V39.0625ZM45.957 41.0156C44.334 41.0156 42.9688 42.3242 42.9688 43.9453V69.3359C42.9688 70.9414 44.293 72.2656 45.8984 72.2656H81.0391C82.6465 72.2656 83.9688 70.9414 83.9688 69.3359V62.5H83.9844V55.6641L83.9688 55.6797V53.7109C83.9688 52.1055 82.6465 50.7812 81.0391 50.7812H80.0781V49.8047C80.0781 48.1992 78.7539 46.875 77.1484 46.875H57.6172C57.4881 46.8782 57.3596 46.8552 57.2397 46.8072C57.1198 46.7593 57.0108 46.6875 56.9195 46.5961C56.8282 46.5048 56.7563 46.3959 56.7084 46.2759C56.6605 46.156 56.6374 46.0276 56.6406 45.8984V43.9453C56.6406 42.3242 55.2754 41.0156 53.6523 41.0156H45.957ZM45.957 42.9688H53.6523C54.2578 42.9688 54.6875 43.4043 54.6875 43.9453V45.8984C54.6875 47.5039 56.0117 48.8281 57.6172 48.8281H77.1484C77.707 48.8281 78.125 49.2461 78.125 49.8047V50.7812H53.6953C52.0898 50.7812 50.7656 52.1055 50.7656 53.7109V69.3359C50.7656 69.8945 50.3477 70.3125 49.7891 70.3125H45.8984C45.7693 70.3157 45.6409 70.2927 45.521 70.2447C45.401 70.1968 45.2921 70.125 45.2007 70.0336C45.1094 69.9423 45.0376 69.8334 44.9897 69.7134C44.9417 69.5935 44.9187 69.4651 44.9219 69.3359V43.9453C44.9219 43.4043 45.3516 42.9688 45.957 42.9688ZM53.6953 52.7344H81.0391C81.5977 52.7344 82.0156 53.1523 82.0156 53.7109V54.6875H52.7188V53.7109C52.7188 53.1523 53.1387 52.7344 53.6953 52.7344ZM52.7344 56.6406H82.0156V60.5469H52.7344V56.6406ZM59.5703 57.6172C59.3113 57.6172 59.0629 57.7201 58.8798 57.9032C58.6966 58.0864 58.5938 58.3347 58.5938 58.5938C58.5938 58.8528 58.6966 59.1011 58.8798 59.2843C59.0629 59.4674 59.3113 59.5703 59.5703 59.5703C59.8293 59.5703 60.0777 59.4674 60.2608 59.2843C60.444 59.1011 60.5469 58.8528 60.5469 58.5938C60.5469 58.3347 60.444 58.0864 60.2608 57.9032C60.0777 57.7201 59.8293 57.6172 59.5703 57.6172ZM63.4766 57.6172C63.2176 57.6172 62.9692 57.7201 62.786 57.9032C62.6029 58.0864 62.5 58.3347 62.5 58.5938C62.5 58.8528 62.6029 59.1011 62.786 59.2843C62.9692 59.4674 63.2176 59.5703 63.4766 59.5703C63.7356 59.5703 63.984 59.4674 64.1671 59.2843C64.3502 59.1011 64.4531 58.8528 64.4531 58.5938C64.4531 58.3347 64.3502 58.0864 64.1671 57.9032C63.984 57.7201 63.7356 57.6172 63.4766 57.6172ZM67.3828 57.6172C67.1238 57.6172 66.8754 57.7201 66.6923 57.9032C66.5091 58.0864 66.4062 58.3347 66.4062 58.5938C66.4062 58.8528 66.5091 59.1011 66.6923 59.2843C66.8754 59.4674 67.1238 59.5703 67.3828 59.5703C67.6418 59.5703 67.8902 59.4674 68.0733 59.2843C68.2565 59.1011 68.3594 58.8528 68.3594 58.5938C68.3594 58.3347 68.2565 58.0864 68.0733 57.9032C67.8902 57.7201 67.6418 57.6172 67.3828 57.6172ZM71.2891 57.6172C71.0301 57.6172 70.7817 57.7201 70.5985 57.9032C70.4154 58.0864 70.3125 58.3347 70.3125 58.5938C70.3125 58.8528 70.4154 59.1011 70.5985 59.2843C70.7817 59.4674 71.0301 59.5703 71.2891 59.5703C71.5481 59.5703 71.7965 59.4674 71.9796 59.2843C72.1627 59.1011 72.2656 58.8528 72.2656 58.5938C72.2656 58.3347 72.1627 58.0864 71.9796 57.9032C71.7965 57.7201 71.5481 57.6172 71.2891 57.6172ZM75.1953 57.6172C74.9363 57.6172 74.6879 57.7201 74.5048 57.9032C74.3216 58.0864 74.2188 58.3347 74.2188 58.5938C74.2188 58.8528 74.3216 59.1011 74.5048 59.2843C74.6879 59.4674 74.9363 59.5703 75.1953 59.5703C75.4543 59.5703 75.7027 59.4674 75.8858 59.2843C76.069 59.1011 76.1719 58.8528 76.1719 58.5938C76.1719 58.3347 76.069 58.0864 75.8858 57.9032C75.7027 57.7201 75.4543 57.6172 75.1953 57.6172ZM52.7188 62.5H82.0156V66.4062H80.0781V68.3594H82.0156V69.3359C82.0156 69.8945 81.5977 70.3125 81.0391 70.3125H52.3105C52.4453 69.9785 52.7207 69.7148 52.7207 69.3359L52.7188 62.5ZM80.0781 66.4062V64.4531H78.125V66.4062H80.0781ZM78.125 66.4062H76.1719V68.3594H78.125V66.4062ZM76.1719 66.4062V64.4531H74.2188V66.4062H76.1719ZM74.2188 66.4062H72.2656V68.3594H74.2188V66.4062ZM72.2656 66.4062V64.4531H70.3125V66.4062H72.2656ZM70.3125 66.4062H68.3594V68.3594H70.3125V66.4062ZM68.3594 66.4062V64.4531H66.4062V66.4062H68.3594ZM66.4062 66.4062H64.4531V68.3594H66.4062V66.4062ZM64.4531 66.4062V64.4531H58.5938C57.5117 64.4531 56.6406 65.3242 56.6406 66.4062C56.6406 67.4883 57.5117 68.3594 58.5938 68.3594H62.5V66.4062H64.4531ZM58.5938 65.4297C58.8527 65.4297 59.1011 65.5326 59.2843 65.7157C59.4674 65.8989 59.5703 66.1473 59.5703 66.4062C59.5703 66.6652 59.4674 66.9136 59.2843 67.0968C59.1011 67.2799 58.8527 67.3828 58.5938 67.3828C58.3348 67.3828 58.0864 67.2799 57.9032 67.0968C57.7201 66.9136 57.6172 66.6652 57.6172 66.4062C57.6172 66.1473 57.7201 65.8989 57.9032 65.7157C58.0864 65.5326 58.3348 65.4297 58.5938 65.4297ZM17.5781 82.0312H50.8789V82.0352C51.1075 83.136 51.7079 84.1247 52.5792 84.8352C53.4505 85.5458 54.5397 85.935 55.6641 85.9375H71.2891C72.4137 85.9341 73.503 85.544 74.3743 84.8328C75.2455 84.1216 75.8457 83.1325 76.0742 82.0312H107.422V84.9609C107.422 87.6836 105.262 89.8438 102.539 89.8438H22.4609C21.8186 89.8479 21.1818 89.7244 20.5875 89.4805C19.9932 89.2366 19.4533 88.8771 18.999 88.4229C18.5448 87.9686 18.1853 87.4287 17.9414 86.8344C17.6974 86.2401 17.574 85.6033 17.5781 84.9609V82.0312ZM53.1348 82.0312H73.8184C73.3945 83.1211 72.5449 83.9844 71.2891 83.9844H55.6641C54.4082 83.9844 53.5586 83.1211 53.1348 82.0312Z" fill="url(#paint0_linear_62_854)" fill-opacity="0.8"/>
<path d="M28.3203 31.25C27.0263 31.2531 25.7861 31.7685 24.8711 32.6836C23.956 33.5986 23.4406 34.8388 23.4375 36.1328V80.0781H16.6016C16.3426 80.0781 16.0942 80.181 15.911 80.3642C15.7279 80.5473 15.625 80.7957 15.625 81.0547V84.9609C15.625 88.7305 18.6914 91.7969 22.4609 91.7969H102.539C106.309 91.7969 109.375 88.7305 109.375 84.9609V81.0547C109.375 80.7957 109.272 80.5473 109.089 80.3642C108.906 80.181 108.657 80.0781 108.398 80.0781H101.562V36.1328C101.562 33.4453 99.3672 31.25 96.6797 31.25H28.3203ZM28.3203 33.2031H96.6797C98.3203 33.2031 99.6094 34.4922 99.6094 36.1328V80.0781H25.3906V36.1328C25.3906 34.4922 26.6797 33.2031 28.3203 33.2031ZM30.2734 37.1094C30.0144 37.1094 29.766 37.2123 29.5829 37.3954C29.3998 37.5785 29.2969 37.8269 29.2969 38.0859V75.1953C29.2969 75.4543 29.3998 75.7027 29.5829 75.8858C29.766 76.069 30.0144 76.1719 30.2734 76.1719H94.7266C94.9856 76.1719 95.234 76.069 95.4171 75.8858C95.6002 75.7027 95.7031 75.4543 95.7031 75.1953V38.0859C95.7031 37.8269 95.6002 37.5785 95.4171 37.3954C95.234 37.2123 94.9856 37.1094 94.7266 37.1094H30.2734ZM31.25 39.0625H93.75V74.2188H31.25V39.0625ZM45.957 41.0156C44.334 41.0156 42.9688 42.3242 42.9688 43.9453V69.3359C42.9688 70.9414 44.293 72.2656 45.8984 72.2656H81.0391C82.6465 72.2656 83.9688 70.9414 83.9688 69.3359V62.5H83.9844V55.6641L83.9688 55.6797V53.7109C83.9688 52.1055 82.6465 50.7812 81.0391 50.7812H80.0781V49.8047C80.0781 48.1992 78.7539 46.875 77.1484 46.875H57.6172C57.4881 46.8782 57.3596 46.8552 57.2397 46.8072C57.1198 46.7593 57.0108 46.6875 56.9195 46.5961C56.8282 46.5048 56.7563 46.3959 56.7084 46.2759C56.6605 46.156 56.6374 46.0276 56.6406 45.8984V43.9453C56.6406 42.3242 55.2754 41.0156 53.6523 41.0156H45.957ZM45.957 42.9688H53.6523C54.2578 42.9688 54.6875 43.4043 54.6875 43.9453V45.8984C54.6875 47.5039 56.0117 48.8281 57.6172 48.8281H77.1484C77.707 48.8281 78.125 49.2461 78.125 49.8047V50.7812H53.6953C52.0898 50.7812 50.7656 52.1055 50.7656 53.7109V69.3359C50.7656 69.8945 50.3477 70.3125 49.7891 70.3125H45.8984C45.7693 70.3157 45.6409 70.2927 45.521 70.2447C45.401 70.1968 45.2921 70.125 45.2007 70.0336C45.1094 69.9423 45.0376 69.8334 44.9897 69.7134C44.9417 69.5935 44.9187 69.4651 44.9219 69.3359V43.9453C44.9219 43.4043 45.3516 42.9688 45.957 42.9688ZM53.6953 52.7344H81.0391C81.5977 52.7344 82.0156 53.1523 82.0156 53.7109V54.6875H52.7188V53.7109C52.7188 53.1523 53.1387 52.7344 53.6953 52.7344ZM52.7344 56.6406H82.0156V60.5469H52.7344V56.6406ZM59.5703 57.6172C59.3113 57.6172 59.0629 57.7201 58.8798 57.9032C58.6966 58.0864 58.5938 58.3347 58.5938 58.5938C58.5938 58.8528 58.6966 59.1011 58.8798 59.2843C59.0629 59.4674 59.3113 59.5703 59.5703 59.5703C59.8293 59.5703 60.0777 59.4674 60.2608 59.2843C60.444 59.1011 60.5469 58.8528 60.5469 58.5938C60.5469 58.3347 60.444 58.0864 60.2608 57.9032C60.0777 57.7201 59.8293 57.6172 59.5703 57.6172ZM63.4766 57.6172C63.2176 57.6172 62.9692 57.7201 62.786 57.9032C62.6029 58.0864 62.5 58.3347 62.5 58.5938C62.5 58.8528 62.6029 59.1011 62.786 59.2843C62.9692 59.4674 63.2176 59.5703 63.4766 59.5703C63.7356 59.5703 63.984 59.4674 64.1671 59.2843C64.3502 59.1011 64.4531 58.8528 64.4531 58.5938C64.4531 58.3347 64.3502 58.0864 64.1671 57.9032C63.984 57.7201 63.7356 57.6172 63.4766 57.6172ZM67.3828 57.6172C67.1238 57.6172 66.8754 57.7201 66.6923 57.9032C66.5091 58.0864 66.4062 58.3347 66.4062 58.5938C66.4062 58.8528 66.5091 59.1011 66.6923 59.2843C66.8754 59.4674 67.1238 59.5703 67.3828 59.5703C67.6418 59.5703 67.8902 59.4674 68.0733 59.2843C68.2565 59.1011 68.3594 58.8528 68.3594 58.5938C68.3594 58.3347 68.2565 58.0864 68.0733 57.9032C67.8902 57.7201 67.6418 57.6172 67.3828 57.6172ZM71.2891 57.6172C71.0301 57.6172 70.7817 57.7201 70.5985 57.9032C70.4154 58.0864 70.3125 58.3347 70.3125 58.5938C70.3125 58.8528 70.4154 59.1011 70.5985 59.2843C70.7817 59.4674 71.0301 59.5703 71.2891 59.5703C71.5481 59.5703 71.7965 59.4674 71.9796 59.2843C72.1627 59.1011 72.2656 58.8528 72.2656 58.5938C72.2656 58.3347 72.1627 58.0864 71.9796 57.9032C71.7965 57.7201 71.5481 57.6172 71.2891 57.6172ZM75.1953 57.6172C74.9363 57.6172 74.6879 57.7201 74.5048 57.9032C74.3216 58.0864 74.2188 58.3347 74.2188 58.5938C74.2188 58.8528 74.3216 59.1011 74.5048 59.2843C74.6879 59.4674 74.9363 59.5703 75.1953 59.5703C75.4543 59.5703 75.7027 59.4674 75.8858 59.2843C76.069 59.1011 76.1719 58.8528 76.1719 58.5938C76.1719 58.3347 76.069 58.0864 75.8858 57.9032C75.7027 57.7201 75.4543 57.6172 75.1953 57.6172ZM52.7188 62.5H82.0156V66.4062H80.0781V68.3594H82.0156V69.3359C82.0156 69.8945 81.5977 70.3125 81.0391 70.3125H52.3105C52.4453 69.9785 52.7207 69.7148 52.7207 69.3359L52.7188 62.5ZM80.0781 66.4062V64.4531H78.125V66.4062H80.0781ZM78.125 66.4062H76.1719V68.3594H78.125V66.4062ZM76.1719 66.4062V64.4531H74.2188V66.4062H76.1719ZM74.2188 66.4062H72.2656V68.3594H74.2188V66.4062ZM72.2656 66.4062V64.4531H70.3125V66.4062H72.2656ZM70.3125 66.4062H68.3594V68.3594H70.3125V66.4062ZM68.3594 66.4062V64.4531H66.4062V66.4062H68.3594ZM66.4062 66.4062H64.4531V68.3594H66.4062V66.4062ZM64.4531 66.4062V64.4531H58.5938C57.5117 64.4531 56.6406 65.3242 56.6406 66.4062C56.6406 67.4883 57.5117 68.3594 58.5938 68.3594H62.5V66.4062H64.4531ZM58.5938 65.4297C58.8527 65.4297 59.1011 65.5326 59.2843 65.7157C59.4674 65.8989 59.5703 66.1473 59.5703 66.4062C59.5703 66.6652 59.4674 66.9136 59.2843 67.0968C59.1011 67.2799 58.8527 67.3828 58.5938 67.3828C58.3348 67.3828 58.0864 67.2799 57.9032 67.0968C57.7201 66.9136 57.6172 66.6652 57.6172 66.4062C57.6172 66.1473 57.7201 65.8989 57.9032 65.7157C58.0864 65.5326 58.3348 65.4297 58.5938 65.4297ZM17.5781 82.0312H50.8789V82.0352C51.1075 83.136 51.7079 84.1247 52.5792 84.8352C53.4505 85.5458 54.5397 85.935 55.6641 85.9375H71.2891C72.4137 85.9341 73.503 85.544 74.3743 84.8328C75.2455 84.1216 75.8457 83.1325 76.0742 82.0312H107.422V84.9609C107.422 87.6836 105.262 89.8438 102.539 89.8438H22.4609C21.8186 89.8479 21.1818 89.7244 20.5875 89.4805C19.9932 89.2366 19.4533 88.8771 18.999 88.4229C18.5448 87.9686 18.1853 87.4287 17.9414 86.8344C17.6974 86.2401 17.574 85.6033 17.5781 84.9609V82.0312ZM53.1348 82.0312H73.8184C73.3945 83.1211 72.5449 83.9844 71.2891 83.9844H55.6641C54.4082 83.9844 53.5586 83.1211 53.1348 82.0312Z" fill="url(#paint1_linear_62_854)"/>
<defs>
<linearGradient id="paint0_linear_62_854" x1="27.5" y1="36.5" x2="109" y2="92" gradientUnits="userSpaceOnUse">
<stop offset="0.338542" stop-color="#FF12B3"/>
<stop offset="1" stop-color="#7D07F4"/>
</linearGradient>
<linearGradient id="paint1_linear_62_854" x1="28.4424" y1="31.25" x2="80.1973" y2="62.2706" gradientUnits="userSpaceOnUse">
<stop stop-color="#AD0B40" stop-opacity="0.878431"/>
<stop offset="1" stop-color="#FF1917"/>
</linearGradient>
</defs>
</svg>
