<svg width="198" height="198" viewBox="0 0 198 198" fill="none" xmlns="http://www.w3.org/2000/svg">
<path d="M79.5819 104.649C79.2181 100.227 80.4469 95.8204 83.0464 92.2246C85.646 88.6288 89.4451 86.0805 93.7584 85.0396C94.0331 80.3577 96.0716 75.9538 99.4633 72.7147C102.855 69.4757 107.348 67.642 112.038 67.583C116.727 67.524 121.265 69.2441 124.737 72.3969C128.209 75.5496 130.358 79.9009 130.75 84.5743L133.051 109.67C133.254 112.013 132.52 114.34 131.008 116.141C129.497 117.943 127.332 119.07 124.99 119.277L99.8759 121.369C97.4443 121.61 94.9891 121.368 92.6513 120.658C90.3134 119.947 88.1391 118.781 86.2533 117.228C84.3674 115.674 82.8072 113.763 81.6623 111.604C80.5174 109.446 79.8104 107.082 79.5819 104.649ZM99.1644 115.637L124.165 113.45C124.554 113.417 124.933 113.308 125.28 113.128C125.627 112.949 125.934 112.702 126.185 112.403C126.436 112.104 126.625 111.758 126.742 111.386C126.859 111.013 126.9 110.621 126.865 110.232L124.678 85.2316C124.352 81.9307 122.747 78.8884 120.206 76.7564C117.665 74.6243 114.391 73.572 111.084 73.8248C107.777 74.1354 104.725 75.7363 102.59 78.2807C100.455 80.8251 99.4084 84.1082 99.6768 87.4189C99.7124 87.8077 99.6707 88.1997 99.554 88.5723C99.4374 88.9449 99.2481 89.2907 98.9971 89.5898C98.7462 89.8889 98.4385 90.1354 98.0918 90.315C97.7451 90.4945 97.3663 90.6037 96.9772 90.6361C93.937 91.2541 91.2307 92.9694 89.3743 95.4549C87.5179 97.9405 86.6413 101.022 86.9117 104.113C87.1821 107.203 88.5805 110.086 90.8403 112.212C93.1001 114.337 96.0632 115.556 99.1644 115.637Z" fill="url(#paint0_linear_62_1023)" fill-opacity="0.4"/>
<path d="M79.5819 104.649C79.2181 100.227 80.4469 95.8204 83.0464 92.2246C85.646 88.6288 89.4451 86.0805 93.7584 85.0396C94.0331 80.3577 96.0716 75.9538 99.4633 72.7147C102.855 69.4757 107.348 67.642 112.038 67.583C116.727 67.524 121.265 69.2441 124.737 72.3969C128.209 75.5496 130.358 79.9009 130.75 84.5743L133.051 109.67C133.254 112.013 132.52 114.34 131.008 116.141C129.497 117.943 127.332 119.07 124.99 119.277L99.8759 121.369C97.4443 121.61 94.9891 121.368 92.6513 120.658C90.3134 119.947 88.1391 118.781 86.2533 117.228C84.3674 115.674 82.8072 113.763 81.6623 111.604C80.5174 109.446 79.8104 107.082 79.5819 104.649ZM99.1644 115.637L124.165 113.45C124.554 113.417 124.933 113.308 125.28 113.128C125.627 112.949 125.934 112.702 126.185 112.403C126.436 112.104 126.625 111.758 126.742 111.386C126.859 111.013 126.9 110.621 126.865 110.232L124.678 85.2316C124.352 81.9307 122.747 78.8884 120.206 76.7564C117.665 74.6243 114.391 73.572 111.084 73.8248C107.777 74.1354 104.725 75.7363 102.59 78.2807C100.455 80.8251 99.4084 84.1082 99.6768 87.4189C99.7124 87.8077 99.6707 88.1997 99.554 88.5723C99.4374 88.9449 99.2481 89.2907 98.9971 89.5898C98.7462 89.8889 98.4385 90.1354 98.0918 90.315C97.7451 90.4945 97.3663 90.6037 96.9772 90.6361C93.937 91.2541 91.2307 92.9694 89.3743 95.4549C87.5179 97.9405 86.6413 101.022 86.9117 104.113C87.1821 107.203 88.5805 110.086 90.8403 112.212C93.1001 114.337 96.0632 115.556 99.1644 115.637Z" fill="url(#paint1_linear_62_1023)"/>
<defs>
<linearGradient id="paint0_linear_62_1023" x1="90.9926" y1="82.6344" x2="130.974" y2="116.182" gradientUnits="userSpaceOnUse">
<stop stop-color="#A90D7D"/>
<stop offset="1" stop-color="#7128AE"/>
</linearGradient>
<linearGradient id="paint1_linear_62_1023" x1="104.792" y1="66.1891" x2="93.3709" y2="105.163" gradientUnits="userSpaceOnUse">
<stop stop-color="#AD0B40" stop-opacity="0.878431"/>
<stop offset="1" stop-color="#FF1917"/>
</linearGradient>
</defs>
</svg>
