<svg width="274" height="33" viewBox="0 0 274 33" fill="none" xmlns="http://www.w3.org/2000/svg">
<path d="M8.4 24.566C8.4 29.816 9.156 31.16 11.76 31.16H13.398C18.228 31.16 21.546 28.346 22.26 25.07H22.554C22.302 26.624 21.882 27.8 21.63 29.186C21.336 30.782 21.462 31.496 21.168 32.924H20.874C21.084 31.538 17.682 32 14.112 32H11.76C9.66 32 8.484 31.748 6.468 31.748C4.578 31.748 2.73 32 0.84 32V31.748C3.444 31.748 4.2 30.698 4.2 24.566V10.034C4.2 3.902 3.444 2.852 0.84 2.852V2.6C2.73 2.6 4.578 2.852 6.468 2.852C8.484 2.852 9.66 2.6 11.76 2.6H13.524C17.094 2.6 20.496 3.062 20.286 1.676H20.58C20.874 3.104 20.748 3.818 21.042 5.372C21.294 6.8 21.714 7.976 21.966 9.53H21.672C20.958 6.254 17.64 3.44 12.81 3.44H11.76C9.156 3.44 8.4 4.784 8.4 10.034V14.612C13.902 14.444 14.406 12.344 13.944 10.538L14.196 10.496C14.448 12.05 14.532 12.89 14.868 14.906C15.204 16.754 15.792 18.518 16.128 20.408L15.876 20.45C14.952 17.972 13.944 15.662 8.4 15.452V24.566ZM34.7924 27.086L32.2724 23.138L30.4244 25.868C27.5684 30.11 27.9464 31.832 30.4244 31.832V32C29.2484 32 27.7364 31.832 26.6024 31.832C25.4684 31.832 24.5024 32 23.4104 32V31.832C25.3004 31.832 27.2744 29.69 29.7104 26.078L31.9784 22.676L27.8204 16.082C25.4684 12.386 24.8384 11.168 22.9064 11.168V11C24.5024 11 25.3844 11.168 26.9384 11.168C28.4084 11.168 29.8364 11 31.3064 11V11.168C29.2484 11.168 30.3404 12.89 32.2304 15.872L34.9604 20.24L37.0604 17.132C39.9584 12.848 39.4964 11.168 37.0604 11.168V11C38.2364 11 39.7484 11.168 40.8824 11.168C41.9744 11.168 42.9824 11 44.0744 11V11.168C42.1424 11.168 40.1684 13.352 37.7744 16.922L35.2544 20.702L39.1184 26.876C41.5124 30.656 42.6044 31.832 44.5784 31.832V32C42.9824 32 42.1004 31.832 40.5044 31.832C39.0764 31.832 37.6064 32 36.2204 32V31.832C38.2364 31.832 36.6824 30.026 34.7924 27.086ZM52.8934 32.42C46.8454 32.42 43.9474 26.918 43.9474 21.5C43.9474 15.788 47.0134 10.58 53.2714 10.58C55.9594 10.58 58.4794 11.63 60.1594 13.772L58.8574 20.45H58.6054C58.1434 17.342 56.3374 11.294 52.3054 11.294C48.4834 11.294 47.6014 16.082 47.6014 19.022C47.6014 23.642 49.1134 30.656 54.9514 30.656C56.6314 30.656 57.7234 29.9 58.8574 28.766L59.0674 28.934C57.3874 31.076 55.7074 32.42 52.8934 32.42ZM70.959 32C69.069 32 68.019 31.748 66.213 31.748C64.533 31.748 62.895 32 61.215 32V31.748C63.525 31.748 64.197 30.698 64.197 24.566V10.034C64.197 5.666 64.197 4.448 61.887 4.448V4.196C64.533 3.86 66.633 2.39 67.725 0.499997H67.977V24.566C67.977 30.698 68.649 31.748 70.959 31.748V32ZM85.2246 20.114C85.2246 15.746 85.2246 14.528 82.9146 14.528V14.276C85.5606 13.94 87.6606 12.47 88.7526 10.58H89.0046V24.566C89.0046 30.698 89.6766 31.748 91.9866 31.748V32C89.7606 32 87.6606 32 85.6446 32.42H85.2246V26.834C83.6706 29.648 80.8566 32.42 77.6226 32.42C74.3046 32.42 72.8766 29.438 72.8766 25.238V20.114C72.8766 15.746 72.8766 14.528 70.5666 14.528V14.276C73.2126 13.94 75.3126 12.47 76.4046 10.58H76.6566V23.306C76.6566 27.296 78.0846 29.858 80.2686 29.858C81.6546 29.858 83.3766 28.766 85.2246 26.246V20.114ZM96.8504 15.41C96.8504 20.786 109.744 18.518 109.744 26.204C109.744 30.11 106.468 32.42 101.344 32.42C97.6904 32.42 95.7164 31.244 95.1284 31.244C95.0024 31.244 94.9184 31.328 94.9604 31.538H94.7504C94.4984 30.53 94.5824 29.984 94.3724 28.808C94.1624 27.842 93.8684 27.002 93.6584 25.868H93.9104C94.4564 28.304 98.1524 31.664 101.638 31.664C103.654 31.664 106.426 30.572 106.426 27.8C106.426 21.878 93.7424 24.062 93.7424 16.628C93.7424 12.932 96.8924 10.58 102.058 10.58C106.678 10.58 108.022 12.47 107.854 11.462H108.064C108.316 12.512 108.232 13.016 108.442 14.108C108.652 15.158 108.988 15.998 109.156 17.132H108.946C108.358 14.78 105.334 11.336 101.89 11.336C99.4964 11.336 96.8504 12.974 96.8504 15.41ZM112.888 6.632L115.87 2.684L118.852 6.632L115.87 10.58L112.888 6.632ZM121.162 32C119.272 32 118.222 31.748 116.416 31.748C114.736 31.748 113.098 32 111.418 32V31.748C113.728 31.748 114.4 30.698 114.4 24.566V20.114C114.4 15.746 114.4 14.528 112.09 14.528V14.276C114.736 13.94 116.836 12.47 117.928 10.58H118.18V24.566C118.18 30.698 118.852 31.748 121.162 31.748V32ZM131.742 32H131.028L124.56 16.292C122.88 12.218 122.46 11.168 120.36 11.168V11C122.04 11 122.964 11.168 124.56 11.168C126.114 11.168 127.878 11 129.348 11V11.168C127.248 11.168 127.164 12.554 128.508 15.914L133.002 27.044L136.32 18.77C138.252 13.94 137.916 11.168 135.228 11.168V11C135.732 11 136.236 11.042 136.782 11.042L137.916 11.126C138.462 11.126 138.966 11.168 139.47 11.168C140.604 11.168 141.696 11 142.872 11V11.168C140.856 11.168 138.924 14.192 137.286 18.266L131.742 32ZM157.571 19.106H145.055C145.055 23.726 146.609 30.656 152.405 30.656C154.085 30.656 155.177 29.9 156.311 28.766L156.521 28.934C154.841 31.076 153.161 32.42 150.347 32.42C144.299 32.42 141.401 26.918 141.401 21.5C141.401 15.788 144.467 10.58 150.725 10.58C155.387 10.58 157.571 14.948 157.571 19.106ZM145.055 18.602L153.875 18.014C153.875 15.452 153.371 11.252 149.969 11.252C146.147 11.252 145.139 15.494 145.055 18.602ZM169.322 17.3C169.322 9.362 173.564 2.18 182.216 2.18C190.868 2.18 195.11 9.362 195.11 17.3C195.11 25.238 190.868 32.42 182.216 32.42C173.564 32.42 169.322 25.238 169.322 17.3ZM173.606 13.898C173.606 19.526 176.252 31.454 183.644 31.454C189.188 31.454 190.826 25.154 190.826 20.702C190.826 15.074 188.18 3.146 180.788 3.146C175.244 3.146 173.606 9.446 173.606 13.898ZM198.671 11.252V10.412H199.343C199.469 3.986 202.493 2.18 205.433 2.18C206.987 2.18 207.995 2.684 208.541 3.23L207.533 9.908H207.365C206.861 5.498 204.509 3.818 202.745 3.818C200.225 3.818 201.065 7.178 203.039 10.412H207.071V11.252H203.123V24.566C203.123 30.698 203.795 31.748 206.105 31.748V32C204.215 32 203.165 31.748 201.359 31.748C199.679 31.748 198.041 32 196.361 32V31.748C198.671 31.748 199.343 30.698 199.343 24.566V11.252H198.671ZM211.263 11.252V10.412H211.935C212.061 3.986 215.085 2.18 218.025 2.18C219.579 2.18 220.587 2.684 221.133 3.23L220.125 9.908H219.957C219.453 5.498 217.101 3.818 215.337 3.818C212.817 3.818 213.657 7.178 215.631 10.412H219.663V11.252H215.715V24.566C215.715 30.698 216.387 31.748 218.697 31.748V32C216.807 32 215.757 31.748 213.951 31.748C212.271 31.748 210.633 32 208.953 32V31.748C211.263 31.748 211.935 30.698 211.935 24.566V11.252H211.263ZM236.69 19.106H224.174C224.174 23.726 225.728 30.656 231.524 30.656C233.204 30.656 234.296 29.9 235.43 28.766L235.64 28.934C233.96 31.076 232.28 32.42 229.466 32.42C223.418 32.42 220.52 26.918 220.52 21.5C220.52 15.788 223.586 10.58 229.844 10.58C234.506 10.58 236.69 14.948 236.69 19.106ZM224.174 18.602L232.994 18.014C232.994 15.452 232.49 11.252 229.088 11.252C225.266 11.252 224.258 15.494 224.174 18.602ZM248.105 32C246.215 32 245.165 31.748 243.359 31.748C241.679 31.748 240.041 32 238.361 32V31.748C240.671 31.748 241.343 30.698 241.343 24.566V20.114C241.343 15.746 241.343 14.528 239.033 14.528V14.276C241.679 13.94 243.779 12.47 244.871 10.58H245.123V19.4C245.879 15.326 248.315 10.58 252.011 10.58C253.817 10.58 255.287 11.756 256.001 13.772L254.993 20.45H254.825C254.321 16.04 252.683 13.562 250.457 13.562C248.063 13.562 245.669 16.418 245.123 21.878V24.566C245.123 30.698 245.795 31.748 248.105 31.748V32ZM260.872 15.41C260.872 20.786 273.766 18.518 273.766 26.204C273.766 30.11 270.49 32.42 265.366 32.42C261.712 32.42 259.738 31.244 259.15 31.244C259.024 31.244 258.94 31.328 258.982 31.538H258.772C258.52 30.53 258.604 29.984 258.394 28.808C258.184 27.842 257.89 27.002 257.68 25.868H257.932C258.478 28.304 262.174 31.664 265.66 31.664C267.676 31.664 270.448 30.572 270.448 27.8C270.448 21.878 257.764 24.062 257.764 16.628C257.764 12.932 260.914 10.58 266.08 10.58C270.7 10.58 272.044 12.47 271.876 11.462H272.086C272.338 12.512 272.254 13.016 272.464 14.108C272.674 15.158 273.01 15.998 273.178 17.132H272.968C272.38 14.78 269.356 11.336 265.912 11.336C263.518 11.336 260.872 12.974 260.872 15.41Z" fill="white"/>
</svg>
