<svg width="464" height="77" viewBox="0 0 464 77" fill="none" xmlns="http://www.w3.org/2000/svg">
<path d="M1.26513 38.5L30.3261 1H433.674L462.735 38.5L433.674 76H30.3261L1.26513 38.5Z" fill="#B40E0D" fill-opacity="0.15" stroke="#B40E0D" stroke-width="2"/>
<path d="M103.4 42.566C103.4 47.816 104.156 49.16 106.76 49.16H108.398C113.228 49.16 116.546 46.346 117.26 43.07H117.554C117.302 44.624 116.882 45.8 116.63 47.186C116.336 48.782 116.462 49.496 116.168 50.924H115.874C116.084 49.538 112.682 50 109.112 50H106.76C104.66 50 103.484 49.748 101.468 49.748C99.578 49.748 97.73 50 95.84 50V49.748C98.444 49.748 99.2 48.698 99.2 42.566V28.034C99.2 21.902 98.444 20.852 95.84 20.852V20.6C97.73 20.6 99.578 20.852 101.468 20.852C103.484 20.852 104.66 20.6 106.76 20.6H108.524C112.094 20.6 115.496 21.062 115.286 19.676H115.58C115.874 21.104 115.748 21.818 116.042 23.372C116.294 24.8 116.714 25.976 116.966 27.53H116.672C115.958 24.254 112.64 21.44 107.81 21.44H106.76C104.156 21.44 103.4 22.784 103.4 28.034V32.612C108.902 32.444 109.406 30.344 108.944 28.538L109.196 28.496C109.448 30.05 109.532 30.89 109.868 32.906C110.204 34.754 110.792 36.518 111.128 38.408L110.876 38.45C109.952 35.972 108.944 33.662 103.4 33.452V42.566ZM129.792 45.086L127.272 41.138L125.424 43.868C122.568 48.11 122.946 49.832 125.424 49.832V50C124.248 50 122.736 49.832 121.602 49.832C120.468 49.832 119.502 50 118.41 50V49.832C120.3 49.832 122.274 47.69 124.71 44.078L126.978 40.676L122.82 34.082C120.468 30.386 119.838 29.168 117.906 29.168V29C119.502 29 120.384 29.168 121.938 29.168C123.408 29.168 124.836 29 126.306 29V29.168C124.248 29.168 125.34 30.89 127.23 33.872L129.96 38.24L132.06 35.132C134.958 30.848 134.496 29.168 132.06 29.168V29C133.236 29 134.748 29.168 135.882 29.168C136.974 29.168 137.982 29 139.074 29V29.168C137.142 29.168 135.168 31.352 132.774 34.922L130.254 38.702L134.118 44.876C136.512 48.656 137.604 49.832 139.578 49.832V50C137.982 50 137.1 49.832 135.504 49.832C134.076 49.832 132.606 50 131.22 50V49.832C133.236 49.832 131.682 48.026 129.792 45.086ZM147.893 50.42C141.845 50.42 138.947 44.918 138.947 39.5C138.947 33.788 142.013 28.58 148.271 28.58C150.959 28.58 153.479 29.63 155.159 31.772L153.857 38.45H153.605C153.143 35.342 151.337 29.294 147.305 29.294C143.483 29.294 142.601 34.082 142.601 37.022C142.601 41.642 144.113 48.656 149.951 48.656C151.631 48.656 152.723 47.9 153.857 46.766L154.067 46.934C152.387 49.076 150.707 50.42 147.893 50.42ZM165.959 50C164.069 50 163.019 49.748 161.213 49.748C159.533 49.748 157.895 50 156.215 50V49.748C158.525 49.748 159.197 48.698 159.197 42.566V28.034C159.197 23.666 159.197 22.448 156.887 22.448V22.196C159.533 21.86 161.633 20.39 162.725 18.5H162.977V42.566C162.977 48.698 163.649 49.748 165.959 49.748V50ZM180.225 38.114C180.225 33.746 180.225 32.528 177.915 32.528V32.276C180.561 31.94 182.661 30.47 183.753 28.58H184.005V42.566C184.005 48.698 184.677 49.748 186.987 49.748V50C184.761 50 182.661 50 180.645 50.42H180.225V44.834C178.671 47.648 175.857 50.42 172.623 50.42C169.305 50.42 167.877 47.438 167.877 43.238V38.114C167.877 33.746 167.877 32.528 165.567 32.528V32.276C168.213 31.94 170.313 30.47 171.405 28.58H171.657V41.306C171.657 45.296 173.085 47.858 175.269 47.858C176.655 47.858 178.377 46.766 180.225 44.246V38.114ZM191.85 33.41C191.85 38.786 204.744 36.518 204.744 44.204C204.744 48.11 201.468 50.42 196.344 50.42C192.69 50.42 190.716 49.244 190.128 49.244C190.002 49.244 189.918 49.328 189.96 49.538H189.75C189.498 48.53 189.582 47.984 189.372 46.808C189.162 45.842 188.868 45.002 188.658 43.868H188.91C189.456 46.304 193.152 49.664 196.638 49.664C198.654 49.664 201.426 48.572 201.426 45.8C201.426 39.878 188.742 42.062 188.742 34.628C188.742 30.932 191.892 28.58 197.058 28.58C201.678 28.58 203.022 30.47 202.854 29.462H203.064C203.316 30.512 203.232 31.016 203.442 32.108C203.652 33.158 203.988 33.998 204.156 35.132H203.946C203.358 32.78 200.334 29.336 196.89 29.336C194.496 29.336 191.85 30.974 191.85 33.41ZM207.888 24.632L210.87 20.684L213.852 24.632L210.87 28.58L207.888 24.632ZM216.162 50C214.272 50 213.222 49.748 211.416 49.748C209.736 49.748 208.098 50 206.418 50V49.748C208.728 49.748 209.4 48.698 209.4 42.566V38.114C209.4 33.746 209.4 32.528 207.09 32.528V32.276C209.736 31.94 211.836 30.47 212.928 28.58H213.18V42.566C213.18 48.698 213.852 49.748 216.162 49.748V50ZM226.742 50H226.028L219.56 34.292C217.88 30.218 217.46 29.168 215.36 29.168V29C217.04 29 217.964 29.168 219.56 29.168C221.114 29.168 222.878 29 224.348 29V29.168C222.248 29.168 222.164 30.554 223.508 33.914L228.002 45.044L231.32 36.77C233.252 31.94 232.916 29.168 230.228 29.168V29C230.732 29 231.236 29.042 231.782 29.042L232.916 29.126C233.462 29.126 233.966 29.168 234.47 29.168C235.604 29.168 236.696 29 237.872 29V29.168C235.856 29.168 233.924 32.192 232.286 36.266L226.742 50ZM252.571 37.106H240.055C240.055 41.726 241.609 48.656 247.405 48.656C249.085 48.656 250.177 47.9 251.311 46.766L251.521 46.934C249.841 49.076 248.161 50.42 245.347 50.42C239.299 50.42 236.401 44.918 236.401 39.5C236.401 33.788 239.467 28.58 245.725 28.58C250.387 28.58 252.571 32.948 252.571 37.106ZM240.055 36.602L248.875 36.014C248.875 33.452 248.371 29.252 244.969 29.252C241.147 29.252 240.139 33.494 240.055 36.602ZM264.322 35.3C264.322 27.362 268.564 20.18 277.216 20.18C285.868 20.18 290.11 27.362 290.11 35.3C290.11 43.238 285.868 50.42 277.216 50.42C268.564 50.42 264.322 43.238 264.322 35.3ZM268.606 31.898C268.606 37.526 271.252 49.454 278.644 49.454C284.188 49.454 285.826 43.154 285.826 38.702C285.826 33.074 283.18 21.146 275.788 21.146C270.244 21.146 268.606 27.446 268.606 31.898ZM293.671 29.252V28.412H294.343C294.469 21.986 297.493 20.18 300.433 20.18C301.987 20.18 302.995 20.684 303.541 21.23L302.533 27.908H302.365C301.861 23.498 299.509 21.818 297.745 21.818C295.225 21.818 296.065 25.178 298.039 28.412H302.071V29.252H298.123V42.566C298.123 48.698 298.795 49.748 301.105 49.748V50C299.215 50 298.165 49.748 296.359 49.748C294.679 49.748 293.041 50 291.361 50V49.748C293.671 49.748 294.343 48.698 294.343 42.566V29.252H293.671ZM306.263 29.252V28.412H306.935C307.061 21.986 310.085 20.18 313.025 20.18C314.579 20.18 315.587 20.684 316.133 21.23L315.125 27.908H314.957C314.453 23.498 312.101 21.818 310.337 21.818C307.817 21.818 308.657 25.178 310.631 28.412H314.663V29.252H310.715V42.566C310.715 48.698 311.387 49.748 313.697 49.748V50C311.807 50 310.757 49.748 308.951 49.748C307.271 49.748 305.633 50 303.953 50V49.748C306.263 49.748 306.935 48.698 306.935 42.566V29.252H306.263ZM331.69 37.106H319.174C319.174 41.726 320.728 48.656 326.524 48.656C328.204 48.656 329.296 47.9 330.43 46.766L330.64 46.934C328.96 49.076 327.28 50.42 324.466 50.42C318.418 50.42 315.52 44.918 315.52 39.5C315.52 33.788 318.586 28.58 324.844 28.58C329.506 28.58 331.69 32.948 331.69 37.106ZM319.174 36.602L327.994 36.014C327.994 33.452 327.49 29.252 324.088 29.252C320.266 29.252 319.258 33.494 319.174 36.602ZM343.105 50C341.215 50 340.165 49.748 338.359 49.748C336.679 49.748 335.041 50 333.361 50V49.748C335.671 49.748 336.343 48.698 336.343 42.566V38.114C336.343 33.746 336.343 32.528 334.033 32.528V32.276C336.679 31.94 338.779 30.47 339.871 28.58H340.123V37.4C340.879 33.326 343.315 28.58 347.011 28.58C348.817 28.58 350.287 29.756 351.001 31.772L349.993 38.45H349.825C349.321 34.04 347.683 31.562 345.457 31.562C343.063 31.562 340.669 34.418 340.123 39.878V42.566C340.123 48.698 340.795 49.748 343.105 49.748V50ZM355.872 33.41C355.872 38.786 368.766 36.518 368.766 44.204C368.766 48.11 365.49 50.42 360.366 50.42C356.712 50.42 354.738 49.244 354.15 49.244C354.024 49.244 353.94 49.328 353.982 49.538H353.772C353.52 48.53 353.604 47.984 353.394 46.808C353.184 45.842 352.89 45.002 352.68 43.868H352.932C353.478 46.304 357.174 49.664 360.66 49.664C362.676 49.664 365.448 48.572 365.448 45.8C365.448 39.878 352.764 42.062 352.764 34.628C352.764 30.932 355.914 28.58 361.08 28.58C365.7 28.58 367.044 30.47 366.876 29.462H367.086C367.338 30.512 367.254 31.016 367.464 32.108C367.674 33.158 368.01 33.998 368.178 35.132H367.968C367.38 32.78 364.356 29.336 360.912 29.336C358.518 29.336 355.872 30.974 355.872 33.41Z" fill="white"/>
</svg>
