<svg width="157" height="143" viewBox="0 0 157 143" fill="none" xmlns="http://www.w3.org/2000/svg">
<path d="M4.8 130.752C4.8 133.752 5.232 134.52 6.72 134.52H7.656C10.416 134.52 12.312 132.912 12.72 131.04H12.888C12.744 131.928 12.504 132.6 12.36 133.392C12.192 134.304 12.264 134.712 12.096 135.528H11.928C12.048 134.736 10.104 135 8.064 135H6.72C5.52 135 4.848 134.856 3.696 134.856C2.616 134.856 1.56 135 0.48 135V134.856C1.968 134.856 2.4 134.256 2.4 130.752V122.448C2.4 118.944 1.968 118.344 0.48 118.344V118.2C1.56 118.2 2.616 118.344 3.696 118.344C4.848 118.344 5.52 118.2 6.72 118.2H7.728C9.768 118.2 11.712 118.464 11.592 117.672H11.76C11.928 118.488 11.856 118.896 12.024 119.784C12.168 120.6 12.408 121.272 12.552 122.16H12.384C11.976 120.288 10.08 118.68 7.32 118.68H6.72C5.232 118.68 4.8 119.448 4.8 122.448V125.064C7.944 124.968 8.232 123.768 7.968 122.736L8.112 122.712C8.256 123.6 8.304 124.08 8.496 125.232C8.688 126.288 9.024 127.296 9.216 128.376L9.072 128.4C8.544 126.984 7.968 125.664 4.8 125.544V130.752ZM19.8814 132.192L18.4414 129.936L17.3854 131.496C15.7534 133.92 15.9694 134.904 17.3854 134.904V135C16.7134 135 15.8494 134.904 15.2014 134.904C14.5534 134.904 14.0014 135 13.3774 135V134.904C14.4574 134.904 15.5854 133.68 16.9774 131.616L18.2734 129.672L15.8974 125.904C14.5534 123.792 14.1934 123.096 13.0894 123.096V123C14.0014 123 14.5054 123.096 15.3934 123.096C16.2334 123.096 17.0494 123 17.8894 123V123.096C16.7134 123.096 17.3374 124.08 18.4174 125.784L19.9774 128.28L21.1774 126.504C22.8334 124.056 22.5694 123.096 21.1774 123.096V123C21.8494 123 22.7134 123.096 23.3614 123.096C23.9854 123.096 24.5614 123 25.1854 123V123.096C24.0814 123.096 22.9534 124.344 21.5854 126.384L20.1454 128.544L22.3534 132.072C23.7214 134.232 24.3454 134.904 25.4734 134.904V135C24.5614 135 24.0574 134.904 23.1454 134.904C22.3294 134.904 21.4894 135 20.6974 135V134.904C21.8494 134.904 20.9614 133.872 19.8814 132.192ZM30.2248 135.24C26.7688 135.24 25.1128 132.096 25.1128 129C25.1128 125.736 26.8648 122.76 30.4408 122.76C31.9768 122.76 33.4168 123.36 34.3768 124.584L33.6328 128.4H33.4888C33.2248 126.624 32.1928 123.168 29.8888 123.168C27.7048 123.168 27.2008 125.904 27.2008 127.584C27.2008 130.224 28.0648 134.232 31.4008 134.232C32.3608 134.232 32.9848 133.8 33.6328 133.152L33.7528 133.248C32.7928 134.472 31.8328 135.24 30.2248 135.24ZM40.548 135C39.468 135 38.868 134.856 37.836 134.856C36.876 134.856 35.94 135 34.98 135V134.856C36.3 134.856 36.684 134.256 36.684 130.752V122.448C36.684 119.952 36.684 119.256 35.364 119.256V119.112C36.876 118.92 38.076 118.08 38.7 117H38.844V130.752C38.844 134.256 39.228 134.856 40.548 134.856V135ZM48.6998 128.208C48.6998 125.712 48.6998 125.016 47.3798 125.016V124.872C48.8918 124.68 50.0918 123.84 50.7158 122.76H50.8598V130.752C50.8598 134.256 51.2438 134.856 52.5638 134.856V135C51.2918 135 50.0918 135 48.9398 135.24H48.6998V132.048C47.8118 133.656 46.2038 135.24 44.3558 135.24C42.4598 135.24 41.6438 133.536 41.6438 131.136V128.208C41.6438 125.712 41.6438 125.016 40.3238 125.016V124.872C41.8358 124.68 43.0358 123.84 43.6598 122.76H43.8038V130.032C43.8038 132.312 44.6198 133.776 45.8678 133.776C46.6598 133.776 47.6438 133.152 48.6998 131.712V128.208ZM55.3431 125.52C55.3431 128.592 62.7111 127.296 62.7111 131.688C62.7111 133.92 60.8391 135.24 57.9111 135.24C55.8231 135.24 54.6951 134.568 54.3591 134.568C54.2871 134.568 54.2391 134.616 54.2631 134.736H54.1431C53.9991 134.16 54.0471 133.848 53.9271 133.176C53.8071 132.624 53.6391 132.144 53.5191 131.496H53.6631C53.9751 132.888 56.0871 134.808 58.0791 134.808C59.2311 134.808 60.8151 134.184 60.8151 132.6C60.8151 129.216 53.5671 130.464 53.5671 126.216C53.5671 124.104 55.3671 122.76 58.3191 122.76C60.9591 122.76 61.7271 123.84 61.6311 123.264H61.7511C61.8951 123.864 61.8471 124.152 61.9671 124.776C62.0871 125.376 62.2791 125.856 62.3751 126.504H62.2551C61.9191 125.16 60.1911 123.192 58.2231 123.192C56.8551 123.192 55.3431 124.128 55.3431 125.52ZM64.5075 120.504L66.2115 118.248L67.9155 120.504L66.2115 122.76L64.5075 120.504ZM69.2355 135C68.1555 135 67.5555 134.856 66.5235 134.856C65.5635 134.856 64.6275 135 63.6675 135V134.856C64.9875 134.856 65.3715 134.256 65.3715 130.752V128.208C65.3715 125.712 65.3715 125.016 64.0515 125.016V124.872C65.5635 124.68 66.7635 123.84 67.3875 122.76H67.5315V130.752C67.5315 134.256 67.9155 134.856 69.2355 134.856V135ZM75.2809 135H74.8729L71.1769 126.024C70.2169 123.696 69.9769 123.096 68.7769 123.096V123C69.7369 123 70.2649 123.096 71.1769 123.096C72.0649 123.096 73.0729 123 73.9129 123V123.096C72.7129 123.096 72.6649 123.888 73.4329 125.808L76.0009 132.168L77.8969 127.44C79.0009 124.68 78.8089 123.096 77.2729 123.096V123C77.5609 123 77.8489 123.024 78.1609 123.024L78.8089 123.072C79.1209 123.072 79.4089 123.096 79.6969 123.096C80.3449 123.096 80.9689 123 81.6409 123V123.096C80.4889 123.096 79.3849 124.824 78.4489 127.152L75.2809 135ZM90.0403 127.632H82.8883C82.8883 130.272 83.7763 134.232 87.0883 134.232C88.0483 134.232 88.6723 133.8 89.3203 133.152L89.4403 133.248C88.4803 134.472 87.5203 135.24 85.9123 135.24C82.4563 135.24 80.8003 132.096 80.8003 129C80.8003 125.736 82.5523 122.76 86.1283 122.76C88.7923 122.76 90.0403 125.256 90.0403 127.632ZM82.8883 127.344L87.9283 127.008C87.9283 125.544 87.6403 123.144 85.6963 123.144C83.5123 123.144 82.9363 125.568 82.8883 127.344ZM96.7556 126.6C96.7556 122.064 99.1796 117.96 104.124 117.96C109.068 117.96 111.492 122.064 111.492 126.6C111.492 131.136 109.068 135.24 104.124 135.24C99.1796 135.24 96.7556 131.136 96.7556 126.6ZM99.2036 124.656C99.2036 127.872 100.716 134.688 104.94 134.688C108.108 134.688 109.044 131.088 109.044 128.544C109.044 125.328 107.532 118.512 103.308 118.512C100.14 118.512 99.2036 122.112 99.2036 124.656ZM113.527 123.144V122.664H113.911C113.983 118.992 115.711 117.96 117.391 117.96C118.279 117.96 118.855 118.248 119.167 118.56L118.591 122.376H118.495C118.207 119.856 116.863 118.896 115.855 118.896C114.415 118.896 114.895 120.816 116.023 122.664H118.327V123.144H116.071V130.752C116.071 134.256 116.455 134.856 117.775 134.856V135C116.695 135 116.095 134.856 115.063 134.856C114.103 134.856 113.167 135 112.207 135V134.856C113.527 134.856 113.911 134.256 113.911 130.752V123.144H113.527ZM120.722 123.144V122.664H121.106C121.178 118.992 122.906 117.96 124.586 117.96C125.474 117.96 126.05 118.248 126.362 118.56L125.786 122.376H125.69C125.402 119.856 124.058 118.896 123.05 118.896C121.61 118.896 122.09 120.816 123.218 122.664H125.522V123.144H123.266V130.752C123.266 134.256 123.65 134.856 124.97 134.856V135C123.89 135 123.29 134.856 122.258 134.856C121.298 134.856 120.362 135 119.402 135V134.856C120.722 134.856 121.106 134.256 121.106 130.752V123.144H120.722ZM135.251 127.632H128.099C128.099 130.272 128.987 134.232 132.299 134.232C133.259 134.232 133.883 133.8 134.531 133.152L134.651 133.248C133.691 134.472 132.731 135.24 131.123 135.24C127.667 135.24 126.011 132.096 126.011 129C126.011 125.736 127.763 122.76 131.339 122.76C134.003 122.76 135.251 125.256 135.251 127.632ZM128.099 127.344L133.139 127.008C133.139 125.544 132.851 123.144 130.907 123.144C128.723 123.144 128.147 125.568 128.099 127.344ZM141.775 135C140.695 135 140.095 134.856 139.063 134.856C138.103 134.856 137.167 135 136.207 135V134.856C137.527 134.856 137.911 134.256 137.911 130.752V128.208C137.911 125.712 137.911 125.016 136.591 125.016V124.872C138.103 124.68 139.303 123.84 139.927 122.76H140.071V127.8C140.503 125.472 141.895 122.76 144.007 122.76C145.039 122.76 145.879 123.432 146.287 124.584L145.711 128.4H145.615C145.327 125.88 144.391 124.464 143.119 124.464C141.751 124.464 140.383 126.096 140.071 129.216V130.752C140.071 134.256 140.455 134.856 141.775 134.856V135ZM149.07 125.52C149.07 128.592 156.438 127.296 156.438 131.688C156.438 133.92 154.566 135.24 151.638 135.24C149.55 135.24 148.422 134.568 148.086 134.568C148.014 134.568 147.966 134.616 147.99 134.736H147.87C147.726 134.16 147.774 133.848 147.654 133.176C147.534 132.624 147.366 132.144 147.246 131.496H147.39C147.702 132.888 149.814 134.808 151.806 134.808C152.958 134.808 154.542 134.184 154.542 132.6C154.542 129.216 147.294 130.464 147.294 126.216C147.294 124.104 149.094 122.76 152.046 122.76C154.686 122.76 155.454 123.84 155.358 123.264H155.478C155.622 123.864 155.574 124.152 155.694 124.776C155.814 125.376 156.006 125.856 156.102 126.504H155.982C155.646 125.16 153.918 123.192 151.95 123.192C150.582 123.192 149.07 124.128 149.07 125.52Z" fill="white" fill-opacity="0.8"/>
<path d="M79 9.66833C77.8015 9.66833 76.6054 10.2154 75.9743 11.3119L65.8515 28.5319H46.1413C44.8791 28.5319 43.7406 29.1847 43.1095 30.2812C42.4783 31.3778 42.4783 32.6867 43.1095 33.78L45.2324 37.4531C45.6723 38.2149 46.6495 38.475 47.4113 38.0383C48.1731 37.5985 48.4364 36.6244 47.9965 35.8594L45.8736 32.1863L46.1351 31.7194H65.8453C67.0916 31.7194 68.2494 31.0473 68.8709 29.97L78.726 12.9056H78.8132H79.2614L89.1165 29.97C89.7381 31.0473 90.8959 31.7194 92.1422 31.7194H111.852L112.114 32.1863L109.991 35.8594C109.551 36.6212 109.814 37.5985 110.576 38.0383C110.838 38.185 111.108 38.25 111.379 38.25C111.931 38.25 112.471 37.9631 112.768 37.4531L114.884 33.78C115.519 32.6867 115.522 31.3778 114.89 30.2812C114.259 29.1847 113.121 28.5319 111.859 28.5319L91.8869 28.3762L82.0256 11.3119C81.3945 10.2154 80.1985 9.66833 79 9.66833ZM55.0937 35.0625C54.214 35.0625 53.5 35.7765 53.5 36.6562C53.5 37.536 54.214 38.25 55.0937 38.25H102.906C103.786 38.25 104.5 37.536 104.5 36.6562C104.5 35.7765 103.786 35.0625 102.906 35.0625H55.0937ZM50.3125 41.4375C47.6764 41.4375 45.5312 43.5827 45.5312 46.2188V55.7812C45.5312 58.4173 47.6764 60.5625 50.3125 60.5625H53.5C56.136 60.5625 58.2812 58.4173 58.2812 55.7812V46.2188C58.2812 43.5827 56.136 41.4375 53.5 41.4375H50.3125ZM66.25 41.4375C63.6139 41.4375 61.4687 43.5827 61.4687 46.2188V58.9688C61.4687 59.8485 62.1827 60.5625 63.0625 60.5625C63.9422 60.5625 64.6562 59.8485 64.6562 58.9688V51H69.4375C70.3172 51 71.0312 50.286 71.0312 49.4062C71.0312 48.5265 70.3172 47.8125 69.4375 47.8125H64.6562V46.2188C64.6562 45.3422 65.3702 44.625 66.25 44.625H69.4375C70.3172 44.625 71.0312 43.911 71.0312 43.0312C71.0312 42.1515 70.3172 41.4375 69.4375 41.4375H66.25ZM79 41.4375C76.3639 41.4375 74.2187 43.5827 74.2187 46.2188V58.9688C74.2187 59.8485 74.9327 60.5625 75.8125 60.5625C76.6922 60.5625 77.4062 59.8485 77.4062 58.9688V51H82.1875C83.0672 51 83.7812 50.286 83.7812 49.4062C83.7812 48.5265 83.0672 47.8125 82.1875 47.8125H77.4062V46.2188C77.4062 45.3422 78.1202 44.625 79 44.625H82.1875C83.0672 44.625 83.7812 43.911 83.7812 43.0312C83.7812 42.1515 83.0672 41.4375 82.1875 41.4375H79ZM91.75 41.4375C89.1139 41.4375 86.9687 43.5827 86.9687 46.2188V55.7812C86.9687 58.4173 89.1139 60.5625 91.75 60.5625H94.9375C95.8172 60.5625 96.5312 59.8485 96.5312 58.9688C96.5312 58.089 95.8172 57.375 94.9375 57.375H91.75C90.8702 57.375 90.1562 56.6578 90.1562 55.7812V52.5938H94.9375C95.8172 52.5938 96.5312 51.8797 96.5312 51C96.5312 50.1203 95.8172 49.4062 94.9375 49.4062H90.1562V46.2188C90.1562 45.3422 90.8702 44.625 91.75 44.625H94.9375C95.8172 44.625 96.5312 43.911 96.5312 43.0312C96.5312 42.1515 95.8172 41.4375 94.9375 41.4375H91.75ZM104.5 41.4375C101.864 41.4375 99.7187 43.5827 99.7187 46.2188V51V58.9688C99.7187 59.8485 100.433 60.5625 101.312 60.5625C102.192 60.5625 102.906 59.8485 102.906 58.9688V52.5938H103.734L109.63 59.9648C109.945 60.3569 110.41 60.5625 110.875 60.5625C111.222 60.5625 111.578 60.4466 111.871 60.2139C112.556 59.6624 112.668 58.6612 112.12 57.9727L107.806 52.5813C110.388 52.5144 112.469 50.4071 112.469 47.8125V46.2188C112.469 43.5827 110.324 41.4375 107.687 41.4375H104.5ZM50.3125 44.625H53.5C54.3797 44.625 55.0937 45.3422 55.0937 46.2188V55.7812C55.0937 56.6578 54.3797 57.375 53.5 57.375H50.3125C49.4327 57.375 48.7187 56.6578 48.7187 55.7812V46.2188C48.7187 45.3422 49.4327 44.625 50.3125 44.625ZM104.5 44.625H107.687C108.567 44.625 109.281 45.3422 109.281 46.2188V47.8125C109.281 48.6891 108.567 49.4062 107.687 49.4062H102.906V46.2188C102.906 45.3422 103.62 44.625 104.5 44.625ZM55.0937 63.75C54.214 63.75 53.5 64.464 53.5 65.3438C53.5 66.2235 54.214 66.9375 55.0937 66.9375H102.906C103.786 66.9375 104.5 66.2235 104.5 65.3438C104.5 64.464 103.786 63.75 102.906 63.75H55.0937ZM46.8137 63.7562C46.1973 63.6782 45.5685 63.9731 45.2386 64.5469L43.1157 68.22C42.4814 69.3133 42.4846 70.6222 43.1157 71.7188C43.7468 72.8153 44.8791 73.4681 46.1413 73.4681L66.1192 73.6238L75.9743 90.6881C76.6054 91.7846 77.7377 92.4375 79 92.4375C80.2622 92.4375 81.3945 91.7846 82.0256 90.6881L92.1484 73.4681H111.859C113.121 73.4681 114.253 72.8153 114.884 71.7188C115.515 70.6222 115.519 69.3133 114.884 68.22L112.761 64.5469C112.321 63.7851 111.341 63.5186 110.582 63.9617C109.821 64.4015 109.564 65.3756 110.003 66.1406L112.126 69.8137L111.859 70.2806H92.1546C90.9083 70.2806 89.7443 70.9527 89.1228 72.03L79.2739 89.0944H79.1805C79.0275 89.0944 78.7385 89.0944 78.7385 89.0944L68.8834 72.03C68.2618 70.9527 67.1041 70.2806 65.8577 70.2806H46.1413L45.8736 69.8137L47.9965 66.1406C48.4364 65.3788 48.1794 64.4015 47.4176 63.9617C47.2271 63.8501 47.0191 63.7822 46.8137 63.7562Z" fill="url(#paint0_linear_62_856)" fill-opacity="0.8"/>
<path d="M79 9.66833C77.8015 9.66833 76.6054 10.2154 75.9743 11.3119L65.8515 28.5319H46.1413C44.8791 28.5319 43.7406 29.1847 43.1095 30.2812C42.4783 31.3778 42.4783 32.6867 43.1095 33.78L45.2324 37.4531C45.6723 38.2149 46.6495 38.475 47.4113 38.0383C48.1731 37.5985 48.4364 36.6244 47.9965 35.8594L45.8736 32.1863L46.1351 31.7194H65.8453C67.0916 31.7194 68.2494 31.0473 68.8709 29.97L78.726 12.9056H78.8132H79.2614L89.1165 29.97C89.7381 31.0473 90.8959 31.7194 92.1422 31.7194H111.852L112.114 32.1863L109.991 35.8594C109.551 36.6212 109.814 37.5985 110.576 38.0383C110.838 38.185 111.108 38.25 111.379 38.25C111.931 38.25 112.471 37.9631 112.768 37.4531L114.884 33.78C115.519 32.6867 115.522 31.3778 114.89 30.2812C114.259 29.1847 113.121 28.5319 111.859 28.5319L91.8869 28.3762L82.0256 11.3119C81.3945 10.2154 80.1985 9.66833 79 9.66833ZM55.0937 35.0625C54.214 35.0625 53.5 35.7765 53.5 36.6562C53.5 37.536 54.214 38.25 55.0937 38.25H102.906C103.786 38.25 104.5 37.536 104.5 36.6562C104.5 35.7765 103.786 35.0625 102.906 35.0625H55.0937ZM50.3125 41.4375C47.6764 41.4375 45.5312 43.5827 45.5312 46.2188V55.7812C45.5312 58.4173 47.6764 60.5625 50.3125 60.5625H53.5C56.136 60.5625 58.2812 58.4173 58.2812 55.7812V46.2188C58.2812 43.5827 56.136 41.4375 53.5 41.4375H50.3125ZM66.25 41.4375C63.6139 41.4375 61.4687 43.5827 61.4687 46.2188V58.9688C61.4687 59.8485 62.1827 60.5625 63.0625 60.5625C63.9422 60.5625 64.6562 59.8485 64.6562 58.9688V51H69.4375C70.3172 51 71.0312 50.286 71.0312 49.4062C71.0312 48.5265 70.3172 47.8125 69.4375 47.8125H64.6562V46.2188C64.6562 45.3422 65.3702 44.625 66.25 44.625H69.4375C70.3172 44.625 71.0312 43.911 71.0312 43.0312C71.0312 42.1515 70.3172 41.4375 69.4375 41.4375H66.25ZM79 41.4375C76.3639 41.4375 74.2187 43.5827 74.2187 46.2188V58.9688C74.2187 59.8485 74.9327 60.5625 75.8125 60.5625C76.6922 60.5625 77.4062 59.8485 77.4062 58.9688V51H82.1875C83.0672 51 83.7812 50.286 83.7812 49.4062C83.7812 48.5265 83.0672 47.8125 82.1875 47.8125H77.4062V46.2188C77.4062 45.3422 78.1202 44.625 79 44.625H82.1875C83.0672 44.625 83.7812 43.911 83.7812 43.0312C83.7812 42.1515 83.0672 41.4375 82.1875 41.4375H79ZM91.75 41.4375C89.1139 41.4375 86.9687 43.5827 86.9687 46.2188V55.7812C86.9687 58.4173 89.1139 60.5625 91.75 60.5625H94.9375C95.8172 60.5625 96.5312 59.8485 96.5312 58.9688C96.5312 58.089 95.8172 57.375 94.9375 57.375H91.75C90.8702 57.375 90.1562 56.6578 90.1562 55.7812V52.5938H94.9375C95.8172 52.5938 96.5312 51.8797 96.5312 51C96.5312 50.1203 95.8172 49.4062 94.9375 49.4062H90.1562V46.2188C90.1562 45.3422 90.8702 44.625 91.75 44.625H94.9375C95.8172 44.625 96.5312 43.911 96.5312 43.0312C96.5312 42.1515 95.8172 41.4375 94.9375 41.4375H91.75ZM104.5 41.4375C101.864 41.4375 99.7187 43.5827 99.7187 46.2188V51V58.9688C99.7187 59.8485 100.433 60.5625 101.312 60.5625C102.192 60.5625 102.906 59.8485 102.906 58.9688V52.5938H103.734L109.63 59.9648C109.945 60.3569 110.41 60.5625 110.875 60.5625C111.222 60.5625 111.578 60.4466 111.871 60.2139C112.556 59.6624 112.668 58.6612 112.12 57.9727L107.806 52.5813C110.388 52.5144 112.469 50.4071 112.469 47.8125V46.2188C112.469 43.5827 110.324 41.4375 107.687 41.4375H104.5ZM50.3125 44.625H53.5C54.3797 44.625 55.0937 45.3422 55.0937 46.2188V55.7812C55.0937 56.6578 54.3797 57.375 53.5 57.375H50.3125C49.4327 57.375 48.7187 56.6578 48.7187 55.7812V46.2188C48.7187 45.3422 49.4327 44.625 50.3125 44.625ZM104.5 44.625H107.687C108.567 44.625 109.281 45.3422 109.281 46.2188V47.8125C109.281 48.6891 108.567 49.4062 107.687 49.4062H102.906V46.2188C102.906 45.3422 103.62 44.625 104.5 44.625ZM55.0937 63.75C54.214 63.75 53.5 64.464 53.5 65.3438C53.5 66.2235 54.214 66.9375 55.0937 66.9375H102.906C103.786 66.9375 104.5 66.2235 104.5 65.3438C104.5 64.464 103.786 63.75 102.906 63.75H55.0937ZM46.8137 63.7562C46.1973 63.6782 45.5685 63.9731 45.2386 64.5469L43.1157 68.22C42.4814 69.3133 42.4846 70.6222 43.1157 71.7188C43.7468 72.8153 44.8791 73.4681 46.1413 73.4681L66.1192 73.6238L75.9743 90.6881C76.6054 91.7846 77.7377 92.4375 79 92.4375C80.2622 92.4375 81.3945 91.7846 82.0256 90.6881L92.1484 73.4681H111.859C113.121 73.4681 114.253 72.8153 114.884 71.7188C115.515 70.6222 115.519 69.3133 114.884 68.22L112.761 64.5469C112.321 63.7851 111.341 63.5186 110.582 63.9617C109.821 64.4015 109.564 65.3756 110.003 66.1406L112.126 69.8137L111.859 70.2806H92.1546C90.9083 70.2806 89.7443 70.9527 89.1228 72.03L79.2739 89.0944H79.1805C79.0275 89.0944 78.7385 89.0944 78.7385 89.0944L68.8834 72.03C68.2618 70.9527 67.1041 70.2806 65.8577 70.2806H46.1413L45.8736 69.8137L47.9965 66.1406C48.4364 65.3788 48.1794 64.4015 47.4176 63.9617C47.2271 63.8501 47.0191 63.7822 46.8137 63.7562Z" fill="url(#paint1_linear_62_856)"/>
<defs>
<linearGradient id="paint0_linear_62_856" x1="43" y1="32.5004" x2="104" y2="79.5004" gradientUnits="userSpaceOnUse">
<stop offset="0.348958" stop-color="#FF12B3"/>
<stop offset="1" stop-color="#6D2AB1"/>
</linearGradient>
<linearGradient id="paint1_linear_62_856" x1="52.5791" y1="9.66833" x2="101.492" y2="26.305" gradientUnits="userSpaceOnUse">
<stop stop-color="#AD0B40" stop-opacity="0.878431"/>
<stop offset="1" stop-color="#FF1917"/>
</linearGradient>
</defs>
</svg>
