<svg width="113" height="31" viewBox="0 0 113 31" fill="none" xmlns="http://www.w3.org/2000/svg">
<path d="M17.514 22.146C17.514 19.08 16.296 18.198 13.314 18.198V17.946C15.078 17.946 16.8 18.198 18.564 18.198C20.412 18.198 22.302 17.946 24.15 17.946V18.198C21.084 18.198 21.042 27.648 20.58 30H20.286C20.328 29.454 19.95 29.202 19.446 29.202C17.598 29.202 15.12 30.42 12.516 30.42C4.284 30.42 0.42 22.608 0.42 15.3C0.42 7.698 4.452 0.179998 12.894 0.179998C15.246 0.179998 17.514 1.104 19.278 1.104C19.614 1.104 19.908 1.02 19.824 0.599998H20.118C20.37 1.818 20.37 3.078 20.58 4.338C20.832 5.724 21.294 7.068 21.504 8.454H21.21C20.412 4.8 14.784 1.23 11.172 1.23C5.838 1.23 4.83 7.698 4.83 11.814C4.83 17.022 6.216 29.622 13.356 29.622C17.43 29.622 17.514 25.212 17.514 22.146ZM37.7885 30.42V25.758C36.9485 28.656 34.8905 30.42 31.4465 30.42C28.9265 30.42 25.8185 29.454 25.8185 25.422C25.8185 20.76 30.0185 17.778 34.8485 17.778C35.6885 17.778 36.8225 17.862 37.7885 18.156V17.694C37.7885 13.452 35.9825 11.142 33.5885 11.142C31.8665 11.142 29.7665 12.444 27.9185 15.09H27.7085C29.2625 11.184 32.0765 8.58 35.7305 8.58C39.3845 8.58 41.5685 11.226 41.5685 15.762V22.566C41.5685 28.698 42.2405 29.748 44.5505 29.748V30C42.3245 30 40.2245 30 38.2085 30.42H37.7885ZM37.7885 24.54V20.34C37.7465 18.996 36.9065 18.198 35.3525 18.198C32.6225 18.198 29.7245 20.676 29.6825 24.498C29.6405 28.278 32.4965 29.076 33.7145 29.076C35.6885 29.076 37.3265 26.976 37.7885 24.54ZM55.9883 30C54.0983 30 53.0483 29.748 51.2423 29.748C49.5623 29.748 47.9243 30 46.2443 30V29.748C48.5543 29.748 49.2263 28.698 49.2263 22.566V18.114C49.2263 13.746 49.2263 12.528 46.9163 12.528V12.276C49.5623 11.94 51.6623 10.47 52.7543 8.58H53.0063V14.544C54.1823 11.604 55.6523 8.58 59.0123 8.58C61.8263 8.58 63.2963 10.722 63.6743 13.956C64.8083 11.226 66.2783 8.58 69.4283 8.58C72.7463 8.58 74.1743 11.562 74.1743 15.762V22.566C74.1743 28.698 74.8463 29.748 77.1563 29.748V30C75.2663 30 74.2163 29.748 72.4103 29.748C70.7303 29.748 69.0923 30 67.4123 30V29.748C69.7223 29.748 70.3943 28.698 70.3943 22.566V17.694C70.3943 13.704 68.9663 11.058 67.2023 11.058C66.1103 11.058 64.8503 12.108 63.7163 14.46C63.7583 14.88 63.7583 15.3 63.7583 15.762V22.566C63.7583 28.698 64.4303 29.748 66.7403 29.748V30C64.8503 30 63.8003 29.748 61.9943 29.748C60.3143 29.748 58.6763 30 56.9963 30V29.748C59.3063 29.748 59.9783 28.698 59.9783 22.566V17.694C59.9783 13.704 58.5503 11.058 56.7863 11.058C55.5683 11.058 54.2243 12.276 53.0063 15.09V22.566C53.0063 28.698 53.6783 29.748 55.9883 29.748V30ZM94.2014 17.106H81.6854C81.6854 21.726 83.2394 28.656 89.0354 28.656C90.7154 28.656 91.8074 27.9 92.9414 26.766L93.1514 26.934C91.4714 29.076 89.7914 30.42 86.9774 30.42C80.9294 30.42 78.0314 24.918 78.0314 19.5C78.0314 13.788 81.0974 8.58 87.3554 8.58C92.0174 8.58 94.2014 12.948 94.2014 17.106ZM81.6854 16.602L90.5054 16.014C90.5054 13.452 90.0014 9.252 86.5994 9.252C82.7774 9.252 81.7694 13.494 81.6854 16.602ZM99.6804 13.41C99.6804 18.786 112.574 16.518 112.574 24.204C112.574 28.11 109.298 30.42 104.174 30.42C100.52 30.42 98.5464 29.244 97.9584 29.244C97.8324 29.244 97.7484 29.328 97.7904 29.538H97.5804C97.3284 28.53 97.4124 27.984 97.2024 26.808C96.9924 25.842 96.6984 25.002 96.4884 23.868H96.7404C97.2864 26.304 100.982 29.664 104.468 29.664C106.484 29.664 109.256 28.572 109.256 25.8C109.256 19.878 96.5724 22.062 96.5724 14.628C96.5724 10.932 99.7224 8.58 104.888 8.58C109.508 8.58 110.852 10.47 110.684 9.462H110.894C111.146 10.512 111.062 11.016 111.272 12.108C111.482 13.158 111.818 13.998 111.986 15.132H111.776C111.188 12.78 108.164 9.336 104.72 9.336C102.326 9.336 99.6804 10.974 99.6804 13.41Z" fill="white"/>
</svg>
