<svg width="176" height="153" viewBox="0 0 176 153" fill="none" xmlns="http://www.w3.org/2000/svg">
<path d="M6.72 145C5.52 145 4.848 144.856 3.696 144.856C2.616 144.856 1.56 145 0.48 145V144.856C1.968 144.856 2.4 144.256 2.4 140.752V132.448C2.4 128.944 1.968 128.344 0.48 128.344V128.2C1.56 128.2 2.616 128.344 3.696 128.344C4.848 128.344 5.52 128.2 6.72 128.2V128.344C5.232 128.344 4.8 128.944 4.8 132.448V140.752C4.8 144.256 5.232 144.856 6.72 144.856V145ZM13.2433 145C12.1633 145 11.5633 144.856 10.5313 144.856C9.57131 144.856 8.63531 145 7.67531 145V144.856C8.99531 144.856 9.37931 144.256 9.37931 140.752V138.208C9.37931 135.712 9.37931 135.016 8.05931 135.016V134.872C9.57131 134.68 10.7713 133.84 11.3953 132.76H11.5393V135.952C12.4273 134.344 14.0353 132.76 15.8833 132.76C17.7793 132.76 18.5953 134.464 18.5953 136.864V140.752C18.5953 144.256 18.9793 144.856 20.2993 144.856V145C19.2193 145 18.6193 144.856 17.5873 144.856C16.6273 144.856 15.6913 145 14.7313 145V144.856C16.0513 144.856 16.4353 144.256 16.4353 140.752V137.968C16.4353 135.688 15.6193 134.224 14.3713 134.224C13.5793 134.224 12.5953 134.848 11.5393 136.288V140.752C11.5393 144.256 11.9233 144.856 13.2433 144.856V145ZM23.0931 135.52C23.0931 138.592 30.4611 137.296 30.4611 141.688C30.4611 143.92 28.5891 145.24 25.6611 145.24C23.5731 145.24 22.4451 144.568 22.1091 144.568C22.0371 144.568 21.9891 144.616 22.0131 144.736H21.8931C21.7491 144.16 21.7971 143.848 21.6771 143.176C21.5571 142.624 21.3891 142.144 21.2691 141.496H21.4131C21.7251 142.888 23.8371 144.808 25.8291 144.808C26.9811 144.808 28.5651 144.184 28.5651 142.6C28.5651 139.216 21.3171 140.464 21.3171 136.216C21.3171 134.104 23.1171 132.76 26.0691 132.76C28.7091 132.76 29.4771 133.84 29.3811 133.264H29.5011C29.6451 133.864 29.5971 134.152 29.7171 134.776C29.8371 135.376 30.0291 135.856 30.1251 136.504H30.0051C29.6691 135.16 27.9411 133.192 25.9731 133.192C24.6051 133.192 23.0931 134.128 23.0931 135.52ZM37.6815 142.408L37.7775 142.432C37.5135 143.632 36.9855 145.24 34.8975 145.24C32.3295 145.24 32.7375 142.816 32.7375 139.576V136.192C32.7375 133.696 32.7375 133 31.4175 133V132.856C32.9295 132.664 34.1295 131.824 34.7535 130.744H34.8975V132.664H37.5375V133.144H34.8975V139.576C34.8975 142 34.9695 144.088 36.0735 144.088C36.8895 144.088 37.4415 142.96 37.6815 142.408ZM45.57 145.24V142.576C45.09 144.232 43.914 145.24 41.946 145.24C40.506 145.24 38.73 144.688 38.73 142.384C38.73 139.72 41.13 138.016 43.89 138.016C44.37 138.016 45.018 138.064 45.57 138.232V137.968C45.57 135.544 44.538 134.224 43.17 134.224C42.186 134.224 40.986 134.968 39.93 136.48H39.81C40.698 134.248 42.306 132.76 44.394 132.76C46.482 132.76 47.73 134.272 47.73 136.864V140.752C47.73 144.256 48.114 144.856 49.434 144.856V145C48.162 145 46.962 145 45.81 145.24H45.57ZM45.57 141.88V139.48C45.546 138.712 45.066 138.256 44.178 138.256C42.618 138.256 40.962 139.672 40.938 141.856C40.914 144.016 42.546 144.472 43.242 144.472C44.37 144.472 45.306 143.272 45.57 141.88ZM59.4259 144.856C58.4179 144.856 57.4099 145 56.4019 145V144.856C58.6099 144.88 58.3219 142.336 58.3219 140.752V132.448C58.3219 130.864 58.6099 128.32 56.4019 128.344V128.2C57.4819 128.2 58.5379 128.344 59.6179 128.344C60.9859 128.344 62.3539 127.96 63.7459 127.96C67.0099 127.96 70.3459 129.04 70.3459 132.88C70.3459 137.464 64.2019 138.112 60.7219 138.136V140.752C60.7219 142.336 60.4339 144.88 62.6419 144.856V145C61.5619 145 60.5059 144.856 59.4259 144.856ZM60.7219 137.824L61.2259 137.848C64.0339 137.848 67.7299 136.744 67.7299 133.336C67.7299 130.6 65.9059 128.248 63.0739 128.248C60.6739 128.248 60.7219 130.6 60.7219 132.448V137.824ZM76.6418 145C75.5618 145 74.9618 144.856 73.9298 144.856C72.9698 144.856 72.0338 145 71.0738 145V144.856C72.3938 144.856 72.7778 144.256 72.7778 140.752V132.448C72.7778 129.952 72.7778 129.256 71.4578 129.256V129.112C72.9698 128.92 74.1698 128.08 74.7938 127H74.9378V140.752C74.9378 144.256 75.3218 144.856 76.6418 144.856V145ZM83.8434 145.24V142.576C83.3634 144.232 82.1874 145.24 80.2194 145.24C78.7794 145.24 77.0034 144.688 77.0034 142.384C77.0034 139.72 79.4034 138.016 82.1634 138.016C82.6434 138.016 83.2914 138.064 83.8434 138.232V137.968C83.8434 135.544 82.8114 134.224 81.4434 134.224C80.4594 134.224 79.2594 134.968 78.2034 136.48H78.0834C78.9714 134.248 80.5794 132.76 82.6674 132.76C84.7554 132.76 86.0034 134.272 86.0034 136.864V140.752C86.0034 144.256 86.3874 144.856 87.7074 144.856V145C86.4354 145 85.2354 145 84.0834 145.24H83.8434ZM83.8434 141.88V139.48C83.8194 138.712 83.3394 138.256 82.4514 138.256C80.8914 138.256 79.2354 139.672 79.2114 141.856C79.1874 144.016 80.8194 144.472 81.5154 144.472C82.6434 144.472 83.5794 143.272 83.8434 141.88ZM99.1487 133.096C97.6607 133.096 96.4127 136.024 95.9567 137.152L92.0927 146.608C91.6127 147.808 90.6047 149.104 89.1887 149.104C88.0607 149.104 87.3407 148.216 87.3407 147.112C87.3407 146.464 87.5807 145.84 87.8207 145.24H87.9167C87.8687 146.128 89.6207 146.632 90.2927 146.632C91.1327 146.632 91.8527 146.248 92.1647 145.456L92.3567 144.952L88.6847 136.024C88.2047 134.872 87.7967 133.096 86.2847 133.096V133C87.0767 133 87.8927 133.096 88.6847 133.096C89.0207 133.096 89.3807 133.072 89.7167 133.072L90.3887 133.024C90.7487 133.024 91.0847 133 91.4207 133V133.096C90.8447 133.096 90.4367 133.288 90.4367 133.912C90.4367 134.512 90.7247 135.28 90.9407 135.808L93.5087 142.144L95.4047 137.44C95.7407 136.576 96.1007 135.52 96.1007 134.608C96.1007 133.72 95.7407 133.096 94.7807 133.096V133C95.5967 133 96.3887 133.096 97.2047 133.096C97.4447 133.096 97.6847 133.072 97.9247 133.072L98.4287 133.024C98.6687 133.024 98.9087 133 99.1487 133V133.096ZM106.113 139C106.113 135.736 107.865 132.76 111.441 132.76C115.017 132.76 116.745 135.736 116.745 139C116.745 142.264 115.017 145.24 111.441 145.24C107.865 145.24 106.113 142.264 106.113 139ZM108.201 137.584C108.201 139.696 109.113 144.832 111.969 144.832C114.153 144.832 114.657 142.072 114.657 140.416C114.657 138.304 113.769 133.168 110.889 133.168C108.705 133.168 108.201 135.904 108.201 137.584ZM123.282 145C122.202 145 121.602 144.856 120.57 144.856C119.61 144.856 118.674 145 117.714 145V144.856C119.034 144.856 119.418 144.256 119.418 140.752V138.208C119.418 135.712 119.418 135.016 118.098 135.016V134.872C119.61 134.68 120.81 133.84 121.434 132.76H121.578V135.952C122.466 134.344 124.074 132.76 125.922 132.76C127.818 132.76 128.634 134.464 128.634 136.864V140.752C128.634 144.256 129.018 144.856 130.338 144.856V145C129.258 145 128.658 144.856 127.626 144.856C126.666 144.856 125.73 145 124.77 145V144.856C126.09 144.856 126.474 144.256 126.474 140.752V137.968C126.474 135.688 125.658 134.224 124.41 134.224C123.618 134.224 122.634 134.848 121.578 136.288V140.752C121.578 144.256 121.962 144.856 123.282 144.856V145ZM143.476 145H142.996L139.18 132.448C138.148 129.064 138.316 128.344 136.828 128.344V128.2C138.028 128.2 138.7 128.344 139.852 128.344C140.932 128.344 141.988 128.2 143.068 128.2V128.344C141.58 128.344 141.004 129.4 141.82 132.136L144.268 140.272L145.828 134.416C146.884 130.432 146.26 128.344 144.364 128.344V128.2C145.276 128.2 146.476 128.344 147.364 128.344C148.204 128.344 148.996 128.2 149.836 128.2V128.344C149.068 128.344 148.42 128.944 147.844 130L150.94 140.272L152.5 134.416C153.556 130.432 152.932 128.344 151.036 128.344V128.2C151.948 128.2 153.148 128.344 154.036 128.344C154.876 128.344 155.668 128.2 156.508 128.2V128.344C155.02 128.344 153.94 130.672 153.052 134.008L150.148 145H149.668L146.356 134.104L143.476 145ZM163.236 137.632H156.084C156.084 140.272 156.972 144.232 160.284 144.232C161.244 144.232 161.868 143.8 162.516 143.152L162.636 143.248C161.676 144.472 160.716 145.24 159.108 145.24C155.652 145.24 153.996 142.096 153.996 139C153.996 135.736 155.748 132.76 159.324 132.76C161.988 132.76 163.236 135.256 163.236 137.632ZM156.084 137.344L161.124 137.008C161.124 135.544 160.836 133.144 158.892 133.144C156.708 133.144 156.132 135.568 156.084 137.344ZM169.447 145.24C168.775 145.24 167.479 145.168 166.687 144.376L165.487 145.24H165.391C165.391 143.8 165.511 144.256 165.511 140.752V132.448C165.511 129.952 165.511 129.256 164.191 129.256V129.112C165.703 128.92 166.903 128.08 167.527 127H167.671V137.128C168.223 134.296 169.615 132.76 171.679 132.76C173.911 132.76 175.255 134.536 175.255 138.136C175.255 142.672 173.143 145.24 169.447 145.24ZM167.671 137.848V142.864C167.719 144.184 168.799 144.904 169.927 144.904C171.847 144.904 173.023 142.744 173.047 139.12C173.071 135.544 171.943 134.08 170.503 134.08C169.087 134.08 168.055 135.496 167.671 137.848Z" fill="white" fill-opacity="0.8"/>
<path d="M54.3203 31.25C53.0263 31.2531 51.7861 31.7685 50.8711 32.6836C49.956 33.5986 49.4406 34.8388 49.4375 36.1328V80.0781H42.6016C42.3426 80.0781 42.0942 80.181 41.911 80.3642C41.7279 80.5473 41.625 80.7957 41.625 81.0547V84.9609C41.625 88.7305 44.6914 91.7969 48.4609 91.7969H128.539C132.309 91.7969 135.375 88.7305 135.375 84.9609V81.0547C135.375 80.7957 135.272 80.5473 135.089 80.3642C134.906 80.181 134.657 80.0781 134.398 80.0781H127.562V36.1328C127.562 33.4453 125.367 31.25 122.68 31.25H54.3203ZM54.3203 33.2031H122.68C124.32 33.2031 125.609 34.4922 125.609 36.1328V80.0781H51.3906V36.1328C51.3906 34.4922 52.6797 33.2031 54.3203 33.2031ZM56.2734 37.1094C56.0144 37.1094 55.766 37.2123 55.5829 37.3954C55.3998 37.5785 55.2969 37.8269 55.2969 38.0859V75.1953C55.2969 75.4543 55.3998 75.7027 55.5829 75.8858C55.766 76.069 56.0144 76.1719 56.2734 76.1719H120.727C120.986 76.1719 121.234 76.069 121.417 75.8858C121.6 75.7027 121.703 75.4543 121.703 75.1953V38.0859C121.703 37.8269 121.6 37.5785 121.417 37.3954C121.234 37.2123 120.986 37.1094 120.727 37.1094H56.2734ZM57.25 39.0625H119.75V74.2188H57.25V39.0625ZM71.957 41.0156C70.334 41.0156 68.9688 42.3242 68.9688 43.9453V69.3359C68.9688 70.9414 70.293 72.2656 71.8984 72.2656H107.039C108.646 72.2656 109.969 70.9414 109.969 69.3359V62.5H109.984V55.6641L109.969 55.6797V53.7109C109.969 52.1055 108.646 50.7812 107.039 50.7812H106.078V49.8047C106.078 48.1992 104.754 46.875 103.148 46.875H83.6172C83.4881 46.8782 83.3596 46.8552 83.2397 46.8072C83.1198 46.7593 83.0108 46.6875 82.9195 46.5961C82.8282 46.5048 82.7563 46.3959 82.7084 46.2759C82.6605 46.156 82.6374 46.0276 82.6406 45.8984V43.9453C82.6406 42.3242 81.2754 41.0156 79.6523 41.0156H71.957ZM71.957 42.9688H79.6523C80.2578 42.9688 80.6875 43.4043 80.6875 43.9453V45.8984C80.6875 47.5039 82.0117 48.8281 83.6172 48.8281H103.148C103.707 48.8281 104.125 49.2461 104.125 49.8047V50.7812H79.6953C78.0898 50.7812 76.7656 52.1055 76.7656 53.7109V69.3359C76.7656 69.8945 76.3477 70.3125 75.7891 70.3125H71.8984C71.7693 70.3157 71.6409 70.2927 71.521 70.2447C71.401 70.1968 71.2921 70.125 71.2007 70.0336C71.1094 69.9423 71.0376 69.8334 70.9897 69.7134C70.9417 69.5935 70.9187 69.4651 70.9219 69.3359V43.9453C70.9219 43.4043 71.3516 42.9688 71.957 42.9688ZM79.6953 52.7344H107.039C107.598 52.7344 108.016 53.1523 108.016 53.7109V54.6875H78.7188V53.7109C78.7188 53.1523 79.1387 52.7344 79.6953 52.7344ZM78.7344 56.6406H108.016V60.5469H78.7344V56.6406ZM85.5703 57.6172C85.3113 57.6172 85.0629 57.7201 84.8798 57.9032C84.6966 58.0864 84.5938 58.3347 84.5938 58.5938C84.5938 58.8528 84.6966 59.1011 84.8798 59.2843C85.0629 59.4674 85.3113 59.5703 85.5703 59.5703C85.8293 59.5703 86.0777 59.4674 86.2608 59.2843C86.444 59.1011 86.5469 58.8528 86.5469 58.5938C86.5469 58.3347 86.444 58.0864 86.2608 57.9032C86.0777 57.7201 85.8293 57.6172 85.5703 57.6172ZM89.4766 57.6172C89.2176 57.6172 88.9692 57.7201 88.786 57.9032C88.6029 58.0864 88.5 58.3347 88.5 58.5938C88.5 58.8528 88.6029 59.1011 88.786 59.2843C88.9692 59.4674 89.2176 59.5703 89.4766 59.5703C89.7356 59.5703 89.984 59.4674 90.1671 59.2843C90.3502 59.1011 90.4531 58.8528 90.4531 58.5938C90.4531 58.3347 90.3502 58.0864 90.1671 57.9032C89.984 57.7201 89.7356 57.6172 89.4766 57.6172ZM93.3828 57.6172C93.1238 57.6172 92.8754 57.7201 92.6923 57.9032C92.5091 58.0864 92.4062 58.3347 92.4062 58.5938C92.4062 58.8528 92.5091 59.1011 92.6923 59.2843C92.8754 59.4674 93.1238 59.5703 93.3828 59.5703C93.6418 59.5703 93.8902 59.4674 94.0733 59.2843C94.2565 59.1011 94.3594 58.8528 94.3594 58.5938C94.3594 58.3347 94.2565 58.0864 94.0733 57.9032C93.8902 57.7201 93.6418 57.6172 93.3828 57.6172ZM97.2891 57.6172C97.0301 57.6172 96.7817 57.7201 96.5985 57.9032C96.4154 58.0864 96.3125 58.3347 96.3125 58.5938C96.3125 58.8528 96.4154 59.1011 96.5985 59.2843C96.7817 59.4674 97.0301 59.5703 97.2891 59.5703C97.5481 59.5703 97.7965 59.4674 97.9796 59.2843C98.1627 59.1011 98.2656 58.8528 98.2656 58.5938C98.2656 58.3347 98.1627 58.0864 97.9796 57.9032C97.7965 57.7201 97.5481 57.6172 97.2891 57.6172ZM101.195 57.6172C100.936 57.6172 100.688 57.7201 100.505 57.9032C100.322 58.0864 100.219 58.3347 100.219 58.5938C100.219 58.8528 100.322 59.1011 100.505 59.2843C100.688 59.4674 100.936 59.5703 101.195 59.5703C101.454 59.5703 101.703 59.4674 101.886 59.2843C102.069 59.1011 102.172 58.8528 102.172 58.5938C102.172 58.3347 102.069 58.0864 101.886 57.9032C101.703 57.7201 101.454 57.6172 101.195 57.6172ZM78.7188 62.5H108.016V66.4062H106.078V68.3594H108.016V69.3359C108.016 69.8945 107.598 70.3125 107.039 70.3125H78.3105C78.4453 69.9785 78.7207 69.7148 78.7207 69.3359L78.7188 62.5ZM106.078 66.4062V64.4531H104.125V66.4062H106.078ZM104.125 66.4062H102.172V68.3594H104.125V66.4062ZM102.172 66.4062V64.4531H100.219V66.4062H102.172ZM100.219 66.4062H98.2656V68.3594H100.219V66.4062ZM98.2656 66.4062V64.4531H96.3125V66.4062H98.2656ZM96.3125 66.4062H94.3594V68.3594H96.3125V66.4062ZM94.3594 66.4062V64.4531H92.4062V66.4062H94.3594ZM92.4062 66.4062H90.4531V68.3594H92.4062V66.4062ZM90.4531 66.4062V64.4531H84.5938C83.5117 64.4531 82.6406 65.3242 82.6406 66.4062C82.6406 67.4883 83.5117 68.3594 84.5938 68.3594H88.5V66.4062H90.4531ZM84.5938 65.4297C84.8527 65.4297 85.1011 65.5326 85.2843 65.7157C85.4674 65.8989 85.5703 66.1473 85.5703 66.4062C85.5703 66.6652 85.4674 66.9136 85.2843 67.0968C85.1011 67.2799 84.8527 67.3828 84.5938 67.3828C84.3348 67.3828 84.0864 67.2799 83.9032 67.0968C83.7201 66.9136 83.6172 66.6652 83.6172 66.4062C83.6172 66.1473 83.7201 65.8989 83.9032 65.7157C84.0864 65.5326 84.3348 65.4297 84.5938 65.4297ZM43.5781 82.0312H76.8789V82.0352C77.1075 83.136 77.7079 84.1247 78.5792 84.8352C79.4505 85.5458 80.5397 85.935 81.6641 85.9375H97.2891C98.4137 85.9341 99.503 85.544 100.374 84.8328C101.245 84.1216 101.846 83.1325 102.074 82.0312H133.422V84.9609C133.422 87.6836 131.262 89.8438 128.539 89.8438H48.4609C47.8186 89.8479 47.1818 89.7244 46.5875 89.4805C45.9932 89.2366 45.4533 88.8771 44.999 88.4229C44.5448 87.9686 44.1853 87.4287 43.9414 86.8344C43.6974 86.2401 43.574 85.6033 43.5781 84.9609V82.0312ZM79.1348 82.0312H99.8184C99.3945 83.1211 98.5449 83.9844 97.2891 83.9844H81.6641C80.4082 83.9844 79.5586 83.1211 79.1348 82.0312Z" fill="url(#paint0_linear_62_852)" fill-opacity="0.8"/>
<path d="M54.3203 31.25C53.0263 31.2531 51.7861 31.7685 50.8711 32.6836C49.956 33.5986 49.4406 34.8388 49.4375 36.1328V80.0781H42.6016C42.3426 80.0781 42.0942 80.181 41.911 80.3642C41.7279 80.5473 41.625 80.7957 41.625 81.0547V84.9609C41.625 88.7305 44.6914 91.7969 48.4609 91.7969H128.539C132.309 91.7969 135.375 88.7305 135.375 84.9609V81.0547C135.375 80.7957 135.272 80.5473 135.089 80.3642C134.906 80.181 134.657 80.0781 134.398 80.0781H127.562V36.1328C127.562 33.4453 125.367 31.25 122.68 31.25H54.3203ZM54.3203 33.2031H122.68C124.32 33.2031 125.609 34.4922 125.609 36.1328V80.0781H51.3906V36.1328C51.3906 34.4922 52.6797 33.2031 54.3203 33.2031ZM56.2734 37.1094C56.0144 37.1094 55.766 37.2123 55.5829 37.3954C55.3998 37.5785 55.2969 37.8269 55.2969 38.0859V75.1953C55.2969 75.4543 55.3998 75.7027 55.5829 75.8858C55.766 76.069 56.0144 76.1719 56.2734 76.1719H120.727C120.986 76.1719 121.234 76.069 121.417 75.8858C121.6 75.7027 121.703 75.4543 121.703 75.1953V38.0859C121.703 37.8269 121.6 37.5785 121.417 37.3954C121.234 37.2123 120.986 37.1094 120.727 37.1094H56.2734ZM57.25 39.0625H119.75V74.2188H57.25V39.0625ZM71.957 41.0156C70.334 41.0156 68.9688 42.3242 68.9688 43.9453V69.3359C68.9688 70.9414 70.293 72.2656 71.8984 72.2656H107.039C108.646 72.2656 109.969 70.9414 109.969 69.3359V62.5H109.984V55.6641L109.969 55.6797V53.7109C109.969 52.1055 108.646 50.7812 107.039 50.7812H106.078V49.8047C106.078 48.1992 104.754 46.875 103.148 46.875H83.6172C83.4881 46.8782 83.3596 46.8552 83.2397 46.8072C83.1198 46.7593 83.0108 46.6875 82.9195 46.5961C82.8282 46.5048 82.7563 46.3959 82.7084 46.2759C82.6605 46.156 82.6374 46.0276 82.6406 45.8984V43.9453C82.6406 42.3242 81.2754 41.0156 79.6523 41.0156H71.957ZM71.957 42.9688H79.6523C80.2578 42.9688 80.6875 43.4043 80.6875 43.9453V45.8984C80.6875 47.5039 82.0117 48.8281 83.6172 48.8281H103.148C103.707 48.8281 104.125 49.2461 104.125 49.8047V50.7812H79.6953C78.0898 50.7812 76.7656 52.1055 76.7656 53.7109V69.3359C76.7656 69.8945 76.3477 70.3125 75.7891 70.3125H71.8984C71.7693 70.3157 71.6409 70.2927 71.521 70.2447C71.401 70.1968 71.2921 70.125 71.2007 70.0336C71.1094 69.9423 71.0376 69.8334 70.9897 69.7134C70.9417 69.5935 70.9187 69.4651 70.9219 69.3359V43.9453C70.9219 43.4043 71.3516 42.9688 71.957 42.9688ZM79.6953 52.7344H107.039C107.598 52.7344 108.016 53.1523 108.016 53.7109V54.6875H78.7188V53.7109C78.7188 53.1523 79.1387 52.7344 79.6953 52.7344ZM78.7344 56.6406H108.016V60.5469H78.7344V56.6406ZM85.5703 57.6172C85.3113 57.6172 85.0629 57.7201 84.8798 57.9032C84.6966 58.0864 84.5938 58.3347 84.5938 58.5938C84.5938 58.8528 84.6966 59.1011 84.8798 59.2843C85.0629 59.4674 85.3113 59.5703 85.5703 59.5703C85.8293 59.5703 86.0777 59.4674 86.2608 59.2843C86.444 59.1011 86.5469 58.8528 86.5469 58.5938C86.5469 58.3347 86.444 58.0864 86.2608 57.9032C86.0777 57.7201 85.8293 57.6172 85.5703 57.6172ZM89.4766 57.6172C89.2176 57.6172 88.9692 57.7201 88.786 57.9032C88.6029 58.0864 88.5 58.3347 88.5 58.5938C88.5 58.8528 88.6029 59.1011 88.786 59.2843C88.9692 59.4674 89.2176 59.5703 89.4766 59.5703C89.7356 59.5703 89.984 59.4674 90.1671 59.2843C90.3502 59.1011 90.4531 58.8528 90.4531 58.5938C90.4531 58.3347 90.3502 58.0864 90.1671 57.9032C89.984 57.7201 89.7356 57.6172 89.4766 57.6172ZM93.3828 57.6172C93.1238 57.6172 92.8754 57.7201 92.6923 57.9032C92.5091 58.0864 92.4062 58.3347 92.4062 58.5938C92.4062 58.8528 92.5091 59.1011 92.6923 59.2843C92.8754 59.4674 93.1238 59.5703 93.3828 59.5703C93.6418 59.5703 93.8902 59.4674 94.0733 59.2843C94.2565 59.1011 94.3594 58.8528 94.3594 58.5938C94.3594 58.3347 94.2565 58.0864 94.0733 57.9032C93.8902 57.7201 93.6418 57.6172 93.3828 57.6172ZM97.2891 57.6172C97.0301 57.6172 96.7817 57.7201 96.5985 57.9032C96.4154 58.0864 96.3125 58.3347 96.3125 58.5938C96.3125 58.8528 96.4154 59.1011 96.5985 59.2843C96.7817 59.4674 97.0301 59.5703 97.2891 59.5703C97.5481 59.5703 97.7965 59.4674 97.9796 59.2843C98.1627 59.1011 98.2656 58.8528 98.2656 58.5938C98.2656 58.3347 98.1627 58.0864 97.9796 57.9032C97.7965 57.7201 97.5481 57.6172 97.2891 57.6172ZM101.195 57.6172C100.936 57.6172 100.688 57.7201 100.505 57.9032C100.322 58.0864 100.219 58.3347 100.219 58.5938C100.219 58.8528 100.322 59.1011 100.505 59.2843C100.688 59.4674 100.936 59.5703 101.195 59.5703C101.454 59.5703 101.703 59.4674 101.886 59.2843C102.069 59.1011 102.172 58.8528 102.172 58.5938C102.172 58.3347 102.069 58.0864 101.886 57.9032C101.703 57.7201 101.454 57.6172 101.195 57.6172ZM78.7188 62.5H108.016V66.4062H106.078V68.3594H108.016V69.3359C108.016 69.8945 107.598 70.3125 107.039 70.3125H78.3105C78.4453 69.9785 78.7207 69.7148 78.7207 69.3359L78.7188 62.5ZM106.078 66.4062V64.4531H104.125V66.4062H106.078ZM104.125 66.4062H102.172V68.3594H104.125V66.4062ZM102.172 66.4062V64.4531H100.219V66.4062H102.172ZM100.219 66.4062H98.2656V68.3594H100.219V66.4062ZM98.2656 66.4062V64.4531H96.3125V66.4062H98.2656ZM96.3125 66.4062H94.3594V68.3594H96.3125V66.4062ZM94.3594 66.4062V64.4531H92.4062V66.4062H94.3594ZM92.4062 66.4062H90.4531V68.3594H92.4062V66.4062ZM90.4531 66.4062V64.4531H84.5938C83.5117 64.4531 82.6406 65.3242 82.6406 66.4062C82.6406 67.4883 83.5117 68.3594 84.5938 68.3594H88.5V66.4062H90.4531ZM84.5938 65.4297C84.8527 65.4297 85.1011 65.5326 85.2843 65.7157C85.4674 65.8989 85.5703 66.1473 85.5703 66.4062C85.5703 66.6652 85.4674 66.9136 85.2843 67.0968C85.1011 67.2799 84.8527 67.3828 84.5938 67.3828C84.3348 67.3828 84.0864 67.2799 83.9032 67.0968C83.7201 66.9136 83.6172 66.6652 83.6172 66.4062C83.6172 66.1473 83.7201 65.8989 83.9032 65.7157C84.0864 65.5326 84.3348 65.4297 84.5938 65.4297ZM43.5781 82.0312H76.8789V82.0352C77.1075 83.136 77.7079 84.1247 78.5792 84.8352C79.4505 85.5458 80.5397 85.935 81.6641 85.9375H97.2891C98.4137 85.9341 99.503 85.544 100.374 84.8328C101.245 84.1216 101.846 83.1325 102.074 82.0312H133.422V84.9609C133.422 87.6836 131.262 89.8438 128.539 89.8438H48.4609C47.8186 89.8479 47.1818 89.7244 46.5875 89.4805C45.9932 89.2366 45.4533 88.8771 44.999 88.4229C44.5448 87.9686 44.1853 87.4287 43.9414 86.8344C43.6974 86.2401 43.574 85.6033 43.5781 84.9609V82.0312ZM79.1348 82.0312H99.8184C99.3945 83.1211 98.5449 83.9844 97.2891 83.9844H81.6641C80.4082 83.9844 79.5586 83.1211 79.1348 82.0312Z" fill="url(#paint1_linear_62_852)"/>
<defs>
<linearGradient id="paint0_linear_62_852" x1="53.5" y1="36.5" x2="135" y2="92" gradientUnits="userSpaceOnUse">
<stop offset="0.338542" stop-color="#FF12B3"/>
<stop offset="1" stop-color="#7D07F4"/>
</linearGradient>
<linearGradient id="paint1_linear_62_852" x1="54.4424" y1="31.25" x2="106.197" y2="62.2706" gradientUnits="userSpaceOnUse">
<stop stop-color="#AD0B40" stop-opacity="0.878431"/>
<stop offset="1" stop-color="#FF1917"/>
</linearGradient>
</defs>
</svg>
