<svg width="87" height="27" viewBox="0 0 87 27" fill="none" xmlns="http://www.w3.org/2000/svg">
<path d="M0.52 23.28C1.53333 23.12 2.22667 22.8 2.6 22.32C2.97333 21.8133 3.16 20.9733 3.16 19.8V5.28C3.16 4.45333 3.06667 3.90667 2.88 3.64C2.69333 3.34667 2.30667 3.2 1.72 3.2C1.48 3.2 1.25333 3.21333 1.04 3.24C0.826667 3.26667 0.68 3.28 0.6 3.28L0.32 2.84L0.64 0.199998L6.48 0.239998C7.25333 0.239998 8.48 0.213332 10.16 0.159999C11.8667 0.0799983 13 0.0266649 13.56 -1.43051e-06L13.2 3.28C12.2667 3.38667 11.5733 3.52 11.12 3.68C10.6933 3.84 10.4 4.08 10.24 4.4C10.08 4.72 9.97333 5.2 9.92 5.84C9.65333 9.68 9.52 14.44 9.52 20.12C9.52 20.9733 9.65333 21.5467 9.92 21.84C10.1867 22.1067 10.7333 22.24 11.56 22.24C12.7333 22.24 13.6133 22.08 14.2 21.76C14.7867 21.44 15.2133 20.8533 15.48 20C15.7733 19.12 16 17.7867 16.16 16L20.28 15.56L20.64 16.04C20.56 16.5733 20.4133 17.8133 20.2 19.76C19.9867 21.68 19.8 23.6933 19.64 25.8L19.16 26.32C18.44 26.2933 16.88 26.2267 14.48 26.12C12.1067 26.04 9.84 26 7.68 26C6.10667 26 4.57333 26.0533 3.08 26.16C1.58667 26.2667 0.626667 26.3467 0.2 26.4L0.52 23.28ZM31.3997 26.36C28.2797 26.36 25.8664 25.4933 24.1597 23.76C22.4797 22.0267 21.6397 19.56 21.6397 16.36C21.6397 12.92 22.5864 10.2667 24.4797 8.4C26.373 6.50667 29.0397 5.56 32.4797 5.56C35.653 5.56 38.0664 6.4 39.7197 8.08C41.3997 9.73333 42.2397 12.1733 42.2397 15.4C42.2397 18.84 41.2797 21.5333 39.3597 23.48C37.4397 25.4 34.7864 26.36 31.3997 26.36ZM32.0797 22.76C33.2264 22.76 34.0797 22.32 34.6397 21.44C35.1997 20.56 35.4797 19.1733 35.4797 17.28C35.4797 14.5067 35.173 12.52 34.5597 11.32C33.973 10.0933 33.0264 9.48 31.7197 9.48C30.5997 9.48 29.773 9.92 29.2397 10.8C28.7064 11.6533 28.4397 13.0267 28.4397 14.92C28.4397 17.6933 28.7197 19.6933 29.2797 20.92C29.8664 22.1467 30.7997 22.76 32.0797 22.76ZM54.1788 26.32C51.0588 26.32 48.6054 25.44 46.8188 23.68C45.0588 21.92 44.1788 19.48 44.1788 16.36C44.1788 12.8933 45.2054 10.2267 47.2588 8.36C49.3388 6.49333 52.2854 5.56 56.0988 5.56C57.0054 5.56 57.9521 5.62667 58.9388 5.76C59.9254 5.86667 60.7521 5.98667 61.4188 6.12C62.1121 6.22667 62.5521 6.30667 62.7388 6.36L63.0588 6.92C63.0321 7.05333 62.9521 7.4 62.8188 7.96C62.6854 8.49333 62.5521 9.21333 62.4188 10.12C62.2854 11.0267 62.1921 12 62.1388 13.04L57.6588 13.28C57.6588 13.2 57.6721 13.0133 57.6988 12.72C57.7254 12.4267 57.7388 12.0533 57.7388 11.6C57.7388 10.8 57.5521 10.2533 57.1788 9.96C56.8321 9.64 56.1921 9.48 55.2588 9.48C53.6854 9.48 52.5654 9.92 51.8988 10.8C51.2321 11.68 50.8988 13.1733 50.8988 15.28C50.8988 17.68 51.2321 19.4667 51.8988 20.64C52.5921 21.7867 53.6454 22.36 55.0588 22.36C55.4854 22.36 55.8588 22.3333 56.1788 22.28C56.4988 22.2 56.7388 22.12 56.8988 22.04C57.0854 21.96 57.2054 21.9067 57.2588 21.88V19.68C57.2588 19.1467 57.1788 18.7867 57.0188 18.6C56.8588 18.4133 56.5521 18.32 56.0988 18.32L54.8188 18.36L54.5388 17.96L54.9388 15.2H59.8188C60.7254 15.2 61.5254 15.1867 62.2188 15.16C62.9121 15.1067 63.3654 15.0667 63.5788 15.04L63.8588 16.72C63.3788 16.9867 63.0321 17.2933 62.8188 17.64C62.6054 17.96 62.4588 18.44 62.3788 19.08C62.2988 19.72 62.2588 20.7333 62.2588 22.12C62.2588 23.2667 62.3388 24.16 62.4988 24.8L62.1388 25.28C61.9788 25.3333 61.5788 25.44 60.9388 25.6C60.3254 25.76 59.4188 25.92 58.2188 26.08C57.0454 26.24 55.6988 26.32 54.1788 26.32ZM75.8919 26.36C72.7719 26.36 70.3585 25.4933 68.6519 23.76C66.9719 22.0267 66.1319 19.56 66.1319 16.36C66.1319 12.92 67.0785 10.2667 68.9719 8.4C70.8652 6.50667 73.5319 5.56 76.9719 5.56C80.1452 5.56 82.5585 6.4 84.2119 8.08C85.8919 9.73333 86.7319 12.1733 86.7319 15.4C86.7319 18.84 85.7719 21.5333 83.8519 23.48C81.9319 25.4 79.2785 26.36 75.8919 26.36ZM76.5719 22.76C77.7185 22.76 78.5719 22.32 79.1319 21.44C79.6919 20.56 79.9719 19.1733 79.9719 17.28C79.9719 14.5067 79.6652 12.52 79.0519 11.32C78.4652 10.0933 77.5185 9.48 76.2119 9.48C75.0919 9.48 74.2652 9.92 73.7319 10.8C73.1985 11.6533 72.9319 13.0267 72.9319 14.92C72.9319 17.6933 73.2119 19.6933 73.7719 20.92C74.3585 22.1467 75.2919 22.76 76.5719 22.76Z" fill="white"/>
</svg>
