<svg width="78" height="70" viewBox="0 0 78 70" fill="none" xmlns="http://www.w3.org/2000/svg">
<mask id="path-1-inside-1_62_863" fill="white">
<path d="M32.25 0.25C29.4606 0.25 27.1875 2.52306 27.1875 5.3125V13.75C27.1875 13.8006 27.1993 13.8462 27.201 13.8951C25.1485 12.6962 22.8145 12.0638 20.4375 12.0625C13.0176 12.0625 6.9375 18.097 6.9375 25.5001V30.625H3.5625C1.70625 30.625 0.1875 32.1437 0.1875 34V66.0625C0.1875 67.9187 1.70625 69.4375 3.5625 69.4375H72.75C75.5394 69.4375 77.8125 67.1644 77.8125 64.375V55.9375C77.8113 55.1011 77.603 54.2781 77.206 53.5419C76.8091 52.8057 76.2359 52.1793 75.5378 51.7188C76.2361 51.2584 76.8094 50.6321 77.2064 49.8958C77.6034 49.1596 77.8116 48.3364 77.8125 47.5V39.0625C77.8113 38.2261 77.603 37.4031 77.206 36.6669C76.8091 35.9307 76.2359 35.3043 75.5378 34.8438C76.2361 34.3834 76.8094 33.7571 77.2064 33.0208C77.6034 32.2846 77.8116 31.4614 77.8125 30.625V22.1875C77.8113 21.3511 77.603 20.5281 77.206 19.7919C76.8091 19.0557 76.2359 18.4293 75.5378 17.9688C76.2361 17.5084 76.8094 16.8821 77.2064 16.1458C77.6034 15.4096 77.8116 14.5864 77.8125 13.75V5.3125C77.8125 2.52306 75.5394 0.25 72.75 0.25H32.25ZM32.25 1.9375H72.75C74.6349 1.9375 76.125 3.42756 76.125 5.3125V13.75C76.125 15.6349 74.6349 17.125 72.75 17.125H32.25C31.7792 17.125 31.3354 17.0305 30.9321 16.8617C30.9309 16.8617 30.9298 16.8617 30.9287 16.8617C30.8286 16.8192 30.7306 16.7719 30.6351 16.72C30.6273 16.7154 30.6194 16.7109 30.6114 16.7065C30.2168 16.2561 29.7928 15.8322 29.3424 15.4375H72.75V13.75H28.875V5.3125H72.75V3.625H29.3323C29.9111 2.61419 30.9861 1.9375 32.25 1.9375ZM42.375 7V12.0625H47.4375V7H42.375ZM49.125 7V12.0625H54.1875V7H49.125ZM55.875 7V12.0625H60.9375V7H55.875ZM44.0625 8.6875H45.75V10.375H44.0625V8.6875ZM50.8125 8.6875H52.5V10.375H50.8125V8.6875ZM57.5625 8.6875H59.25V10.375H57.5625V8.6875ZM20.4375 13.75C26.9445 13.75 32.25 19.0201 32.25 25.5001V30.625H28.8784V25.5119C28.8784 20.8577 25.1321 17.125 20.4341 17.125C15.7361 17.125 11.9899 20.8577 11.9899 25.5119V30.625H8.625V25.5001C8.625 19.0201 13.9305 13.75 20.4375 13.75ZM32.115 18.799C32.1606 18.799 32.2044 18.8125 32.25 18.8125H72.75C74.6349 18.8125 76.125 20.3026 76.125 22.1875V30.625C76.125 32.5099 74.6349 34 72.75 34H40.6875C40.6875 33.3841 40.5069 32.8103 40.215 32.3125H72.75V30.625H33.9375V25.5001C33.9375 24.3559 33.7755 23.2489 33.5021 22.1875H72.75V20.5H32.9554C32.7159 19.9138 32.4351 19.3454 32.115 18.799ZM20.4341 18.8125C24.2529 18.8125 27.1909 21.7504 27.1909 25.5119V30.625H13.6774V25.5119C13.6774 21.7504 16.6153 18.8125 20.4341 18.8125ZM42.375 23.875V28.9375H47.4375V23.875H42.375ZM49.125 23.875V28.9375H54.1875V23.875H49.125ZM55.875 23.875V28.9375H60.9375V23.875H55.875ZM44.0625 25.5625H45.75V27.25H44.0625V25.5625ZM50.8125 25.5625H52.5V27.25H50.8125V25.5625ZM57.5625 25.5625H59.25V27.25H57.5625V25.5625ZM3.5625 32.3125H37.3125C38.2626 32.3125 39 33.0499 39 34V52.5625H1.875V34C1.875 33.0499 2.61244 32.3125 3.5625 32.3125ZM20.4375 35.6875C19.3197 35.6911 18.2487 36.1367 17.4583 36.9271C16.6679 37.7175 16.2223 38.7885 16.2188 39.9062C16.2188 41.2056 16.9039 42.3413 17.9062 43.1327V49.1841H22.9688V43.1294C23.9711 42.3379 24.6546 41.2039 24.6562 39.9062C24.6562 37.5859 22.7578 35.6875 20.4375 35.6875ZM40.6875 35.6875H72.75C74.6349 35.6875 76.125 37.1776 76.125 39.0625V47.5C76.125 49.3849 74.6349 50.875 72.75 50.875H40.6875V49.1875H72.75V47.5H40.6875V39.0625H72.75V37.375H40.6875V35.6875ZM20.4375 37.375C20.9943 37.3749 21.5356 37.5586 21.9774 37.8975C22.4192 38.2364 22.7369 38.7116 22.8811 39.2494C23.0253 39.7872 22.988 40.3576 22.7751 40.8721C22.5621 41.3866 22.1853 41.8164 21.7031 42.0949L21.2812 42.3379V47.5H19.5938V42.3413L19.1719 42.0983C18.7871 41.8762 18.4676 41.5566 18.2454 41.1718C18.0232 40.787 17.9063 40.3506 17.9062 39.9062C17.9062 38.4989 19.0301 37.375 20.4375 37.375ZM42.375 40.75V45.8125H47.4375V40.75H42.375ZM49.125 40.75V45.8125H54.1875V40.75H49.125ZM55.875 40.75V45.8125H60.9375V40.75H55.875ZM44.0625 42.4375H45.75V44.125H44.0625V42.4375ZM50.8125 42.4375H52.5V44.125H50.8125V42.4375ZM57.5625 42.4375H59.25V44.125H57.5625V42.4375ZM40.6875 52.5625H72.75C74.6349 52.5625 76.125 54.0526 76.125 55.9375V64.375C76.125 66.2599 74.6349 67.75 72.75 67.75H40.2133C40.5053 67.2505 40.6875 66.6801 40.6875 66.0625H72.75V64.375H40.6875V55.9375H72.75V54.25H40.6875V52.5625ZM1.875 54.25H39V62.6875H1.875V54.25ZM4.40625 55.9375V61H9.46875V55.9375H4.40625ZM11.1562 55.9375V61H16.2188V55.9375H11.1562ZM17.9062 55.9375V61H22.9688V55.9375H17.9062ZM24.6562 55.9375V61H29.7188V55.9375H24.6562ZM31.4062 55.9375V61H36.4688V55.9375H31.4062ZM6.09375 57.625H7.78125V59.3125H6.09375V57.625ZM12.8438 57.625H14.5312V59.3125H12.8438V57.625ZM19.5938 57.625H21.2812V59.3125H19.5938V57.625ZM26.3438 57.625H28.0312V59.3125H26.3438V57.625ZM33.0938 57.625H34.7812V59.3125H33.0938V57.625ZM42.375 57.625V62.6875H47.4375V57.625H42.375ZM49.125 57.625V62.6875H54.1875V57.625H49.125ZM55.875 57.625V62.6875H60.9375V57.625H55.875ZM44.0625 59.3125H45.75V61H44.0625V59.3125ZM50.8125 59.3125H52.5V61H50.8125V59.3125ZM57.5625 59.3125H59.25V61H57.5625V59.3125ZM1.875 64.375H39V66.0625C39 67.0126 38.2626 67.75 37.3125 67.75H3.5625C2.61244 67.75 1.875 67.0126 1.875 66.0625V64.375Z"/>
</mask>
<path d="M32.25 0.25C29.4606 0.25 27.1875 2.52306 27.1875 5.3125V13.75C27.1875 13.8006 27.1993 13.8462 27.201 13.8951C25.1485 12.6962 22.8145 12.0638 20.4375 12.0625C13.0176 12.0625 6.9375 18.097 6.9375 25.5001V30.625H3.5625C1.70625 30.625 0.1875 32.1437 0.1875 34V66.0625C0.1875 67.9187 1.70625 69.4375 3.5625 69.4375H72.75C75.5394 69.4375 77.8125 67.1644 77.8125 64.375V55.9375C77.8113 55.1011 77.603 54.2781 77.206 53.5419C76.8091 52.8057 76.2359 52.1793 75.5378 51.7188C76.2361 51.2584 76.8094 50.6321 77.2064 49.8958C77.6034 49.1596 77.8116 48.3364 77.8125 47.5V39.0625C77.8113 38.2261 77.603 37.4031 77.206 36.6669C76.8091 35.9307 76.2359 35.3043 75.5378 34.8438C76.2361 34.3834 76.8094 33.7571 77.2064 33.0208C77.6034 32.2846 77.8116 31.4614 77.8125 30.625V22.1875C77.8113 21.3511 77.603 20.5281 77.206 19.7919C76.8091 19.0557 76.2359 18.4293 75.5378 17.9688C76.2361 17.5084 76.8094 16.8821 77.2064 16.1458C77.6034 15.4096 77.8116 14.5864 77.8125 13.75V5.3125C77.8125 2.52306 75.5394 0.25 72.75 0.25H32.25ZM32.25 1.9375H72.75C74.6349 1.9375 76.125 3.42756 76.125 5.3125V13.75C76.125 15.6349 74.6349 17.125 72.75 17.125H32.25C31.7792 17.125 31.3354 17.0305 30.9321 16.8617C30.9309 16.8617 30.9298 16.8617 30.9287 16.8617C30.8286 16.8192 30.7306 16.7719 30.6351 16.72C30.6273 16.7154 30.6194 16.7109 30.6114 16.7065C30.2168 16.2561 29.7928 15.8322 29.3424 15.4375H72.75V13.75H28.875V5.3125H72.75V3.625H29.3323C29.9111 2.61419 30.9861 1.9375 32.25 1.9375ZM42.375 7V12.0625H47.4375V7H42.375ZM49.125 7V12.0625H54.1875V7H49.125ZM55.875 7V12.0625H60.9375V7H55.875ZM44.0625 8.6875H45.75V10.375H44.0625V8.6875ZM50.8125 8.6875H52.5V10.375H50.8125V8.6875ZM57.5625 8.6875H59.25V10.375H57.5625V8.6875ZM20.4375 13.75C26.9445 13.75 32.25 19.0201 32.25 25.5001V30.625H28.8784V25.5119C28.8784 20.8577 25.1321 17.125 20.4341 17.125C15.7361 17.125 11.9899 20.8577 11.9899 25.5119V30.625H8.625V25.5001C8.625 19.0201 13.9305 13.75 20.4375 13.75ZM32.115 18.799C32.1606 18.799 32.2044 18.8125 32.25 18.8125H72.75C74.6349 18.8125 76.125 20.3026 76.125 22.1875V30.625C76.125 32.5099 74.6349 34 72.75 34H40.6875C40.6875 33.3841 40.5069 32.8103 40.215 32.3125H72.75V30.625H33.9375V25.5001C33.9375 24.3559 33.7755 23.2489 33.5021 22.1875H72.75V20.5H32.9554C32.7159 19.9138 32.4351 19.3454 32.115 18.799ZM20.4341 18.8125C24.2529 18.8125 27.1909 21.7504 27.1909 25.5119V30.625H13.6774V25.5119C13.6774 21.7504 16.6153 18.8125 20.4341 18.8125ZM42.375 23.875V28.9375H47.4375V23.875H42.375ZM49.125 23.875V28.9375H54.1875V23.875H49.125ZM55.875 23.875V28.9375H60.9375V23.875H55.875ZM44.0625 25.5625H45.75V27.25H44.0625V25.5625ZM50.8125 25.5625H52.5V27.25H50.8125V25.5625ZM57.5625 25.5625H59.25V27.25H57.5625V25.5625ZM3.5625 32.3125H37.3125C38.2626 32.3125 39 33.0499 39 34V52.5625H1.875V34C1.875 33.0499 2.61244 32.3125 3.5625 32.3125ZM20.4375 35.6875C19.3197 35.6911 18.2487 36.1367 17.4583 36.9271C16.6679 37.7175 16.2223 38.7885 16.2188 39.9062C16.2188 41.2056 16.9039 42.3413 17.9062 43.1327V49.1841H22.9688V43.1294C23.9711 42.3379 24.6546 41.2039 24.6562 39.9062C24.6562 37.5859 22.7578 35.6875 20.4375 35.6875ZM40.6875 35.6875H72.75C74.6349 35.6875 76.125 37.1776 76.125 39.0625V47.5C76.125 49.3849 74.6349 50.875 72.75 50.875H40.6875V49.1875H72.75V47.5H40.6875V39.0625H72.75V37.375H40.6875V35.6875ZM20.4375 37.375C20.9943 37.3749 21.5356 37.5586 21.9774 37.8975C22.4192 38.2364 22.7369 38.7116 22.8811 39.2494C23.0253 39.7872 22.988 40.3576 22.7751 40.8721C22.5621 41.3866 22.1853 41.8164 21.7031 42.0949L21.2812 42.3379V47.5H19.5938V42.3413L19.1719 42.0983C18.7871 41.8762 18.4676 41.5566 18.2454 41.1718C18.0232 40.787 17.9063 40.3506 17.9062 39.9062C17.9062 38.4989 19.0301 37.375 20.4375 37.375ZM42.375 40.75V45.8125H47.4375V40.75H42.375ZM49.125 40.75V45.8125H54.1875V40.75H49.125ZM55.875 40.75V45.8125H60.9375V40.75H55.875ZM44.0625 42.4375H45.75V44.125H44.0625V42.4375ZM50.8125 42.4375H52.5V44.125H50.8125V42.4375ZM57.5625 42.4375H59.25V44.125H57.5625V42.4375ZM40.6875 52.5625H72.75C74.6349 52.5625 76.125 54.0526 76.125 55.9375V64.375C76.125 66.2599 74.6349 67.75 72.75 67.75H40.2133C40.5053 67.2505 40.6875 66.6801 40.6875 66.0625H72.75V64.375H40.6875V55.9375H72.75V54.25H40.6875V52.5625ZM1.875 54.25H39V62.6875H1.875V54.25ZM4.40625 55.9375V61H9.46875V55.9375H4.40625ZM11.1562 55.9375V61H16.2188V55.9375H11.1562ZM17.9062 55.9375V61H22.9688V55.9375H17.9062ZM24.6562 55.9375V61H29.7188V55.9375H24.6562ZM31.4062 55.9375V61H36.4688V55.9375H31.4062ZM6.09375 57.625H7.78125V59.3125H6.09375V57.625ZM12.8438 57.625H14.5312V59.3125H12.8438V57.625ZM19.5938 57.625H21.2812V59.3125H19.5938V57.625ZM26.3438 57.625H28.0312V59.3125H26.3438V57.625ZM33.0938 57.625H34.7812V59.3125H33.0938V57.625ZM42.375 57.625V62.6875H47.4375V57.625H42.375ZM49.125 57.625V62.6875H54.1875V57.625H49.125ZM55.875 57.625V62.6875H60.9375V57.625H55.875ZM44.0625 59.3125H45.75V61H44.0625V59.3125ZM50.8125 59.3125H52.5V61H50.8125V59.3125ZM57.5625 59.3125H59.25V61H57.5625V59.3125ZM1.875 64.375H39V66.0625C39 67.0126 38.2626 67.75 37.3125 67.75H3.5625C2.61244 67.75 1.875 67.0126 1.875 66.0625V64.375Z" fill="url(#paint0_linear_62_863)"/>
<path d="M32.25 0.25C29.4606 0.25 27.1875 2.52306 27.1875 5.3125V13.75C27.1875 13.8006 27.1993 13.8462 27.201 13.8951C25.1485 12.6962 22.8145 12.0638 20.4375 12.0625C13.0176 12.0625 6.9375 18.097 6.9375 25.5001V30.625H3.5625C1.70625 30.625 0.1875 32.1437 0.1875 34V66.0625C0.1875 67.9187 1.70625 69.4375 3.5625 69.4375H72.75C75.5394 69.4375 77.8125 67.1644 77.8125 64.375V55.9375C77.8113 55.1011 77.603 54.2781 77.206 53.5419C76.8091 52.8057 76.2359 52.1793 75.5378 51.7188C76.2361 51.2584 76.8094 50.6321 77.2064 49.8958C77.6034 49.1596 77.8116 48.3364 77.8125 47.5V39.0625C77.8113 38.2261 77.603 37.4031 77.206 36.6669C76.8091 35.9307 76.2359 35.3043 75.5378 34.8438C76.2361 34.3834 76.8094 33.7571 77.2064 33.0208C77.6034 32.2846 77.8116 31.4614 77.8125 30.625V22.1875C77.8113 21.3511 77.603 20.5281 77.206 19.7919C76.8091 19.0557 76.2359 18.4293 75.5378 17.9688C76.2361 17.5084 76.8094 16.8821 77.2064 16.1458C77.6034 15.4096 77.8116 14.5864 77.8125 13.75V5.3125C77.8125 2.52306 75.5394 0.25 72.75 0.25H32.25ZM32.25 1.9375H72.75C74.6349 1.9375 76.125 3.42756 76.125 5.3125V13.75C76.125 15.6349 74.6349 17.125 72.75 17.125H32.25C31.7792 17.125 31.3354 17.0305 30.9321 16.8617C30.9309 16.8617 30.9298 16.8617 30.9287 16.8617C30.8286 16.8192 30.7306 16.7719 30.6351 16.72C30.6273 16.7154 30.6194 16.7109 30.6114 16.7065C30.2168 16.2561 29.7928 15.8322 29.3424 15.4375H72.75V13.75H28.875V5.3125H72.75V3.625H29.3323C29.9111 2.61419 30.9861 1.9375 32.25 1.9375ZM42.375 7V12.0625H47.4375V7H42.375ZM49.125 7V12.0625H54.1875V7H49.125ZM55.875 7V12.0625H60.9375V7H55.875ZM44.0625 8.6875H45.75V10.375H44.0625V8.6875ZM50.8125 8.6875H52.5V10.375H50.8125V8.6875ZM57.5625 8.6875H59.25V10.375H57.5625V8.6875ZM20.4375 13.75C26.9445 13.75 32.25 19.0201 32.25 25.5001V30.625H28.8784V25.5119C28.8784 20.8577 25.1321 17.125 20.4341 17.125C15.7361 17.125 11.9899 20.8577 11.9899 25.5119V30.625H8.625V25.5001C8.625 19.0201 13.9305 13.75 20.4375 13.75ZM32.115 18.799C32.1606 18.799 32.2044 18.8125 32.25 18.8125H72.75C74.6349 18.8125 76.125 20.3026 76.125 22.1875V30.625C76.125 32.5099 74.6349 34 72.75 34H40.6875C40.6875 33.3841 40.5069 32.8103 40.215 32.3125H72.75V30.625H33.9375V25.5001C33.9375 24.3559 33.7755 23.2489 33.5021 22.1875H72.75V20.5H32.9554C32.7159 19.9138 32.4351 19.3454 32.115 18.799ZM20.4341 18.8125C24.2529 18.8125 27.1909 21.7504 27.1909 25.5119V30.625H13.6774V25.5119C13.6774 21.7504 16.6153 18.8125 20.4341 18.8125ZM42.375 23.875V28.9375H47.4375V23.875H42.375ZM49.125 23.875V28.9375H54.1875V23.875H49.125ZM55.875 23.875V28.9375H60.9375V23.875H55.875ZM44.0625 25.5625H45.75V27.25H44.0625V25.5625ZM50.8125 25.5625H52.5V27.25H50.8125V25.5625ZM57.5625 25.5625H59.25V27.25H57.5625V25.5625ZM3.5625 32.3125H37.3125C38.2626 32.3125 39 33.0499 39 34V52.5625H1.875V34C1.875 33.0499 2.61244 32.3125 3.5625 32.3125ZM20.4375 35.6875C19.3197 35.6911 18.2487 36.1367 17.4583 36.9271C16.6679 37.7175 16.2223 38.7885 16.2188 39.9062C16.2188 41.2056 16.9039 42.3413 17.9062 43.1327V49.1841H22.9688V43.1294C23.9711 42.3379 24.6546 41.2039 24.6562 39.9062C24.6562 37.5859 22.7578 35.6875 20.4375 35.6875ZM40.6875 35.6875H72.75C74.6349 35.6875 76.125 37.1776 76.125 39.0625V47.5C76.125 49.3849 74.6349 50.875 72.75 50.875H40.6875V49.1875H72.75V47.5H40.6875V39.0625H72.75V37.375H40.6875V35.6875ZM20.4375 37.375C20.9943 37.3749 21.5356 37.5586 21.9774 37.8975C22.4192 38.2364 22.7369 38.7116 22.8811 39.2494C23.0253 39.7872 22.988 40.3576 22.7751 40.8721C22.5621 41.3866 22.1853 41.8164 21.7031 42.0949L21.2812 42.3379V47.5H19.5938V42.3413L19.1719 42.0983C18.7871 41.8762 18.4676 41.5566 18.2454 41.1718C18.0232 40.787 17.9063 40.3506 17.9062 39.9062C17.9062 38.4989 19.0301 37.375 20.4375 37.375ZM42.375 40.75V45.8125H47.4375V40.75H42.375ZM49.125 40.75V45.8125H54.1875V40.75H49.125ZM55.875 40.75V45.8125H60.9375V40.75H55.875ZM44.0625 42.4375H45.75V44.125H44.0625V42.4375ZM50.8125 42.4375H52.5V44.125H50.8125V42.4375ZM57.5625 42.4375H59.25V44.125H57.5625V42.4375ZM40.6875 52.5625H72.75C74.6349 52.5625 76.125 54.0526 76.125 55.9375V64.375C76.125 66.2599 74.6349 67.75 72.75 67.75H40.2133C40.5053 67.2505 40.6875 66.6801 40.6875 66.0625H72.75V64.375H40.6875V55.9375H72.75V54.25H40.6875V52.5625ZM1.875 54.25H39V62.6875H1.875V54.25ZM4.40625 55.9375V61H9.46875V55.9375H4.40625ZM11.1562 55.9375V61H16.2188V55.9375H11.1562ZM17.9062 55.9375V61H22.9688V55.9375H17.9062ZM24.6562 55.9375V61H29.7188V55.9375H24.6562ZM31.4062 55.9375V61H36.4688V55.9375H31.4062ZM6.09375 57.625H7.78125V59.3125H6.09375V57.625ZM12.8438 57.625H14.5312V59.3125H12.8438V57.625ZM19.5938 57.625H21.2812V59.3125H19.5938V57.625ZM26.3438 57.625H28.0312V59.3125H26.3438V57.625ZM33.0938 57.625H34.7812V59.3125H33.0938V57.625ZM42.375 57.625V62.6875H47.4375V57.625H42.375ZM49.125 57.625V62.6875H54.1875V57.625H49.125ZM55.875 57.625V62.6875H60.9375V57.625H55.875ZM44.0625 59.3125H45.75V61H44.0625V59.3125ZM50.8125 59.3125H52.5V61H50.8125V59.3125ZM57.5625 59.3125H59.25V61H57.5625V59.3125ZM1.875 64.375H39V66.0625C39 67.0126 38.2626 67.75 37.3125 67.75H3.5625C2.61244 67.75 1.875 67.0126 1.875 66.0625V64.375Z" fill="url(#paint1_linear_62_863)"/>
<path d="M32.25 0.25C29.4606 0.25 27.1875 2.52306 27.1875 5.3125V13.75C27.1875 13.8006 27.1993 13.8462 27.201 13.8951C25.1485 12.6962 22.8145 12.0638 20.4375 12.0625C13.0176 12.0625 6.9375 18.097 6.9375 25.5001V30.625H3.5625C1.70625 30.625 0.1875 32.1437 0.1875 34V66.0625C0.1875 67.9187 1.70625 69.4375 3.5625 69.4375H72.75C75.5394 69.4375 77.8125 67.1644 77.8125 64.375V55.9375C77.8113 55.1011 77.603 54.2781 77.206 53.5419C76.8091 52.8057 76.2359 52.1793 75.5378 51.7188C76.2361 51.2584 76.8094 50.6321 77.2064 49.8958C77.6034 49.1596 77.8116 48.3364 77.8125 47.5V39.0625C77.8113 38.2261 77.603 37.4031 77.206 36.6669C76.8091 35.9307 76.2359 35.3043 75.5378 34.8438C76.2361 34.3834 76.8094 33.7571 77.2064 33.0208C77.6034 32.2846 77.8116 31.4614 77.8125 30.625V22.1875C77.8113 21.3511 77.603 20.5281 77.206 19.7919C76.8091 19.0557 76.2359 18.4293 75.5378 17.9688C76.2361 17.5084 76.8094 16.8821 77.2064 16.1458C77.6034 15.4096 77.8116 14.5864 77.8125 13.75V5.3125C77.8125 2.52306 75.5394 0.25 72.75 0.25H32.25ZM32.25 1.9375H72.75C74.6349 1.9375 76.125 3.42756 76.125 5.3125V13.75C76.125 15.6349 74.6349 17.125 72.75 17.125H32.25C31.7792 17.125 31.3354 17.0305 30.9321 16.8617C30.9309 16.8617 30.9298 16.8617 30.9287 16.8617C30.8286 16.8192 30.7306 16.7719 30.6351 16.72C30.6273 16.7154 30.6194 16.7109 30.6114 16.7065C30.2168 16.2561 29.7928 15.8322 29.3424 15.4375H72.75V13.75H28.875V5.3125H72.75V3.625H29.3323C29.9111 2.61419 30.9861 1.9375 32.25 1.9375ZM42.375 7V12.0625H47.4375V7H42.375ZM49.125 7V12.0625H54.1875V7H49.125ZM55.875 7V12.0625H60.9375V7H55.875ZM44.0625 8.6875H45.75V10.375H44.0625V8.6875ZM50.8125 8.6875H52.5V10.375H50.8125V8.6875ZM57.5625 8.6875H59.25V10.375H57.5625V8.6875ZM20.4375 13.75C26.9445 13.75 32.25 19.0201 32.25 25.5001V30.625H28.8784V25.5119C28.8784 20.8577 25.1321 17.125 20.4341 17.125C15.7361 17.125 11.9899 20.8577 11.9899 25.5119V30.625H8.625V25.5001C8.625 19.0201 13.9305 13.75 20.4375 13.75ZM32.115 18.799C32.1606 18.799 32.2044 18.8125 32.25 18.8125H72.75C74.6349 18.8125 76.125 20.3026 76.125 22.1875V30.625C76.125 32.5099 74.6349 34 72.75 34H40.6875C40.6875 33.3841 40.5069 32.8103 40.215 32.3125H72.75V30.625H33.9375V25.5001C33.9375 24.3559 33.7755 23.2489 33.5021 22.1875H72.75V20.5H32.9554C32.7159 19.9138 32.4351 19.3454 32.115 18.799ZM20.4341 18.8125C24.2529 18.8125 27.1909 21.7504 27.1909 25.5119V30.625H13.6774V25.5119C13.6774 21.7504 16.6153 18.8125 20.4341 18.8125ZM42.375 23.875V28.9375H47.4375V23.875H42.375ZM49.125 23.875V28.9375H54.1875V23.875H49.125ZM55.875 23.875V28.9375H60.9375V23.875H55.875ZM44.0625 25.5625H45.75V27.25H44.0625V25.5625ZM50.8125 25.5625H52.5V27.25H50.8125V25.5625ZM57.5625 25.5625H59.25V27.25H57.5625V25.5625ZM3.5625 32.3125H37.3125C38.2626 32.3125 39 33.0499 39 34V52.5625H1.875V34C1.875 33.0499 2.61244 32.3125 3.5625 32.3125ZM20.4375 35.6875C19.3197 35.6911 18.2487 36.1367 17.4583 36.9271C16.6679 37.7175 16.2223 38.7885 16.2188 39.9062C16.2188 41.2056 16.9039 42.3413 17.9062 43.1327V49.1841H22.9688V43.1294C23.9711 42.3379 24.6546 41.2039 24.6562 39.9062C24.6562 37.5859 22.7578 35.6875 20.4375 35.6875ZM40.6875 35.6875H72.75C74.6349 35.6875 76.125 37.1776 76.125 39.0625V47.5C76.125 49.3849 74.6349 50.875 72.75 50.875H40.6875V49.1875H72.75V47.5H40.6875V39.0625H72.75V37.375H40.6875V35.6875ZM20.4375 37.375C20.9943 37.3749 21.5356 37.5586 21.9774 37.8975C22.4192 38.2364 22.7369 38.7116 22.8811 39.2494C23.0253 39.7872 22.988 40.3576 22.7751 40.8721C22.5621 41.3866 22.1853 41.8164 21.7031 42.0949L21.2812 42.3379V47.5H19.5938V42.3413L19.1719 42.0983C18.7871 41.8762 18.4676 41.5566 18.2454 41.1718C18.0232 40.787 17.9063 40.3506 17.9062 39.9062C17.9062 38.4989 19.0301 37.375 20.4375 37.375ZM42.375 40.75V45.8125H47.4375V40.75H42.375ZM49.125 40.75V45.8125H54.1875V40.75H49.125ZM55.875 40.75V45.8125H60.9375V40.75H55.875ZM44.0625 42.4375H45.75V44.125H44.0625V42.4375ZM50.8125 42.4375H52.5V44.125H50.8125V42.4375ZM57.5625 42.4375H59.25V44.125H57.5625V42.4375ZM40.6875 52.5625H72.75C74.6349 52.5625 76.125 54.0526 76.125 55.9375V64.375C76.125 66.2599 74.6349 67.75 72.75 67.75H40.2133C40.5053 67.2505 40.6875 66.6801 40.6875 66.0625H72.75V64.375H40.6875V55.9375H72.75V54.25H40.6875V52.5625ZM1.875 54.25H39V62.6875H1.875V54.25ZM4.40625 55.9375V61H9.46875V55.9375H4.40625ZM11.1562 55.9375V61H16.2188V55.9375H11.1562ZM17.9062 55.9375V61H22.9688V55.9375H17.9062ZM24.6562 55.9375V61H29.7188V55.9375H24.6562ZM31.4062 55.9375V61H36.4688V55.9375H31.4062ZM6.09375 57.625H7.78125V59.3125H6.09375V57.625ZM12.8438 57.625H14.5312V59.3125H12.8438V57.625ZM19.5938 57.625H21.2812V59.3125H19.5938V57.625ZM26.3438 57.625H28.0312V59.3125H26.3438V57.625ZM33.0938 57.625H34.7812V59.3125H33.0938V57.625ZM42.375 57.625V62.6875H47.4375V57.625H42.375ZM49.125 57.625V62.6875H54.1875V57.625H49.125ZM55.875 57.625V62.6875H60.9375V57.625H55.875ZM44.0625 59.3125H45.75V61H44.0625V59.3125ZM50.8125 59.3125H52.5V61H50.8125V59.3125ZM57.5625 59.3125H59.25V61H57.5625V59.3125ZM1.875 64.375H39V66.0625C39 67.0126 38.2626 67.75 37.3125 67.75H3.5625C2.61244 67.75 1.875 67.0126 1.875 66.0625V64.375Z" fill="url(#paint2_linear_62_863)"/>
<path d="M32.25 0.25C29.4606 0.25 27.1875 2.52306 27.1875 5.3125V13.75C27.1875 13.8006 27.1993 13.8462 27.201 13.8951C25.1485 12.6962 22.8145 12.0638 20.4375 12.0625C13.0176 12.0625 6.9375 18.097 6.9375 25.5001V30.625H3.5625C1.70625 30.625 0.1875 32.1437 0.1875 34V66.0625C0.1875 67.9187 1.70625 69.4375 3.5625 69.4375H72.75C75.5394 69.4375 77.8125 67.1644 77.8125 64.375V55.9375C77.8113 55.1011 77.603 54.2781 77.206 53.5419C76.8091 52.8057 76.2359 52.1793 75.5378 51.7188C76.2361 51.2584 76.8094 50.6321 77.2064 49.8958C77.6034 49.1596 77.8116 48.3364 77.8125 47.5V39.0625C77.8113 38.2261 77.603 37.4031 77.206 36.6669C76.8091 35.9307 76.2359 35.3043 75.5378 34.8438C76.2361 34.3834 76.8094 33.7571 77.2064 33.0208C77.6034 32.2846 77.8116 31.4614 77.8125 30.625V22.1875C77.8113 21.3511 77.603 20.5281 77.206 19.7919C76.8091 19.0557 76.2359 18.4293 75.5378 17.9688C76.2361 17.5084 76.8094 16.8821 77.2064 16.1458C77.6034 15.4096 77.8116 14.5864 77.8125 13.75V5.3125C77.8125 2.52306 75.5394 0.25 72.75 0.25H32.25ZM32.25 1.9375H72.75C74.6349 1.9375 76.125 3.42756 76.125 5.3125V13.75C76.125 15.6349 74.6349 17.125 72.75 17.125H32.25C31.7792 17.125 31.3354 17.0305 30.9321 16.8617C30.9309 16.8617 30.9298 16.8617 30.9287 16.8617C30.8286 16.8192 30.7306 16.7719 30.6351 16.72C30.6273 16.7154 30.6194 16.7109 30.6114 16.7065C30.2168 16.2561 29.7928 15.8322 29.3424 15.4375H72.75V13.75H28.875V5.3125H72.75V3.625H29.3323C29.9111 2.61419 30.9861 1.9375 32.25 1.9375ZM42.375 7V12.0625H47.4375V7H42.375ZM49.125 7V12.0625H54.1875V7H49.125ZM55.875 7V12.0625H60.9375V7H55.875ZM44.0625 8.6875H45.75V10.375H44.0625V8.6875ZM50.8125 8.6875H52.5V10.375H50.8125V8.6875ZM57.5625 8.6875H59.25V10.375H57.5625V8.6875ZM20.4375 13.75C26.9445 13.75 32.25 19.0201 32.25 25.5001V30.625H28.8784V25.5119C28.8784 20.8577 25.1321 17.125 20.4341 17.125C15.7361 17.125 11.9899 20.8577 11.9899 25.5119V30.625H8.625V25.5001C8.625 19.0201 13.9305 13.75 20.4375 13.75ZM32.115 18.799C32.1606 18.799 32.2044 18.8125 32.25 18.8125H72.75C74.6349 18.8125 76.125 20.3026 76.125 22.1875V30.625C76.125 32.5099 74.6349 34 72.75 34H40.6875C40.6875 33.3841 40.5069 32.8103 40.215 32.3125H72.75V30.625H33.9375V25.5001C33.9375 24.3559 33.7755 23.2489 33.5021 22.1875H72.75V20.5H32.9554C32.7159 19.9138 32.4351 19.3454 32.115 18.799ZM20.4341 18.8125C24.2529 18.8125 27.1909 21.7504 27.1909 25.5119V30.625H13.6774V25.5119C13.6774 21.7504 16.6153 18.8125 20.4341 18.8125ZM42.375 23.875V28.9375H47.4375V23.875H42.375ZM49.125 23.875V28.9375H54.1875V23.875H49.125ZM55.875 23.875V28.9375H60.9375V23.875H55.875ZM44.0625 25.5625H45.75V27.25H44.0625V25.5625ZM50.8125 25.5625H52.5V27.25H50.8125V25.5625ZM57.5625 25.5625H59.25V27.25H57.5625V25.5625ZM3.5625 32.3125H37.3125C38.2626 32.3125 39 33.0499 39 34V52.5625H1.875V34C1.875 33.0499 2.61244 32.3125 3.5625 32.3125ZM20.4375 35.6875C19.3197 35.6911 18.2487 36.1367 17.4583 36.9271C16.6679 37.7175 16.2223 38.7885 16.2188 39.9062C16.2188 41.2056 16.9039 42.3413 17.9062 43.1327V49.1841H22.9688V43.1294C23.9711 42.3379 24.6546 41.2039 24.6562 39.9062C24.6562 37.5859 22.7578 35.6875 20.4375 35.6875ZM40.6875 35.6875H72.75C74.6349 35.6875 76.125 37.1776 76.125 39.0625V47.5C76.125 49.3849 74.6349 50.875 72.75 50.875H40.6875V49.1875H72.75V47.5H40.6875V39.0625H72.75V37.375H40.6875V35.6875ZM20.4375 37.375C20.9943 37.3749 21.5356 37.5586 21.9774 37.8975C22.4192 38.2364 22.7369 38.7116 22.8811 39.2494C23.0253 39.7872 22.988 40.3576 22.7751 40.8721C22.5621 41.3866 22.1853 41.8164 21.7031 42.0949L21.2812 42.3379V47.5H19.5938V42.3413L19.1719 42.0983C18.7871 41.8762 18.4676 41.5566 18.2454 41.1718C18.0232 40.787 17.9063 40.3506 17.9062 39.9062C17.9062 38.4989 19.0301 37.375 20.4375 37.375ZM42.375 40.75V45.8125H47.4375V40.75H42.375ZM49.125 40.75V45.8125H54.1875V40.75H49.125ZM55.875 40.75V45.8125H60.9375V40.75H55.875ZM44.0625 42.4375H45.75V44.125H44.0625V42.4375ZM50.8125 42.4375H52.5V44.125H50.8125V42.4375ZM57.5625 42.4375H59.25V44.125H57.5625V42.4375ZM40.6875 52.5625H72.75C74.6349 52.5625 76.125 54.0526 76.125 55.9375V64.375C76.125 66.2599 74.6349 67.75 72.75 67.75H40.2133C40.5053 67.2505 40.6875 66.6801 40.6875 66.0625H72.75V64.375H40.6875V55.9375H72.75V54.25H40.6875V52.5625ZM1.875 54.25H39V62.6875H1.875V54.25ZM4.40625 55.9375V61H9.46875V55.9375H4.40625ZM11.1562 55.9375V61H16.2188V55.9375H11.1562ZM17.9062 55.9375V61H22.9688V55.9375H17.9062ZM24.6562 55.9375V61H29.7188V55.9375H24.6562ZM31.4062 55.9375V61H36.4688V55.9375H31.4062ZM6.09375 57.625H7.78125V59.3125H6.09375V57.625ZM12.8438 57.625H14.5312V59.3125H12.8438V57.625ZM19.5938 57.625H21.2812V59.3125H19.5938V57.625ZM26.3438 57.625H28.0312V59.3125H26.3438V57.625ZM33.0938 57.625H34.7812V59.3125H33.0938V57.625ZM42.375 57.625V62.6875H47.4375V57.625H42.375ZM49.125 57.625V62.6875H54.1875V57.625H49.125ZM55.875 57.625V62.6875H60.9375V57.625H55.875ZM44.0625 59.3125H45.75V61H44.0625V59.3125ZM50.8125 59.3125H52.5V61H50.8125V59.3125ZM57.5625 59.3125H59.25V61H57.5625V59.3125ZM1.875 64.375H39V66.0625C39 67.0126 38.2626 67.75 37.3125 67.75H3.5625C2.61244 67.75 1.875 67.0126 1.875 66.0625V64.375Z" stroke="url(#paint3_linear_62_863)" stroke-width="4" mask="url(#path-1-inside-1_62_863)"/>
<path d="M32.25 0.25C29.4606 0.25 27.1875 2.52306 27.1875 5.3125V13.75C27.1875 13.8006 27.1993 13.8462 27.201 13.8951C25.1485 12.6962 22.8145 12.0638 20.4375 12.0625C13.0176 12.0625 6.9375 18.097 6.9375 25.5001V30.625H3.5625C1.70625 30.625 0.1875 32.1437 0.1875 34V66.0625C0.1875 67.9187 1.70625 69.4375 3.5625 69.4375H72.75C75.5394 69.4375 77.8125 67.1644 77.8125 64.375V55.9375C77.8113 55.1011 77.603 54.2781 77.206 53.5419C76.8091 52.8057 76.2359 52.1793 75.5378 51.7188C76.2361 51.2584 76.8094 50.6321 77.2064 49.8958C77.6034 49.1596 77.8116 48.3364 77.8125 47.5V39.0625C77.8113 38.2261 77.603 37.4031 77.206 36.6669C76.8091 35.9307 76.2359 35.3043 75.5378 34.8438C76.2361 34.3834 76.8094 33.7571 77.2064 33.0208C77.6034 32.2846 77.8116 31.4614 77.8125 30.625V22.1875C77.8113 21.3511 77.603 20.5281 77.206 19.7919C76.8091 19.0557 76.2359 18.4293 75.5378 17.9688C76.2361 17.5084 76.8094 16.8821 77.2064 16.1458C77.6034 15.4096 77.8116 14.5864 77.8125 13.75V5.3125C77.8125 2.52306 75.5394 0.25 72.75 0.25H32.25ZM32.25 1.9375H72.75C74.6349 1.9375 76.125 3.42756 76.125 5.3125V13.75C76.125 15.6349 74.6349 17.125 72.75 17.125H32.25C31.7792 17.125 31.3354 17.0305 30.9321 16.8617C30.9309 16.8617 30.9298 16.8617 30.9287 16.8617C30.8286 16.8192 30.7306 16.7719 30.6351 16.72C30.6273 16.7154 30.6194 16.7109 30.6114 16.7065C30.2168 16.2561 29.7928 15.8322 29.3424 15.4375H72.75V13.75H28.875V5.3125H72.75V3.625H29.3323C29.9111 2.61419 30.9861 1.9375 32.25 1.9375ZM42.375 7V12.0625H47.4375V7H42.375ZM49.125 7V12.0625H54.1875V7H49.125ZM55.875 7V12.0625H60.9375V7H55.875ZM44.0625 8.6875H45.75V10.375H44.0625V8.6875ZM50.8125 8.6875H52.5V10.375H50.8125V8.6875ZM57.5625 8.6875H59.25V10.375H57.5625V8.6875ZM20.4375 13.75C26.9445 13.75 32.25 19.0201 32.25 25.5001V30.625H28.8784V25.5119C28.8784 20.8577 25.1321 17.125 20.4341 17.125C15.7361 17.125 11.9899 20.8577 11.9899 25.5119V30.625H8.625V25.5001C8.625 19.0201 13.9305 13.75 20.4375 13.75ZM32.115 18.799C32.1606 18.799 32.2044 18.8125 32.25 18.8125H72.75C74.6349 18.8125 76.125 20.3026 76.125 22.1875V30.625C76.125 32.5099 74.6349 34 72.75 34H40.6875C40.6875 33.3841 40.5069 32.8103 40.215 32.3125H72.75V30.625H33.9375V25.5001C33.9375 24.3559 33.7755 23.2489 33.5021 22.1875H72.75V20.5H32.9554C32.7159 19.9138 32.4351 19.3454 32.115 18.799ZM20.4341 18.8125C24.2529 18.8125 27.1909 21.7504 27.1909 25.5119V30.625H13.6774V25.5119C13.6774 21.7504 16.6153 18.8125 20.4341 18.8125ZM42.375 23.875V28.9375H47.4375V23.875H42.375ZM49.125 23.875V28.9375H54.1875V23.875H49.125ZM55.875 23.875V28.9375H60.9375V23.875H55.875ZM44.0625 25.5625H45.75V27.25H44.0625V25.5625ZM50.8125 25.5625H52.5V27.25H50.8125V25.5625ZM57.5625 25.5625H59.25V27.25H57.5625V25.5625ZM3.5625 32.3125H37.3125C38.2626 32.3125 39 33.0499 39 34V52.5625H1.875V34C1.875 33.0499 2.61244 32.3125 3.5625 32.3125ZM20.4375 35.6875C19.3197 35.6911 18.2487 36.1367 17.4583 36.9271C16.6679 37.7175 16.2223 38.7885 16.2188 39.9062C16.2188 41.2056 16.9039 42.3413 17.9062 43.1327V49.1841H22.9688V43.1294C23.9711 42.3379 24.6546 41.2039 24.6562 39.9062C24.6562 37.5859 22.7578 35.6875 20.4375 35.6875ZM40.6875 35.6875H72.75C74.6349 35.6875 76.125 37.1776 76.125 39.0625V47.5C76.125 49.3849 74.6349 50.875 72.75 50.875H40.6875V49.1875H72.75V47.5H40.6875V39.0625H72.75V37.375H40.6875V35.6875ZM20.4375 37.375C20.9943 37.3749 21.5356 37.5586 21.9774 37.8975C22.4192 38.2364 22.7369 38.7116 22.8811 39.2494C23.0253 39.7872 22.988 40.3576 22.7751 40.8721C22.5621 41.3866 22.1853 41.8164 21.7031 42.0949L21.2812 42.3379V47.5H19.5938V42.3413L19.1719 42.0983C18.7871 41.8762 18.4676 41.5566 18.2454 41.1718C18.0232 40.787 17.9063 40.3506 17.9062 39.9062C17.9062 38.4989 19.0301 37.375 20.4375 37.375ZM42.375 40.75V45.8125H47.4375V40.75H42.375ZM49.125 40.75V45.8125H54.1875V40.75H49.125ZM55.875 40.75V45.8125H60.9375V40.75H55.875ZM44.0625 42.4375H45.75V44.125H44.0625V42.4375ZM50.8125 42.4375H52.5V44.125H50.8125V42.4375ZM57.5625 42.4375H59.25V44.125H57.5625V42.4375ZM40.6875 52.5625H72.75C74.6349 52.5625 76.125 54.0526 76.125 55.9375V64.375C76.125 66.2599 74.6349 67.75 72.75 67.75H40.2133C40.5053 67.2505 40.6875 66.6801 40.6875 66.0625H72.75V64.375H40.6875V55.9375H72.75V54.25H40.6875V52.5625ZM1.875 54.25H39V62.6875H1.875V54.25ZM4.40625 55.9375V61H9.46875V55.9375H4.40625ZM11.1562 55.9375V61H16.2188V55.9375H11.1562ZM17.9062 55.9375V61H22.9688V55.9375H17.9062ZM24.6562 55.9375V61H29.7188V55.9375H24.6562ZM31.4062 55.9375V61H36.4688V55.9375H31.4062ZM6.09375 57.625H7.78125V59.3125H6.09375V57.625ZM12.8438 57.625H14.5312V59.3125H12.8438V57.625ZM19.5938 57.625H21.2812V59.3125H19.5938V57.625ZM26.3438 57.625H28.0312V59.3125H26.3438V57.625ZM33.0938 57.625H34.7812V59.3125H33.0938V57.625ZM42.375 57.625V62.6875H47.4375V57.625H42.375ZM49.125 57.625V62.6875H54.1875V57.625H49.125ZM55.875 57.625V62.6875H60.9375V57.625H55.875ZM44.0625 59.3125H45.75V61H44.0625V59.3125ZM50.8125 59.3125H52.5V61H50.8125V59.3125ZM57.5625 59.3125H59.25V61H57.5625V59.3125ZM1.875 64.375H39V66.0625C39 67.0126 38.2626 67.75 37.3125 67.75H3.5625C2.61244 67.75 1.875 67.0126 1.875 66.0625V64.375Z" stroke="url(#paint4_linear_62_863)" stroke-width="4" mask="url(#path-1-inside-1_62_863)"/>
<defs>
<linearGradient id="paint0_linear_62_863" x1="5" y1="11.5" x2="73.5" y2="73.5" gradientUnits="userSpaceOnUse">
<stop offset="0.591913" stop-color="#FF03B8"/>
<stop offset="1" stop-color="#6D2AB1"/>
</linearGradient>
<linearGradient id="paint1_linear_62_863" x1="10.8003" y1="0.249997" x2="59.8051" y2="21.533" gradientUnits="userSpaceOnUse">
<stop stop-color="#AD0B40" stop-opacity="0.878431"/>
<stop offset="1" stop-color="#FF1917"/>
</linearGradient>
<linearGradient id="paint2_linear_62_863" x1="10.8003" y1="0.249997" x2="59.8051" y2="21.533" gradientUnits="userSpaceOnUse">
<stop stop-color="#AD0B40" stop-opacity="0.878431"/>
<stop offset="1" stop-color="#FF1917"/>
</linearGradient>
<linearGradient id="paint3_linear_62_863" x1="3.5" y1="43" x2="80.5" y2="44" gradientUnits="userSpaceOnUse">
<stop stop-color="#F442B7"/>
<stop offset="1" stop-color="#6A08C3"/>
</linearGradient>
<linearGradient id="paint4_linear_62_863" x1="10.8003" y1="0.249997" x2="59.8051" y2="21.533" gradientUnits="userSpaceOnUse">
<stop stop-color="#AD0B40" stop-opacity="0.878431"/>
<stop offset="1" stop-color="#FF1917"/>
</linearGradient>
</defs>
</svg>
